<svg width="27" height="31" viewBox="0 0 27 31" fill="none" xmlns="http://www.w3.org/2000/svg">
<path d="M10.4196 0C10.7266 0 11.0211 0.121975 11.2382 0.339091C11.4553 0.556208 11.5773 0.850681 11.5773 1.15773V5.01683C11.5773 5.32388 11.4553 5.61835 11.2382 5.83547C11.0211 6.05259 10.7266 6.17456 10.4196 6.17456C10.1125 6.17456 9.81805 6.05259 9.60093 5.83547C9.38382 5.61835 9.26184 5.32388 9.26184 5.01683V1.15773C9.26184 0.850681 9.38382 0.556208 9.60093 0.339091C9.81805 0.121975 10.1125 0 10.4196 0ZM3.04097 3.04097C3.25805 2.82417 3.5523 2.70239 3.8591 2.70239C4.1659 2.70239 4.46016 2.82417 4.67723 3.04097L7.3786 5.74234C7.49235 5.84833 7.58358 5.97615 7.64686 6.11816C7.71013 6.26017 7.74416 6.41348 7.7469 6.56893C7.74964 6.72438 7.72105 6.87879 7.66282 7.02294C7.60459 7.1671 7.51793 7.29805 7.40799 7.40799C7.29805 7.51793 7.1671 7.60459 7.02294 7.66282C6.87879 7.72105 6.72438 7.74964 6.56893 7.7469C6.41348 7.74416 6.26017 7.71013 6.11816 7.64686C5.97615 7.58358 5.84833 7.49235 5.74234 7.3786L3.04097 4.67723C2.82417 4.46016 2.70239 4.1659 2.70239 3.8591C2.70239 3.5523 2.82417 3.25805 3.04097 3.04097ZM17.7982 3.04097C18.015 3.25805 18.1368 3.5523 18.1368 3.8591C18.1368 4.1659 18.015 4.46016 17.7982 4.67723L15.0968 7.3786C14.9908 7.49235 14.863 7.58358 14.721 7.64686C14.579 7.71013 14.4257 7.74416 14.2702 7.7469C14.1148 7.74964 13.9604 7.72105 13.8162 7.66282C13.672 7.60459 13.5411 7.51793 13.4312 7.40799C13.3212 7.29805 13.2346 7.1671 13.1763 7.02294C13.1181 6.87879 13.0895 6.72438 13.0922 6.56893C13.095 6.41348 13.129 6.26017 13.1923 6.11816C13.2556 5.97615 13.3468 5.84833 13.4605 5.74234L16.1619 3.04097C16.379 2.82417 16.6732 2.70239 16.98 2.70239C17.2868 2.70239 17.5811 2.82417 17.7982 3.04097ZM0 10.4196C0 10.1125 0.121975 9.81805 0.339091 9.60093C0.556208 9.38382 0.850681 9.26184 1.15773 9.26184H5.01683C5.32388 9.26184 5.61835 9.38382 5.83547 9.60093C6.05259 9.81805 6.17456 10.1125 6.17456 10.4196C6.17456 10.7266 6.05259 11.0211 5.83547 11.2382C5.61835 11.4553 5.32388 11.5773 5.01683 11.5773H1.15773C0.850681 11.5773 0.556208 11.4553 0.339091 11.2382C0.121975 11.0211 0 10.7266 0 10.4196ZM9.26184 11.5572C9.26184 9.81755 11.3025 8.87902 12.6223 10.0121L25.6831 21.2065C27.0878 22.4106 26.2882 24.7121 24.4405 24.7878L18.5129 25.024C17.8754 25.0487 17.2764 25.3327 16.8504 25.8066L12.8153 30.3171C11.5696 31.711 9.26184 30.828 9.26184 28.9587V11.5588V11.5572Z" fill="#222222"/>
</svg>
