<svg width="449" height="130" viewBox="0 0 449 130" fill="none" xmlns="http://www.w3.org/2000/svg">
<path d="M57.4802 50.9008C57.1495 51.48 56.8295 52.0443 56.5204 52.5937C56.233 53.1134 55.9497 53.6588 55.6703 54.2299C58.4182 54.7735 60.7008 55.6275 62.5182 56.7918C64.3315 57.9304 65.7967 59.2028 66.9139 60.6089C68.0271 61.9893 68.8424 63.4033 69.3598 64.851C69.8989 66.2689 70.2534 67.518 70.4231 68.5985C70.6616 70.1164 70.6327 71.6103 70.3365 73.0804C70.0619 74.5206 69.5891 75.8735 68.918 77.1388C68.2726 78.4001 67.4635 79.5421 66.4907 80.5649C65.5138 81.5619 64.4551 82.3741 63.3147 83.0014C66.1335 84.6674 68.3456 86.666 69.9508 88.9972C71.5818 91.3243 72.5994 93.7742 73.0036 96.3468C73.3431 98.5078 73.2143 100.624 72.617 102.695C72.0455 104.762 71.114 106.635 69.8225 108.314C68.531 109.993 66.9101 111.421 64.9596 112.597C63.0349 113.769 60.902 114.539 58.561 114.907C56.5286 115.227 54.5981 115.187 52.7693 114.789C50.9704 114.413 49.3002 113.766 47.7589 112.848C46.2433 111.926 44.8625 110.772 43.6167 109.386C42.3966 107.997 41.3661 106.471 40.5253 104.811L42.3638 103.929C43.8007 106.866 45.7439 109 48.1933 110.328C50.6468 111.682 53.4171 112.117 56.5043 111.632C58.408 111.333 60.1651 110.688 61.7756 109.697C63.4158 108.727 64.7969 107.535 65.919 106.12C67.037 104.679 67.8525 103.074 68.3656 101.306C68.8747 99.513 68.9776 97.6516 68.6745 95.7221C68.4683 94.4101 68.0922 93.1907 67.5461 92.0639C67 90.9371 66.3482 89.8927 65.5908 88.9309C64.8334 87.9691 64.0129 87.1095 63.1294 86.3521C62.2676 85.5648 61.3963 84.8845 60.5154 84.3112C59.841 84.549 59.1625 84.761 58.4801 84.9473C57.7976 85.1336 57.1219 85.2793 56.453 85.3844C55.5269 85.5299 54.5649 85.6152 53.5671 85.6401C52.591 85.6354 51.682 85.5541 50.84 85.3964C50.0237 85.2347 49.322 84.9627 48.7347 84.5805C48.1731 84.1942 47.8398 83.6667 47.7347 82.9978C47.7105 82.8434 47.7147 82.6187 47.7474 82.3236C47.7761 82.0027 47.884 81.6826 48.071 81.3633C48.2838 81.0399 48.6185 80.7369 49.0749 80.4542C49.5273 80.1459 50.178 79.9251 51.027 79.7917C51.8245 79.6664 52.6361 79.6311 53.4619 79.6859C54.3135 79.7366 55.1365 79.8577 55.9311 80.0492C56.7216 80.215 57.4945 80.4362 58.2497 80.713C59.0009 80.964 59.6898 81.238 60.3164 81.535C61.1779 80.9779 62.0171 80.2792 62.8341 79.4391C63.6728 78.5692 64.3972 77.5591 65.0073 76.4088C65.6174 75.2585 66.0617 73.9761 66.3403 72.5615C66.6189 71.147 66.6269 69.6036 66.3641 67.9314C65.9033 64.9986 64.6787 62.489 62.6901 60.4026C60.7015 58.3162 58.0152 56.9062 54.6312 56.1725C53.4271 58.5761 52.324 60.9505 51.3217 63.296C50.3195 65.6414 49.4072 67.9728 48.5851 70.2899C47.7629 72.6071 47.005 74.9141 46.3115 77.2111C45.6436 79.504 45.0185 81.8165 44.4359 84.1488C43.0848 89.4751 41.672 94.073 40.1974 97.9426C38.7188 101.786 36.9977 105.009 35.034 107.611C33.0961 110.209 30.8444 112.237 28.2792 113.694C25.7436 115.173 22.7265 116.188 19.2278 116.738C16.5265 117.162 14.1276 117.078 12.0309 116.484C9.93833 115.917 8.14047 114.961 6.63737 113.615C5.13427 112.27 3.91434 110.629 2.97759 108.694C2.06253 106.729 1.4231 104.588 1.05931 102.273C0.655103 99.7004 0.650385 96.986 1.04516 94.1297C1.43589 91.2476 2.22739 88.3158 3.41967 85.3342C4.1779 83.4489 5.17041 81.4608 6.39722 79.3701C7.61998 77.2536 9.06748 75.1413 10.7397 73.0333C12.4079 70.8996 14.3109 68.8343 16.4488 66.8377C18.6084 64.8113 20.9824 62.9752 23.5708 61.3296C26.1809 59.6541 29.0115 58.2076 32.0627 56.9901C35.1355 55.7429 38.4341 54.8423 41.9586 54.2886C44.1196 53.949 46.1058 53.7556 47.9173 53.7082C49.7504 53.6311 51.4583 53.6791 53.0408 53.8522C53.5395 53.1675 54.0383 52.4829 54.537 51.7982C55.0614 51.1095 55.5988 50.4188 56.149 49.726L57.4802 50.9008ZM44.638 69.3284C45.6458 66.8503 46.7272 64.5056 47.8824 62.2943C49.0592 60.0532 50.3511 57.8731 51.7579 55.7541C50.744 55.6761 49.6738 55.6598 48.5473 55.7049C47.4466 55.7461 46.2917 55.8616 45.0826 56.0516C41.198 56.662 37.4497 57.8045 33.8377 59.4792C30.2474 61.1241 26.8911 63.1672 23.7686 65.6085C20.6719 68.0458 17.8762 70.8049 15.3814 73.8857C12.8866 76.9665 10.8142 80.2182 9.16395 83.6408C7.53542 87.0337 6.3854 90.5359 5.71387 94.1474C5.06807 97.7549 5.02205 101.321 5.57582 104.845C5.85068 106.595 6.33282 108.153 7.02225 109.521C7.73336 110.859 8.64569 111.968 9.75923 112.848C10.8687 113.701 12.1626 114.302 13.6407 114.65C15.1405 114.968 16.8037 114.983 18.6302 114.696C21.6916 114.215 24.2782 113.229 26.39 111.737C28.4977 110.22 30.2835 108.331 31.7474 106.071C33.2369 103.808 34.4959 101.25 35.5243 98.4C36.5486 95.5239 37.5081 92.4866 38.4027 89.2881C39.323 86.0856 40.2549 82.7891 41.1984 79.3984C42.1419 76.0077 43.2884 72.6511 44.638 69.3284ZM57.8136 82.7191C57.3833 82.4967 56.8798 82.3122 56.3031 82.1656C55.7482 81.9891 55.1756 81.8682 54.5854 81.8028C53.9911 81.7116 53.4029 81.6591 52.8208 81.6451C52.2386 81.6311 51.7418 81.6564 51.3301 81.7211C50.6098 81.8343 50.1609 81.9971 49.9834 82.2095C49.8275 82.3922 49.7597 82.5478 49.7799 82.6764C49.8163 82.908 50.0159 83.0875 50.3786 83.215C50.7671 83.3385 51.2307 83.437 51.7695 83.5106C52.3299 83.5543 52.9378 83.5642 53.5931 83.5404C54.2483 83.5165 54.8847 83.456 55.5021 83.359C55.7851 83.3146 56.1047 83.2512 56.4608 83.1689C56.8169 83.0866 57.2679 82.9366 57.8136 82.7191ZM90.5864 93.5446C90.5835 93.8614 90.5934 94.1762 90.6162 94.489C90.6389 94.8017 90.6746 95.1125 90.7231 95.4212C90.8686 96.3473 91.1367 97.2146 91.5273 98.0232C91.9397 98.802 92.4536 99.4725 93.0692 100.035C93.7065 100.567 94.4393 100.953 95.2676 101.192C96.1217 101.427 97.0504 101.465 98.0538 101.308C101.424 100.778 104.498 99.1222 107.277 96.3394C110.056 93.5566 112.612 89.4382 114.945 83.9839L116.438 84.9355C115.185 88.0321 113.837 90.6955 112.395 92.9255C110.949 95.1298 109.446 96.974 107.887 98.4579C106.353 99.9379 104.793 101.079 103.205 101.882C101.618 102.685 100.065 103.206 98.5477 103.445C97.4414 103.618 96.2466 103.648 94.9633 103.533C93.6799 103.419 92.4543 103.084 91.2863 102.529C90.1441 101.971 89.1436 101.139 88.2847 100.035C87.4001 98.9353 86.8164 97.4849 86.5334 95.684C86.2303 93.7546 86.2737 91.8498 86.6637 89.9696C87.0239 88.0677 87.6101 86.2621 88.4223 84.5528C89.2346 82.8435 90.2234 81.2515 91.3888 79.7767C92.5502 78.2761 93.7548 76.9665 95.0025 75.8478C96.2759 74.7251 97.5432 73.8143 98.8041 73.1153C100.061 72.3906 101.204 71.9474 102.233 71.7857C102.902 71.6806 103.6 71.6764 104.327 71.7731C105.054 71.8697 105.722 72.0943 106.331 72.4468C106.965 72.7952 107.506 73.3033 107.954 73.9711C108.427 74.6348 108.743 75.4683 108.901 76.4716C109.115 77.8351 108.995 79.172 108.542 80.4821C108.111 81.7625 107.448 83.0001 106.555 84.1949C105.658 85.3639 104.58 86.4692 103.32 87.5107C102.056 88.5265 100.709 89.4366 99.2806 90.2411C97.8517 91.0455 96.3917 91.7362 94.9007 92.3132C93.4097 92.8902 91.9716 93.3006 90.5864 93.5446ZM90.6344 91.8368C92.3298 91.3859 93.8939 90.7711 95.3269 89.9924C96.7598 89.2136 98.046 88.3393 99.1853 87.3695C100.321 86.3739 101.304 85.3363 102.136 84.2565C102.994 83.1728 103.683 82.1024 104.202 81.0454C104.721 79.9885 105.092 78.9944 105.315 78.0631C105.538 77.1318 105.595 76.3189 105.485 75.6243C105.376 74.9297 105.096 74.4069 104.646 74.0559C104.221 73.7009 103.751 73.5638 103.237 73.6446C102.105 73.8225 100.896 74.4342 99.6106 75.4797C98.3209 76.4995 97.0818 77.8409 95.8933 79.5039C94.7006 81.1411 93.6256 83.0235 92.6682 85.151C91.7365 87.2745 91.0586 89.5031 90.6344 91.8368ZM171.908 80.965C171.079 82.2289 170.224 83.4176 169.345 84.5311C168.461 85.6189 167.573 86.589 166.678 87.4412C165.784 88.2935 164.881 89.0022 163.968 89.5674C163.077 90.1029 162.181 90.4413 161.28 90.5828C160.277 90.7404 159.335 90.7038 158.456 90.473C157.597 90.2124 156.818 89.7813 156.117 89.1797C155.442 88.574 154.875 87.8195 154.417 86.9161C153.959 86.0128 153.639 84.9823 153.457 83.8246C153.214 82.281 153.283 80.6226 153.664 78.8494C154.044 77.0761 154.613 75.326 155.369 73.5991C156.148 71.8424 157.043 70.1596 158.056 68.5506C159.094 66.9376 160.124 65.5237 161.146 64.3087L162.987 65.2056C162.747 65.6915 162.418 66.3627 161.999 67.2194C161.58 68.0761 161.142 69.0674 160.687 70.1935C160.227 71.2938 159.768 72.4862 159.311 73.7706C158.88 75.0511 158.504 76.3491 158.183 77.6648C157.863 78.9805 157.632 80.282 157.492 81.5694C157.377 82.8528 157.404 84.0347 157.574 85.1152C157.655 85.6297 157.773 86.1253 157.926 86.602C158.102 87.0489 158.321 87.4363 158.584 87.7641C158.872 88.0879 159.212 88.3244 159.605 88.4736C159.997 88.6228 160.476 88.653 161.042 88.564C161.943 88.4226 162.878 87.9988 163.848 87.2929C164.839 86.5571 165.826 85.6244 166.809 84.4947C167.813 83.3352 168.805 82.0193 169.787 80.5471C170.794 79.0708 171.761 77.5085 172.688 75.8603C173.615 74.212 174.498 72.5312 175.336 70.8178C176.17 69.0788 176.931 67.3776 177.618 65.7142C178.227 64.2214 178.836 62.7286 179.445 61.2357C180.05 59.7172 180.661 58.2372 181.278 56.7958L183.238 57.437C183.22 57.4925 183.052 58.0197 182.735 59.0186C182.439 59.9877 182.041 61.3156 181.542 63.0021C181.038 64.6628 180.447 66.6011 179.767 68.8168C179.108 71.0028 178.408 73.3403 177.666 75.8295C176.919 78.2929 176.157 80.8247 175.379 83.4249C174.627 86.021 173.891 88.5487 173.17 91.0081C176.482 88.4315 179.388 85.5365 181.889 82.323C184.415 79.1055 186.496 75.826 188.133 72.4846L189.73 73.3408C188.03 77.114 185.748 80.7148 182.886 84.1433C180.02 87.5461 176.455 90.9402 172.189 94.3256C170.773 99.2403 169.333 103.75 167.869 107.855C166.431 111.956 164.895 115.519 163.262 118.544C161.654 121.564 159.949 123.968 158.147 125.753C156.323 127.569 154.356 128.642 152.247 128.974C150.858 129.192 149.627 128.911 148.556 128.13C147.484 127.349 146.813 126.097 146.542 124.374C146.316 122.933 146.405 121.403 146.809 119.784C147.214 118.165 147.861 116.495 148.751 114.774C149.644 113.078 150.756 111.348 152.087 109.584C153.396 107.849 154.868 106.142 156.502 104.461C158.11 102.785 159.818 101.159 161.627 99.5834C163.461 98.0035 165.337 96.5225 167.255 95.1403C167.618 93.9234 168.009 92.6362 168.428 91.2787C168.852 89.9468 169.268 88.6555 169.678 87.4049C170.084 86.1285 170.476 84.9334 170.854 83.8195C171.255 82.6758 171.606 81.7243 171.908 80.965ZM166.068 99.1623C163.397 101.454 160.949 103.829 158.726 106.287C156.532 108.767 154.667 111.156 153.13 113.453C151.571 115.781 150.404 117.915 149.628 119.856C148.852 121.796 148.561 123.384 148.755 124.619C148.885 125.442 149.232 126.06 149.798 126.472C150.338 126.888 150.981 127.037 151.727 126.92C152.73 126.762 153.717 126.251 154.689 125.387C155.638 124.553 156.56 123.459 157.455 122.105C158.324 120.756 159.158 119.189 159.958 117.402C160.763 115.641 161.521 113.756 162.233 111.746C162.975 109.758 163.664 107.686 164.301 105.529C164.942 103.399 165.531 101.277 166.068 99.1623ZM218.451 71.7147C218.558 71.7243 218.663 71.721 218.766 71.7048C218.869 71.6886 218.984 71.6704 219.113 71.6502C219.833 71.5371 220.479 71.3697 221.051 71.1481C221.618 70.9007 222.122 70.5843 222.562 70.1988C223.028 69.8093 223.454 69.3337 223.841 68.7722C224.223 68.1849 224.576 67.4967 224.9 66.7077L226.459 67.5699C225.499 69.5133 224.418 70.9353 223.215 71.8361C222.012 72.7368 220.677 73.3024 219.211 73.5328C218.671 73.6177 218.187 73.641 217.759 73.6028C216.944 75.6289 216.009 77.397 214.955 78.9071C213.896 80.3914 212.775 81.6483 211.593 82.6777C210.41 83.7071 209.204 84.5029 207.974 85.0652C206.749 85.6532 205.583 86.0341 204.476 86.2079C203.344 86.3857 202.257 86.3456 201.215 86.0876C200.203 85.8513 199.29 85.4147 198.479 84.7777C197.667 84.1408 196.987 83.3382 196.439 82.3697C195.892 81.4013 195.517 80.274 195.315 78.9877C195.113 77.7014 195.113 76.357 195.314 74.9546C195.515 73.5521 195.86 72.1403 196.349 70.7192C196.863 69.294 197.501 67.902 198.263 66.5434C199.021 65.1589 199.87 63.8524 200.81 62.6239C201.751 61.3953 202.746 60.2636 203.796 59.2287C204.846 58.1938 205.92 57.3132 207.019 56.587L208.508 58.0138C207.299 59.2056 206.103 60.6587 204.923 62.3731C203.768 64.0835 202.751 65.9172 201.873 67.8742C201.02 69.8271 200.372 71.827 199.929 73.8736C199.507 75.8905 199.438 77.7994 199.721 79.6002C199.976 81.221 200.534 82.425 201.396 83.2122C202.254 83.9737 203.416 84.2393 204.882 84.0089C206.014 83.831 207.097 83.4236 208.13 82.7868C209.164 82.1499 210.145 81.3498 211.075 80.3866C212.004 79.4234 212.873 78.3247 213.681 77.0906C214.484 75.8308 215.227 74.5147 215.907 73.1424C215.092 72.8223 214.346 72.3466 213.666 71.7152C212.983 71.058 212.376 70.2967 211.844 69.4312C211.309 68.54 210.853 67.5703 210.478 66.5221C210.128 65.4699 209.864 64.3778 209.686 63.2459C209.509 62.114 209.482 61.0241 209.608 59.9763C209.733 58.9285 209.981 57.9932 210.353 57.1704C210.746 56.3177 211.243 55.6202 211.843 55.0778C212.443 54.5353 213.142 54.2015 213.94 54.0762C214.66 53.963 215.333 54.0549 215.96 54.3518C216.583 54.6231 217.139 55.0628 217.63 55.6711C218.117 56.2536 218.534 56.9789 218.882 57.847C219.229 58.715 219.483 59.6636 219.645 60.6926C219.766 61.4644 219.835 62.3235 219.852 63.2698C219.869 64.2162 219.824 65.1855 219.716 66.1778C219.63 67.1403 219.48 68.1129 219.265 69.0956C219.072 70.0486 218.801 70.9216 218.451 71.7147ZM211.693 62.9306C211.81 63.6767 212.002 64.4769 212.268 65.3314C212.534 66.1859 212.873 67.0025 213.286 67.7813C213.698 68.5601 214.179 69.2752 214.73 69.9269C215.276 70.5527 215.903 71.021 216.611 71.3315C216.933 70.3584 217.175 69.3845 217.338 68.4098C217.523 67.4054 217.65 66.4497 217.718 65.5427C217.812 64.6316 217.839 63.797 217.799 63.0388C217.781 62.2509 217.727 61.5739 217.638 61.0079C217.517 60.2361 217.342 59.5388 217.112 58.9158C216.882 58.2929 216.615 57.7681 216.311 57.3414C216.029 56.8849 215.7 56.5543 215.325 56.3496C214.972 56.1151 214.602 56.0282 214.216 56.0889C213.702 56.1697 213.254 56.4246 212.873 56.8534C212.489 57.2566 212.188 57.7783 211.973 58.4185C211.753 59.033 211.614 59.7402 211.555 60.5403C211.518 61.3106 211.564 62.1074 211.693 62.9306ZM251.764 68.6158C250.799 70.1909 249.831 71.6611 248.859 73.0264C247.883 74.366 246.883 75.5512 245.859 76.582C244.856 77.5831 243.825 78.4041 242.766 79.0451C241.711 79.7117 240.605 80.136 239.447 80.3179C238.469 80.4715 237.553 80.4308 236.699 80.196C235.875 79.9828 235.131 79.612 234.468 79.0835C233.776 78.5333 233.204 77.8322 232.754 76.9803C232.3 76.1027 231.984 75.0979 231.806 73.966C231.527 72.1909 231.639 70.3017 232.141 68.2984C232.618 66.2991 233.308 64.3189 234.213 62.3579C235.143 60.3928 236.203 58.4996 237.393 56.6782C238.609 54.8528 239.776 53.2196 240.894 51.7786L242.735 52.6756C242.023 54.1846 241.224 55.8918 240.337 57.7974C239.476 59.6989 238.676 61.6566 237.938 63.6706C237.222 65.6548 236.662 67.6276 236.259 69.589C235.851 71.5247 235.77 73.2771 236.017 74.8464C236.183 75.9012 236.517 76.7713 237.02 77.4567C237.549 78.1381 238.379 78.3899 239.511 78.212C240.746 78.018 242.02 77.317 243.333 76.109C244.671 74.897 245.989 73.385 247.286 71.5732C248.609 69.7574 249.888 67.7506 251.125 65.5529C252.383 63.3254 253.549 61.0992 254.623 58.8743C255.697 56.6494 256.656 54.5348 257.501 52.5304C258.372 50.5219 259.066 48.818 259.584 47.4185L262.62 48.3651C261.588 51.5323 260.578 54.4985 259.589 57.2636C258.622 59.999 257.758 62.4678 256.996 64.6699C256.257 66.8422 255.683 68.725 255.274 70.3182C254.891 71.9073 254.768 73.1392 254.906 74.0139C254.962 74.374 255.086 74.6578 255.277 74.865C255.467 75.0723 255.73 75.1497 256.065 75.0971C257.02 74.9733 257.998 74.398 258.996 73.3712C260.02 72.3403 261.01 71.0908 261.966 69.6226C262.947 68.1504 263.872 66.5684 264.74 64.8768C265.629 63.1554 266.419 61.555 267.109 60.0758L268.668 60.938C268.554 61.2196 268.315 61.7975 267.952 62.6718C267.588 63.5461 267.127 64.5543 266.569 65.6966C266.01 66.8388 265.357 68.0486 264.608 69.3261C263.86 70.6035 263.046 71.799 262.167 72.9126C261.283 74.0004 260.337 74.9399 259.327 75.7312C258.314 76.4967 257.267 76.9643 256.187 77.1341C255.518 77.2392 254.895 77.2184 254.319 77.0718C253.768 76.9211 253.282 76.6811 252.861 76.3518C252.44 76.0225 252.087 75.6167 251.8 75.1345C251.513 74.6524 251.325 74.1283 251.237 73.5623C251.131 72.8934 251.119 72.1441 251.2 71.3142C251.306 70.4803 251.494 69.5808 251.764 68.6158ZM299.532 56.0887C299.235 56.7154 298.893 57.5599 298.506 58.6224C298.141 59.6551 297.7 60.792 297.184 62.033C296.663 63.2484 296.069 64.5016 295.402 65.7927C294.76 67.0797 294.011 68.2651 293.153 69.3489C292.321 70.4286 291.373 71.3553 290.308 72.1289C289.243 72.9025 288.055 73.3923 286.743 73.5985C286.022 73.7117 285.322 73.703 284.643 73.5725C283.967 73.4678 283.349 73.2223 282.787 72.836C282.226 72.4497 281.751 71.9444 281.363 71.32C280.971 70.6698 280.702 69.8817 280.556 68.9555C280.358 67.695 280.397 66.3445 280.671 64.9043C280.968 63.4342 281.349 62.0035 281.816 60.6121C282.283 59.2207 282.768 57.9451 283.271 56.7852C283.77 55.5996 284.123 54.661 284.331 53.9693C284.538 53.2777 284.606 52.7003 284.533 52.2372C284.481 51.9028 284.318 51.6251 284.046 51.4043C283.8 51.1793 283.492 50.9774 283.121 50.7984C282.772 50.5896 282.397 50.3849 281.996 50.1843C281.617 49.9538 281.282 49.6638 280.99 49.3143C280.508 50.4444 280.016 51.5894 279.513 52.7493C279.063 53.7426 278.579 54.8599 278.062 56.101C277.541 57.3163 277.044 58.5148 276.571 59.6963L275.012 58.8341L281.239 44.6092L282.449 45.0122C282.422 45.1747 282.37 45.4332 282.294 45.7879C282.244 46.1385 282.249 46.5067 282.309 46.8926C282.354 47.1756 282.437 47.4525 282.559 47.7234C282.702 47.9645 282.933 48.1786 283.253 48.3656C284.427 49.1301 285.351 49.7231 286.023 50.1446C286.692 50.5405 287.179 50.8725 287.485 51.1408C287.812 51.3794 288.018 51.5975 288.102 51.7952C288.207 51.9632 288.284 52.2015 288.333 52.5102C288.381 52.8189 288.388 53.2 288.354 53.6535C288.32 54.1071 288.223 54.6627 288.062 55.3206C287.928 55.9744 287.709 56.7601 287.405 57.6778C287.122 58.5657 286.747 59.6133 286.277 60.8206C285.996 61.5501 285.718 62.2924 285.441 63.0477C285.186 63.7731 284.958 64.5074 284.759 65.2505C284.585 65.9896 284.463 66.7206 284.392 67.4435C284.321 68.1664 284.336 68.8494 284.437 69.4926C284.514 69.9814 284.641 70.37 284.818 70.6585C285.017 70.9172 285.244 71.1056 285.5 71.2236C285.755 71.3416 286.016 71.4061 286.281 71.4171C286.572 71.4241 286.847 71.4074 287.104 71.3669C287.953 71.2336 288.751 70.8578 289.497 70.2396C290.265 69.5917 290.985 68.8064 291.657 67.8836C292.355 66.9567 292.999 65.933 293.587 64.8125C294.197 63.6622 294.767 62.5051 295.295 61.3412C295.824 60.1773 296.31 59.0729 296.752 58.0281C297.19 56.9575 297.584 56.0257 297.934 55.2326L299.532 56.0887ZM339.149 60.6985C340.073 61.2123 341.217 61.3621 342.581 61.1478C344.047 60.9174 345.387 60.4696 346.601 59.8045C347.84 59.1353 348.967 58.3387 349.982 57.4148C350.992 56.4652 351.901 55.4525 352.707 54.3768C353.513 53.3011 354.217 52.2416 354.817 51.1982C355.44 50.1251 355.969 49.1324 356.406 48.2203C356.864 47.2784 357.229 46.4961 357.5 45.8735L359.661 45.534C359.398 46.208 359.022 47.0844 358.532 48.163C358.064 49.2119 357.478 50.3453 356.773 51.5632C356.094 52.7771 355.301 54.022 354.394 55.298C353.483 56.5483 352.441 57.7138 351.266 58.7946C350.117 59.8714 348.854 60.808 347.477 61.6044C346.095 62.375 344.581 62.8897 342.935 63.1484C342.214 63.2616 341.495 63.2956 340.776 63.2503C340.079 63.1753 339.38 63.0083 338.68 62.7492C338.159 64.9664 337.657 67.1409 337.175 69.2729C336.667 71.4089 336.194 73.4339 335.757 75.3479C335.294 77.2659 334.873 79.0323 334.494 80.6472C334.115 82.262 333.781 83.659 333.491 84.8379C333.206 86.0426 332.985 86.9868 332.829 87.6703C332.677 88.3796 332.59 88.7492 332.568 88.7789L328.201 87.4089C329.028 84.1157 329.767 81.0999 330.418 78.3615C331.042 75.6272 331.629 73.0703 332.178 70.6906C332.701 68.315 333.208 66.087 333.698 64.0065C334.159 61.9044 334.642 59.8645 335.149 57.8869C334.644 57.3599 334.257 56.8275 333.988 56.2898C333.693 55.7562 333.492 55.3133 333.384 54.9613C333.24 54.3776 333.33 53.8626 333.655 53.4161C333.951 52.9479 334.394 52.6673 334.986 52.5743C335.475 52.4975 335.951 52.594 336.415 52.8637C336.896 50.8902 337.323 49.1623 337.697 47.6802C338.092 46.1682 338.42 44.904 338.682 43.8875C338.972 42.7085 339.232 41.6791 339.463 40.7993C340.872 35.1737 342.228 30.2949 343.529 26.1626C344.852 22.0005 346.114 18.4544 347.314 15.5242C348.511 12.5683 349.648 10.1621 350.727 8.3054C351.802 6.42302 352.807 4.93387 353.742 3.83797C354.703 2.73802 355.597 1.96498 356.423 1.51883C357.245 1.04696 358.003 0.756459 358.698 0.647323C359.83 0.469471 360.822 0.577175 361.675 0.970433C362.549 1.33392 363.133 2.11215 363.426 3.3051C363.714 4.47233 363.73 5.9988 363.473 7.88451C363.241 9.76618 362.822 11.7959 362.215 13.9738C361.63 16.1219 360.895 18.32 360.009 20.5681C359.123 22.8161 358.185 24.901 357.196 26.8227C355.312 30.4401 353.561 33.4701 351.941 35.9125C350.347 38.3509 348.92 40.3414 347.66 41.8838C346.4 43.4262 345.331 44.5958 344.455 45.3926C343.574 46.1636 342.921 46.7012 342.494 47.0055L339.149 60.6985ZM361.124 4.25985C361.029 3.82655 360.868 3.46969 360.639 3.18928C360.432 2.87909 360.072 2.76442 359.557 2.84526C359.249 2.89376 358.862 3.03359 358.397 3.26475C357.929 3.47018 357.396 3.85698 356.8 4.42514C356.23 4.98926 355.604 5.7862 354.922 6.81596C354.24 7.84572 353.504 9.20036 352.714 10.8799C351.949 12.5554 351.138 14.6072 350.28 17.0353C349.448 19.4594 348.599 22.3607 347.733 25.7393C347.148 27.8874 346.49 30.4951 345.759 33.5623C345.025 36.6038 344.213 39.908 343.323 43.4747C344.399 42.4357 345.494 41.1829 346.608 39.7162C347.743 38.2197 348.861 36.6074 349.96 34.8794C351.081 33.1216 352.162 31.2778 353.203 29.348C354.244 27.4182 355.217 25.4728 356.122 23.5118C357.026 21.5507 357.83 19.6187 358.533 17.7158C359.261 15.8088 359.849 14.016 360.297 12.3376C360.767 10.6294 361.079 9.09101 361.233 7.72239C361.383 6.32804 361.347 5.17387 361.124 4.25985ZM384.325 47.7877C383.36 49.3629 382.392 50.8331 381.42 52.1984C380.444 53.5379 379.444 54.7231 378.42 55.754C377.417 56.7551 376.387 57.5761 375.327 58.217C374.272 58.8836 373.166 59.3079 372.008 59.4898C371.031 59.6434 370.115 59.6028 369.261 59.3679C368.436 59.1547 367.693 58.7839 367.03 58.2554C366.337 57.7052 365.765 57.0042 365.315 56.1523C364.861 55.2746 364.545 54.2698 364.367 53.1379C364.088 51.3628 364.2 49.4736 364.702 47.4703C365.179 45.471 365.87 43.4909 366.774 41.5298C367.704 39.5648 368.765 37.6715 369.955 35.8502C371.17 34.0248 372.337 32.3916 373.455 30.9506L375.296 31.8475C374.585 33.3565 373.785 35.0638 372.898 36.9693C372.037 38.8708 371.238 40.8285 370.5 42.8425C369.783 44.8267 369.223 46.7995 368.82 48.7609C368.412 50.6966 368.332 52.4491 368.578 54.0184C368.744 55.0731 369.078 55.9432 369.581 56.6287C370.11 57.31 370.941 57.5618 372.073 57.384C373.308 57.1899 374.581 56.4889 375.894 55.2809C377.233 54.0689 378.55 52.557 379.847 50.7452C381.17 48.9293 382.45 46.9225 383.686 44.7248C384.944 42.4974 386.11 40.2712 387.184 38.0463C388.258 35.8214 389.217 33.7067 390.062 31.7023C390.933 29.6939 391.627 27.9899 392.146 26.5904L395.181 27.537C394.15 30.7042 393.139 33.6704 392.15 36.4356C391.183 39.1709 390.319 41.6397 389.558 43.8418C388.818 46.0142 388.244 47.8969 387.835 49.4901C387.452 51.0792 387.33 52.3111 387.467 53.1858C387.524 53.546 387.647 53.8297 387.838 54.037C388.029 54.2443 388.291 54.3216 388.626 54.2691C389.582 54.1453 390.559 53.5699 391.557 52.5431C392.582 51.5123 393.572 50.2627 394.527 48.7946C395.508 47.3223 396.433 45.7404 397.301 44.0487C398.19 42.3273 398.98 40.727 399.67 39.2478L401.229 40.11C401.115 40.3915 400.877 40.9694 400.513 41.8437C400.15 42.718 399.688 43.7263 399.13 44.8685C398.571 46.0107 397.918 47.2206 397.169 48.498C396.421 49.7755 395.607 50.971 394.728 52.0845C393.844 53.1724 392.898 54.1119 391.889 54.9031C390.875 55.6686 389.829 56.1363 388.748 56.306C388.079 56.4111 387.456 56.3904 386.88 56.2437C386.329 56.093 385.843 55.853 385.422 55.5237C385.001 55.1944 384.648 54.7887 384.361 54.3065C384.074 53.8243 383.887 53.3002 383.798 52.7342C383.693 52.0654 383.68 51.316 383.761 50.4862C383.867 49.6523 384.055 48.7528 384.325 47.7877ZM438.91 27.3093C439.084 28.4155 439.069 29.5778 438.865 30.7961C438.657 31.9887 438.348 33.2103 437.938 34.4609C437.524 35.6858 437.07 36.904 436.575 38.1153C436.079 39.3266 435.617 40.4932 435.187 41.6153C434.757 42.7373 434.424 43.8045 434.187 44.817C433.947 45.8038 433.887 46.6831 434.009 47.4548C434.102 48.0465 434.293 48.4251 434.583 48.5905C434.872 48.7559 435.171 48.8143 435.48 48.7658C436.458 48.6122 437.476 47.9645 438.536 46.8226C439.591 45.6551 440.621 44.2411 441.626 42.5807C442.656 40.9162 443.653 39.1252 444.617 37.2075C445.581 35.2898 446.443 33.4804 447.204 31.7792L448.763 32.6414C448.606 32.9825 448.33 33.6585 447.935 34.6695C447.536 35.6548 447.031 36.8018 446.42 38.1105C445.804 39.3935 445.096 40.757 444.294 42.2009C443.515 43.6151 442.644 44.9513 441.682 46.2097C440.716 47.4423 439.683 48.5009 438.583 49.3855C437.508 50.266 436.367 50.8013 435.157 50.9913C434.463 51.1004 433.814 51.0837 433.212 50.9411C432.61 50.7985 432.07 50.5537 431.594 50.2067C431.143 49.8557 430.76 49.4283 430.444 48.9245C430.123 48.3949 429.914 47.8213 429.817 47.2039C429.66 46.2006 429.709 45.0858 429.964 43.8594C430.241 42.6032 430.617 41.3052 431.092 39.9652C431.567 38.6253 432.106 37.2752 432.71 35.9151C433.309 34.5292 433.854 33.2177 434.345 31.9807C434.836 30.7436 435.226 29.6148 435.514 28.5943C435.823 27.5439 435.923 26.6714 435.814 25.9768C435.689 25.1793 435.365 24.5448 434.843 24.0733C434.346 23.5977 433.712 23.4205 432.94 23.5418C432.117 23.6711 431.22 24.168 430.248 25.0324C429.273 25.871 428.22 27.0515 427.088 28.5737C425.956 30.0959 424.745 31.947 423.453 34.1271C422.183 36.2774 420.813 38.72 419.345 41.455C418.513 43.0357 417.698 44.5609 416.901 46.0305C416.552 46.6652 416.206 47.3128 415.861 47.9732C415.517 48.6336 415.173 49.294 414.828 49.9544C414.48 50.5891 414.153 51.194 413.848 51.7692C413.547 52.3701 413.273 52.8877 413.024 53.3221L409.41 52.4665L412.949 45.5442C413.455 44.5685 413.963 43.5264 414.475 42.418C414.986 41.3096 415.48 40.1775 415.958 39.0217C416.457 37.8361 416.917 36.6565 417.339 35.4831C417.761 34.3096 418.148 33.1679 418.501 32.0581C419.005 30.3973 419.319 29.043 419.445 27.9952C419.566 26.9217 419.578 26.0762 419.481 25.4588C419.372 24.7642 419.172 24.3342 418.883 24.1688C418.589 23.9777 418.211 23.9185 417.748 23.9913C417.259 24.0681 416.733 24.4143 416.171 25.0299C415.631 25.6157 415.088 26.3599 414.545 27.2625C413.997 28.1393 413.455 29.134 412.918 30.2465C412.403 31.3291 411.913 32.4078 411.449 33.4824C410.986 34.557 410.552 35.5741 410.149 36.5336C409.747 37.4932 409.408 38.2714 409.132 38.8683L407.573 38.006C408.562 35.7418 409.45 33.6779 410.238 31.8142C411.048 29.9208 411.845 28.2799 412.628 26.8914C413.437 25.4989 414.253 24.3955 415.074 23.5811C415.916 22.7369 416.865 22.232 417.92 22.0663C418.486 21.9773 419.044 22.0082 419.595 22.1589C420.172 22.3056 420.689 22.5801 421.148 22.9825C421.628 23.3552 422.035 23.8449 422.367 24.4517C422.7 25.0585 422.933 25.7864 423.066 26.6353C423.172 27.3042 423.203 28.0109 423.162 28.7555C424.12 27.4714 425.032 26.3924 425.896 25.5185C426.761 24.6446 427.572 23.9371 428.331 23.3962C429.085 22.8295 429.796 22.4015 430.462 22.1123C431.128 21.8231 431.744 21.634 432.31 21.5451C432.799 21.4683 433.379 21.4694 434.051 21.5484C434.722 21.6275 435.379 21.8669 436.022 22.2668C436.665 22.6666 437.248 23.2736 437.771 24.0877C438.316 24.8719 438.696 25.9458 438.91 27.3093Z" fill="white"/>
</svg>
