<svg width="136" height="116" viewBox="0 0 136 116" fill="none" xmlns="http://www.w3.org/2000/svg">
<path d="M96.9881 92.354C95.68 83.6519 94.7849 78.2386 92.5817 70.2904C91.7989 67.6554 90.5644 65.175 88.9325 62.9586C88.1263 61.9322 87.1854 61.0179 86.135 60.2403C84.6701 59.1568 83.0717 58.2647 81.3788 57.5857C81.3008 57.5529 81.2169 57.5364 81.1322 57.5371C81.0476 57.5379 80.9639 57.5559 80.8865 57.59C75.7378 59.8521 70.3191 61.3805 64.0919 60.8017C62.0104 60.6084 59.2275 59.7225 57.6499 57.9215C57.5666 57.8266 57.456 57.7596 57.3331 57.7296C57.2101 57.6996 57.0809 57.708 56.963 57.7538C55.8129 58.1978 54.7136 58.6585 53.5877 59.1561C52.6154 59.6029 51.7077 60.1775 50.8891 60.8647C49.6858 61.8965 48.7917 63.2386 48.3051 64.7433C47.3964 67.3227 46.697 69.9704 46.2134 72.661C45.6031 75.9942 45.0671 78.9018 44.2491 82.1795C44.2491 82.1795 44.2129 82.3685 44.1543 82.6729C45.7781 82.7241 47.1346 82.7654 48.1071 82.7962C48.536 82.8088 48.9472 82.9688 49.2709 83.249C49.5946 83.5292 49.8108 83.9124 49.8827 84.3333C50.3568 87.0955 50.8389 89.8934 51.3389 92.7844C51.3619 92.9154 51.3842 93.0443 51.4071 93.1754C53.2661 90.3695 54.4549 87.5472 55.8411 84.8449C56.3988 85.9709 57.0448 87.0575 57.5727 88.1981C57.8936 88.9072 58.1582 89.6402 58.364 90.3904C58.4043 90.5326 58.452 90.6713 58.5053 90.8088C58.8508 91.6993 58.8021 93.2155 59.485 94.8222C60.4333 94.2109 61.4129 93.6491 62.42 93.1393C63.681 92.501 65.0939 91.9337 66.4726 92.2297C68.2324 92.609 69.0854 93.3826 70.8328 93.8081C72.1103 94.1211 72.804 93.8081 73.9082 93.8022C75.4574 96.7698 76.126 101.701 76.156 102.542C77.7166 102.519 84.9862 102.404 87.3409 102.166C89.1974 101.978 91.101 101.937 92.8407 101.265C93.3168 101.082 93.7734 100.853 94.2039 100.58C95.3807 99.8829 96.2585 98.7792 96.6699 97.4792C97.0476 95.7983 97.155 94.0684 96.9881 92.354Z" fill="white"/>
<path d="M59.3923 57.197C60.0467 56.942 60.7556 56.662 61.6203 56.2809C61.8076 56.1962 61.9818 56.0852 62.1374 55.9513C64.4311 56.5632 66.8522 56.515 69.1195 55.8122C71.0915 55.1695 72.8897 54.0863 74.3763 52.6455C74.8309 52.2353 75.2623 51.8004 75.6686 51.3428C75.9977 52.4557 76.425 53.5374 76.9455 54.5754C77.2435 55.1755 79.579 56.9617 80.7898 57.6342C75.6696 59.8719 70.2801 61.3778 64.0918 60.8025C62.0104 60.6091 59.2275 59.7232 57.6499 57.9222C57.6443 57.9157 57.6384 57.9096 57.6328 57.9034L57.6567 57.8942C58.2419 57.6432 58.7944 57.4304 59.3923 57.197Z" fill="white"/>
<path d="M57.6656 34.7139C58.553 33.9202 59.4298 33.1164 60.2766 32.3295C60.2109 33.2887 60.108 34.2119 59.9512 35.1755C59.9417 35.2311 59.9467 35.2883 59.9659 35.3414C59.985 35.3945 60.0176 35.4419 60.0605 35.4788C60.1034 35.5157 60.1552 35.5409 60.2108 35.5521C60.2664 35.5632 60.324 35.5599 60.3779 35.5424C63.9942 34.318 67.3224 32.2163 69.4835 29.5605C70.0126 31.0123 70.6257 32.4325 71.3195 33.8138C72.1871 35.5156 74.3711 38.4597 76.2895 38.9657C76.7924 39.1541 77.4467 39.3403 77.9496 39.5287C78.7948 38.707 80.2482 38.7048 81.2121 39.385C81.68 39.7468 82.052 40.2167 82.296 40.7541C82.5399 41.2914 82.6484 41.8799 82.6119 42.4684C82.524 43.6494 82.0859 44.7778 81.3531 45.7107C80.4123 46.9432 79.1556 47.9011 77.7147 48.4839C76.8318 50.039 75.7046 51.4435 74.376 52.6444C72.8893 54.0849 71.0911 55.1679 69.1191 55.8105C66.8519 56.5133 64.4308 56.5615 62.1371 55.9495C60.9018 55.6288 59.7237 55.1201 58.6444 54.4414C57.4018 53.6149 56.3256 52.5641 55.4714 51.3435C54.4 49.8928 53.5795 48.2742 53.0436 46.5546C52.5342 44.9964 52.1981 43.3873 52.0413 41.7562C51.9335 40.8311 51.8904 40.0476 51.873 39.4818C52.2098 39.2351 52.6386 38.896 53.025 38.6259C54.5376 37.4501 56.118 36.0977 57.6656 34.7139Z" fill="white"/>
<path d="M56.3413 101.404C56.3397 101.368 56.3394 101.332 56.3413 101.298C56.3499 100.945 56.4848 100.606 56.7217 100.342L56.9962 99.9955L56.6393 100.07C56.3794 100.133 56.1067 100.116 55.8561 100.023C55.6056 99.9306 55.3885 99.7656 55.2327 99.5493C54.9724 99.167 55.1366 98.5226 55.2513 98.2913C55.4386 97.9792 55.6714 97.6966 55.9422 97.4526C56.2551 97.1443 57.6122 96.1113 57.9654 95.8554C59.3744 94.8325 60.8632 93.923 62.4177 93.1358C63.6787 92.4975 65.0915 91.9302 66.4702 92.2262C68.2301 92.6054 69.083 93.3791 70.8305 93.8046C72.0611 94.1062 72.7514 93.828 73.7862 93.8009C74.8019 95.7484 75.4395 98.542 75.7664 100.469L75.5517 100.533C75.1095 100.718 73.9917 101.407 72.7049 101.939C72.1308 102.174 71.5155 102.294 70.8946 102.291C70.2737 102.288 69.6594 102.163 69.0874 101.923C68.0779 103.04 66.9741 104.068 65.788 104.997C65.5674 105.174 64.8359 105.709 64.2388 105.206C63.8469 104.875 63.9386 104.118 64.1319 103.823C65.0614 102.402 65.4586 101.349 66.4885 100.04C64.781 101.096 63.1386 102.332 61.4383 103.404C60.8852 103.752 60.4239 104.055 59.7791 103.942C59.4897 103.896 59.2275 103.746 59.0433 103.519C58.8591 103.292 58.766 103.005 58.7818 102.714C58.8159 102.402 58.9298 102.105 59.1124 101.85L58.6002 102.087C58.2878 102.247 57.9524 102.357 57.606 102.415C57.4284 102.441 57.2471 102.429 57.0748 102.379C56.9025 102.328 56.7434 102.241 56.6086 102.122C56.4431 101.918 56.3492 101.666 56.3413 101.404Z" fill="white"/>
<path d="M8.93429 83.0679C10.4274 91.7666 12.0035 100.834 14.0133 112.315C14.0613 112.592 14.1997 112.845 14.4069 113.036C14.6142 113.226 14.8788 113.343 15.1597 113.369C22.0934 113.983 45.5426 114.994 53.6961 115.256C53.8861 115.262 54.0751 115.226 54.2492 115.15C54.4234 115.074 54.5784 114.96 54.7029 114.817C54.8274 114.674 54.9183 114.506 54.9689 114.323C55.0196 114.141 55.0288 113.95 54.9958 113.763C52.9887 102.329 51.394 93.1507 49.8821 84.3321C49.8103 83.9113 49.5943 83.5283 49.2709 83.248C48.9475 82.9678 48.5366 82.8076 48.108 82.7947C41.4209 82.5933 16.707 81.7932 10.2331 81.5857C10.044 81.5794 9.85591 81.6152 9.68242 81.6903C9.50893 81.7654 9.35441 81.878 9.23007 82.0199C9.10573 82.1618 9.01467 82.3294 8.96351 82.5107C8.91236 82.692 8.90237 82.8823 8.93429 83.0679Z" fill="white"/>
<path d="M49.6653 56.5743C49.8037 58.0222 50.4599 59.3725 51.5144 60.3795C52.1569 59.8955 52.8518 59.4846 53.5862 59.1545C54.7121 58.6568 55.8114 58.1962 56.9615 57.7521C57.0794 57.7064 57.2087 57.698 57.3316 57.728C57.4545 57.758 57.5651 57.825 57.6484 57.9199C57.6503 57.9116 57.6369 57.9072 57.6314 57.9011L57.6552 57.8918C58.2405 57.6408 58.7929 57.4293 59.3903 57.1947C60.0446 56.9397 60.7535 56.6597 61.6183 56.2786C61.8056 56.1938 61.9797 56.0828 62.1354 55.9489C60.9 55.6282 59.7219 55.1195 58.6426 54.4408C57.4 53.6143 56.3238 52.5635 55.4697 51.3429C54.3983 49.8922 53.5777 48.2736 53.0418 46.554C52.5325 44.9958 52.1964 43.3867 52.0395 41.7556C51.9317 40.8305 51.8887 40.047 51.8713 39.4812C52.2081 39.2346 52.6369 38.8954 53.0233 38.6253C54.5358 37.4496 56.1163 36.0968 57.6639 34.7133C58.5512 33.9196 59.4281 33.1158 60.2748 32.3289C60.2091 33.2881 60.1063 34.2113 59.9495 35.1749C59.9399 35.2305 59.945 35.2877 59.9641 35.3408C59.9833 35.394 60.0159 35.4413 60.0588 35.4782C60.1017 35.5151 60.1535 35.5403 60.2091 35.5515C60.2647 35.5626 60.3222 35.5593 60.3761 35.5418C63.9925 34.3174 67.3207 32.2157 69.4814 29.56C70.0108 31.0117 70.624 32.4318 71.3178 33.8133C72.1853 35.515 74.3693 38.4591 76.2878 38.9651C76.7906 39.1535 77.445 39.3397 77.9479 39.5281C78.7931 38.7064 80.2465 38.7042 81.2104 39.3844C81.6782 39.7462 82.0503 40.2161 82.2942 40.7535C82.5382 41.2908 82.6466 41.8793 82.6102 42.4678C82.5223 43.6488 82.0842 44.7772 81.3513 45.7101C80.4105 46.9426 79.1538 47.9005 77.713 48.4833C77.1319 49.5036 76.4454 50.4608 75.6647 51.3392L75.6666 51.3411C75.9956 52.4539 76.4229 53.5357 76.9434 54.5737C77.2414 55.1735 79.5751 56.9582 80.7853 57.6313C80.8181 57.6171 80.851 57.6035 80.8838 57.589C80.9612 57.5549 81.0448 57.5369 81.1295 57.5361C81.2142 57.5354 81.2981 57.5519 81.3761 57.5847C82.5594 58.076 83.7034 58.6561 84.7982 59.3201C85.6685 58.3075 85.6967 57.2014 85.7141 56.4438C85.7541 54.9879 85.5378 53.5362 85.0749 52.1545C84.4995 50.2575 83.4455 46.406 83.5799 39.5962C83.8241 37.6309 83.733 34.7759 83.6887 33.6782C83.5338 29.8732 81.9174 25.5737 79.4663 23.1294C79.4434 23.1063 79.4161 23.0817 79.3886 23.0576C78.7545 22.4988 78.0856 21.9805 77.3858 21.5057C77.339 21.4715 77.2929 21.4394 77.2414 21.4064C76.2716 20.7606 75.2264 20.2346 74.1289 19.84C71.8779 18.9638 69.4786 18.5266 67.0617 18.5521C63.0613 18.5022 59.1769 19.8892 56.1209 22.4588C52.0845 26.0054 49.6607 30.942 50.2834 39.0051C51.154 45.0573 49.212 51.5834 49.6653 56.5743Z" fill="#47839E"/>
<path d="M20.0479 10.6959C18.8945 9.58219 17.7471 8.46197 16.6057 7.33529C16.5368 7.26565 16.4548 7.21027 16.3644 7.17233C16.2739 7.1344 16.1768 7.11466 16.0787 7.11426C15.9805 7.11387 15.8832 7.13281 15.7925 7.17001C15.7017 7.20721 15.6192 7.26193 15.5498 7.33101C15.4804 7.40008 15.4254 7.48215 15.3881 7.57248C15.3507 7.66281 15.3316 7.75961 15.332 7.8573C15.3324 7.95498 15.3523 8.05163 15.3904 8.14165C15.4285 8.23167 15.4842 8.31329 15.5541 8.3818C16.6922 9.51137 17.8395 10.6317 18.996 11.7428C19.0649 11.8124 19.1469 11.8678 19.2373 11.9057C19.3278 11.9436 19.4249 11.9634 19.5231 11.9638C19.6212 11.9642 19.7185 11.9452 19.8093 11.908C19.9 11.8708 19.9825 11.8161 20.0519 11.747C20.1213 11.678 20.1763 11.5959 20.2137 11.5056C20.251 11.4152 20.2701 11.3184 20.2697 11.2207C20.2693 11.1231 20.2494 11.0264 20.2113 10.9364C20.1732 10.8464 20.1176 10.7647 20.0476 10.6962L20.0479 10.6959Z" fill="#211715"/>
<path d="M24.5735 6.14099C23.0229 7.43603 21.4755 8.73539 19.9313 10.0391C19.6667 10.2611 19.402 10.4831 19.1372 10.7051C18.9992 10.8446 18.9219 11.0326 18.9219 11.2284C18.9219 11.4241 18.9992 11.6121 19.1372 11.7516C19.2787 11.8867 19.467 11.9621 19.663 11.9621C19.859 11.9621 20.0474 11.8867 20.1888 11.7516C21.6704 10.5139 23.1489 9.27222 24.6243 8.02651C24.9577 7.74654 25.2913 7.46687 25.6251 7.18751C25.7632 7.04802 25.8406 6.86006 25.8406 6.66425C25.8406 6.46843 25.7632 6.28048 25.6251 6.14099C25.4836 6.00602 25.2953 5.93066 25.0993 5.93066C24.9033 5.93066 24.715 6.00602 24.5735 6.14099Z" fill="#211715"/>
<path d="M19.6462 0.000332584C17.1938 -0.018355 14.8008 0.750941 12.8228 2.19389C10.973 3.58436 9.60555 5.51488 8.91124 7.71602C7.53962 12.0566 8.84679 17.2913 12.5068 20.1318C16.1448 22.9553 21.6527 23.2569 25.6411 20.9677C29.703 18.6376 31.4334 13.7885 30.7533 9.30677C30.3922 7.01805 29.3139 4.90135 27.6722 3.25882C26.0304 1.61628 23.9093 0.531866 21.6115 0.160363C20.9613 0.0585387 20.3044 0.00504724 19.6462 0.000332584C18.6892 -0.00429257 18.6879 1.47576 19.6462 1.48038C21.7968 1.46473 23.8953 2.13849 25.6312 3.40198C27.2122 4.59635 28.3768 6.25426 28.961 8.14215C30.1337 11.9104 29.0939 16.4295 25.9891 18.9505C22.9503 21.4173 18.0714 21.6535 14.6573 19.7831C11.0943 17.8319 9.36948 13.6162 9.98139 9.66013C10.2772 7.66755 11.1871 5.81545 12.5855 4.35939C14.0488 2.87849 15.9548 1.90919 18.0181 1.59663C18.557 1.51614 19.1013 1.47728 19.6462 1.48038C20.6042 1.47576 20.6042 -0.00429257 19.6462 0.000332584Z" fill="#211715"/>
<path d="M112.226 8.44919C112.226 10.7442 112.311 13.0383 112.313 15.3333C112.313 16.4433 112.292 17.5534 112.231 18.6612C112.2 19.2241 112.158 19.786 112.107 20.3469C112.08 20.6386 112.034 20.9328 112.019 21.2251C112.016 21.2825 111.984 21.4058 112.028 21.1594C112.019 21.2103 112.013 21.2618 112.005 21.3136C111.825 22.4076 111.542 23.489 111.287 24.5672C110.935 26.0504 110.578 27.5326 110.253 29.0219C109.982 30.2627 109.635 31.5744 109.627 32.8518C109.62 33.8043 111.108 33.8055 111.114 32.8518C111.117 32.6715 111.128 32.4914 111.149 32.3122C111.154 32.258 111.161 32.204 111.168 32.1497C111.19 31.9561 111.143 32.3159 111.172 32.1149C111.193 31.9663 111.216 31.818 111.241 31.67C111.347 31.0289 111.478 30.3919 111.613 29.7564C111.931 28.2668 112.287 26.7852 112.639 25.3033C112.909 24.1673 113.199 23.0308 113.408 21.8807C113.699 19.9746 113.829 18.0475 113.796 16.1199C113.82 13.5628 113.712 11.0063 113.711 8.44919C113.711 7.49703 112.224 7.49518 112.224 8.44919H112.226Z" fill="#211715"/>
<path d="M103.582 36.6781C103.29 36.4897 103.348 35.8847 103.35 35.5418C103.32 35.0044 103.355 34.4654 103.452 33.936C103.475 33.8361 103.506 33.7382 103.545 33.6434C103.494 33.7578 103.587 33.5866 103.605 33.5549C103.66 33.4584 103.533 33.6474 103.596 33.561C103.613 33.5379 103.637 33.5209 103.654 33.4994C103.723 33.4069 103.663 33.483 103.63 33.5077C103.666 33.4809 103.708 33.4608 103.744 33.4346C103.88 33.3369 103.679 33.4429 103.793 33.4109C103.868 33.3899 103.941 33.372 104.017 33.3551C104.14 33.3273 103.917 33.3551 104.094 33.3477C104.193 33.3446 104.292 33.3378 104.392 33.3375C105.449 33.3335 106.505 33.4164 107.564 33.4112C108.264 33.4078 108.964 33.3964 109.663 33.388C109.805 33.3717 109.947 33.3717 110.089 33.388C110.084 33.388 109.985 33.3547 109.998 33.3396C109.965 33.5222 109.961 33.7087 109.985 33.8925C110.003 35.0121 110.016 36.132 110.018 37.2519L110.762 36.5119C109.605 36.5177 108.445 36.6334 107.291 36.6929C106.652 36.7259 106.012 36.7582 105.372 36.7666C105.064 36.7703 104.756 36.7777 104.449 36.7743C104.157 36.7857 103.865 36.7545 103.582 36.6818C103.41 36.5881 103.209 36.5634 103.02 36.6127C102.83 36.6621 102.667 36.7819 102.564 36.9473C102.466 37.1171 102.439 37.3185 102.489 37.5079C102.539 37.6973 102.662 37.8596 102.831 37.9599C103.548 38.299 104.351 38.2565 105.126 38.2497C105.781 38.2442 106.434 38.2189 107.088 38.185C108.31 38.1233 109.538 37.9999 110.762 37.9935C110.959 37.9907 111.146 37.9118 111.285 37.7736C111.424 37.6355 111.503 37.4488 111.506 37.2534C111.506 36.0509 111.49 34.8484 111.469 33.6458C111.457 32.912 111.276 32.1889 110.472 31.966C110.097 31.896 109.714 31.8785 109.334 31.9142C108.904 31.9197 108.473 31.9259 108.042 31.9299C107.246 31.937 106.448 31.9413 105.652 31.9114C105.166 31.8932 104.678 31.8411 104.191 31.8642C103.14 31.9139 102.339 32.4294 102.04 33.4676C101.864 34.244 101.805 35.0418 101.864 35.8354C101.88 36.6812 102.08 37.4739 102.831 37.9596C103.636 38.4763 104.382 37.1955 103.582 36.6781Z" fill="#211715"/>
<path d="M109.761 37.3767C109.805 38.7561 109.934 40.1316 110.148 41.4952C110.34 42.9771 110.554 44.4561 110.789 45.9323C111.113 47.9402 111.58 49.9284 111.808 51.9508C112.044 54.3196 112.101 56.7027 111.979 59.0801C111.975 59.4566 111.933 59.8319 111.855 60.2003C111.835 60.2811 111.813 60.3609 111.787 60.4399C111.713 60.6622 111.847 60.3474 111.746 60.5425C111.715 60.6051 111.679 60.6648 111.637 60.7211C111.761 60.5589 111.473 60.8799 111.627 60.7294C111.609 60.7476 111.425 60.8305 111.57 60.7732C111.503 60.797 111.435 60.815 111.365 60.8271C111.516 60.7963 111.276 60.8373 111.267 60.8382C111.188 60.8472 111.11 60.8558 111.031 60.8642C110.645 60.9052 110.258 60.9388 109.871 60.9687C108.119 61.1034 106.357 61.1703 104.6 61.1494C103.853 61.1404 103.104 61.1185 102.361 61.0411C102.284 61.0331 102.208 61.0248 102.132 61.0155C101.897 60.9863 102.266 61.0504 102.047 61.0029C101.974 60.9974 101.903 60.9769 101.839 60.9427C101.774 60.9085 101.718 60.8614 101.673 60.8043C101.613 60.6877 101.591 60.5552 101.611 60.4257C101.619 60.0785 101.611 59.7304 101.616 59.3829C101.643 57.1711 101.781 54.9634 101.961 52.759C102.057 51.5833 102.163 50.4085 102.257 49.2325C102.322 48.0333 102.452 46.8385 102.649 45.6535C103.16 42.9925 104.089 40.4339 104.659 37.7871C104.859 36.858 103.426 36.4612 103.225 37.3936C102.695 39.853 101.858 42.2346 101.33 44.6946C100.847 46.9483 100.769 49.2658 100.575 51.5571C100.38 53.8484 100.203 56.1422 100.146 58.4421C100.13 59.0779 100.123 59.7139 100.124 60.3501C100.105 60.6288 100.143 60.9082 100.235 61.1721C100.326 61.436 100.47 61.6791 100.657 61.8872C101.268 62.5212 102.212 62.524 103.036 62.5758C104.871 62.6698 106.71 62.6563 108.543 62.5354C109.374 62.49 110.205 62.4321 111.032 62.3442C111.841 62.2588 112.559 62.1092 112.997 61.3519C113.445 60.5771 113.462 59.5848 113.479 58.7162C113.504 57.4721 113.502 56.2239 113.479 54.9797C113.427 52.3699 113.005 49.8418 112.531 47.2813C111.941 44.2755 111.525 41.2384 111.285 38.1851C111.267 37.9163 111.254 37.6474 111.252 37.3779C111.248 36.4257 109.761 36.4239 109.765 37.3779L109.761 37.3767Z" fill="#211715"/>
<path d="M106.414 37.7179V43.3895C106.414 44.3417 107.901 44.3436 107.901 43.3895V37.7179C107.901 36.7654 106.414 36.7638 106.414 37.7179Z" fill="#211715"/>
<path d="M104.068 17.4809C104.246 20.4435 104.582 23.4039 104.881 26.356C104.938 26.9129 104.992 27.4701 105.059 28.0254C105.065 28.2198 105.145 28.4047 105.283 28.5422C105.422 28.6798 105.607 28.7596 105.803 28.7654C106 28.7644 106.188 28.686 106.327 28.5475C106.467 28.4089 106.545 28.2213 106.546 28.0254C106.193 25.1192 105.952 22.1943 105.698 19.2783C105.646 18.6798 105.591 18.0807 105.555 17.4809C105.499 16.5343 104.011 16.5279 104.068 17.4809Z" fill="#211715"/>
<path d="M108.445 22.911C108.092 24.6741 108.062 26.4853 107.842 28.266C107.843 28.4619 107.922 28.6496 108.061 28.7881C108.2 28.9267 108.389 29.005 108.585 29.006C108.781 29.0013 108.968 28.9219 109.106 28.7841C109.244 28.6463 109.324 28.4608 109.329 28.266C109.536 26.5988 109.571 24.8418 109.879 23.3044C109.926 23.1154 109.899 22.9154 109.802 22.746C109.706 22.5765 109.547 22.4506 109.36 22.3942C109.17 22.3439 108.967 22.3699 108.796 22.4665C108.625 22.5632 108.499 22.7228 108.445 22.911Z" fill="#211715"/>
<path d="M99.8848 8.7611C99.8736 9.44755 99.9094 10.134 99.9917 10.8156C100.078 11.7681 100.183 12.719 100.295 13.669C100.526 15.6393 100.68 17.6211 100.927 19.5892C101.302 22.5724 101.966 25.5153 102.53 28.4661C102.821 29.7406 103.015 31.0351 103.11 32.3386C103.146 33.288 104.633 33.2926 104.598 32.3386C104.517 31.1447 104.35 29.9582 104.098 28.788C103.859 27.485 103.59 26.1878 103.334 24.8878C103.03 23.3495 102.745 21.8022 102.508 20.2518C102.213 18.3188 102.101 16.3538 101.87 14.4115C101.74 13.324 101.613 12.2364 101.51 11.1461C101.408 10.3556 101.362 9.55896 101.372 8.76203C101.418 7.80986 99.93 7.81233 99.8848 8.76203V8.7611Z" fill="#211715"/>
<path d="M100.629 9.50145C101.826 9.49158 103.021 9.38371 104.2 9.17892C104.724 9.08642 105.212 8.82186 105.737 8.75032C106.073 8.70438 106.438 8.97048 106.857 9.09536C107.364 9.20894 107.884 9.25447 108.403 9.23072C108.928 9.24182 109.453 9.24861 109.978 9.25107C110.975 9.2557 111.974 9.25107 112.969 9.18941C113.92 9.13051 113.927 7.64984 112.969 7.70936C111.995 7.77102 111.017 7.77565 110.042 7.77102C109.516 7.76917 108.989 7.7627 108.462 7.7516C107.977 7.78174 107.49 7.72663 107.024 7.58879C106.577 7.4192 106.201 7.22433 105.707 7.27058C105.171 7.36347 104.643 7.50033 104.129 7.67975C103.545 7.80018 102.953 7.87615 102.358 7.907C101.783 7.96621 101.206 8.01647 100.627 8.02109C99.6704 8.02849 99.6667 9.50854 100.627 9.50114L100.629 9.50145Z" fill="#211715"/>
<path d="M113.218 57.5838C119.305 57.5725 125.392 57.5613 131.48 57.5502C132.738 57.5488 133.997 57.5478 135.257 57.5474C136.214 57.5474 136.215 56.0674 135.257 56.0674C129.708 56.0674 124.16 56.076 118.613 56.0933L113.218 56.1038C112.261 56.1056 112.26 57.5857 113.218 57.5838Z" fill="#211715"/>
<path d="M129.663 30.7402H127.182C126.986 30.743 126.798 30.8219 126.659 30.9601C126.52 31.0982 126.441 31.2849 126.438 31.4803C126.438 33.5326 126.442 35.5852 126.436 37.6376C126.438 37.833 126.518 38.0196 126.656 38.1578C126.795 38.296 126.983 38.3748 127.179 38.3776C128.024 38.3776 128.868 38.4013 129.713 38.4023C130.67 38.4023 130.671 36.9222 129.713 36.9222C128.868 36.9222 128.024 36.8988 127.179 36.8976L127.923 37.6376C127.929 35.5852 127.926 33.5326 127.926 31.4803L127.182 32.2203H129.663C130.62 32.2203 130.622 30.7402 129.663 30.7402Z" fill="#211715"/>
<path d="M135.257 11.5451C129.901 11.5451 124.544 11.5387 119.188 11.526L113.39 11.5186C112.433 11.5186 112.432 12.9986 113.39 12.9986C119.773 13.007 126.156 13.0152 132.54 13.023C133.446 13.0242 134.352 13.0249 135.257 13.0251C136.214 13.0251 136.216 11.5451 135.257 11.5451Z" fill="#211715"/>
<path d="M132.979 14.8067C127.265 14.7993 121.551 14.789 115.836 14.7759C114.963 14.7742 114.091 14.7731 113.218 14.7725C112.261 14.7725 112.26 16.2525 113.218 16.2525C118.263 16.2525 123.307 16.2707 128.352 16.2796L132.979 16.287C133.936 16.287 133.937 14.807 132.979 14.807V14.8067Z" fill="#211715"/>
<path d="M135.256 14.8072C134.495 14.8072 133.735 14.8067 132.974 14.8057C132.777 14.8057 132.588 14.8836 132.448 15.0224C132.309 15.1612 132.23 15.3494 132.23 15.5457C132.23 15.742 132.309 15.9302 132.448 16.069C132.588 16.2077 132.777 16.2857 132.974 16.2857C133.735 16.2857 134.495 16.2862 135.256 16.2873C135.453 16.2873 135.642 16.2093 135.782 16.0705C135.921 15.9317 136 15.7435 136 15.5472C136 15.351 135.921 15.1627 135.782 15.024C135.642 14.8852 135.453 14.8072 135.256 14.8072Z" fill="#211715"/>
<path d="M130.909 53.5292C130.909 52.1071 130.902 50.6851 130.897 49.263C130.889 46.2803 130.88 43.2976 130.871 40.3151C130.861 36.7811 130.85 33.2474 130.84 29.714C130.831 26.6478 130.823 23.5818 130.814 20.5161C130.81 18.9019 130.833 17.2849 130.804 15.6711C130.804 15.623 130.804 15.5746 130.804 15.5265C130.81 14.5737 129.323 14.5727 129.317 15.5265C129.309 16.8912 129.321 18.2562 129.324 19.621C129.332 22.5743 129.341 25.5275 129.349 28.4806C129.359 32.0126 129.37 35.5446 129.38 39.0768C129.39 42.1687 129.399 45.2607 129.408 48.3527C129.412 50.0215 129.417 51.6903 129.421 53.359C129.421 53.4157 129.421 53.4725 129.421 53.5292C129.421 54.4817 130.908 54.4832 130.908 53.5292H130.909Z" fill="#211715"/>
<path d="M133.649 53.5605C133.649 52.1378 133.642 50.7154 133.638 49.293C133.629 46.3095 133.621 43.326 133.612 40.3427C133.601 36.807 133.591 33.2723 133.581 29.7384C133.572 26.671 133.563 23.6038 133.555 20.5368C133.55 18.922 133.574 17.3051 133.544 15.6906C133.544 15.6425 133.544 15.5941 133.544 15.546C133.55 14.5932 132.063 14.5923 132.057 15.546C132.05 16.911 132.061 18.2764 132.065 19.6417C132.072 22.5957 132.081 25.5496 132.09 28.5035C132.1 32.0365 132.11 35.5696 132.12 39.1028C132.13 42.1955 132.139 45.2883 132.148 48.3812C132.153 50.0504 132.157 51.7196 132.161 53.3887C132.161 53.4455 132.161 53.5022 132.161 53.5592C132.161 54.5114 133.649 54.5129 133.649 53.5592L133.649 53.5605Z" fill="#211715"/>
<path d="M133.025 54.2624C133.768 54.2624 134.512 54.2584 135.256 54.2584C135.453 54.2584 135.642 54.1804 135.781 54.0416C135.921 53.9028 135.999 53.7146 135.999 53.5183C135.999 53.3221 135.921 53.1338 135.781 52.9951C135.642 52.8563 135.453 52.7783 135.256 52.7783C134.512 52.7783 133.768 52.7811 133.025 52.7823C132.828 52.7823 132.638 52.8603 132.499 52.9991C132.36 53.1379 132.281 53.3261 132.281 53.5224C132.281 53.7186 132.36 53.9068 132.499 54.0456C132.638 54.1844 132.828 54.2624 133.025 54.2624Z" fill="#211715"/>
<path d="M113.031 54.3088C118.415 54.2965 123.799 54.2838 129.183 54.2706C130.473 54.2675 131.762 54.2647 133.052 54.2623C134.008 54.2604 134.01 52.7804 133.052 52.7822C127.805 52.7923 122.559 52.8044 117.314 52.8186C115.886 52.8223 114.458 52.8257 113.031 52.8288C112.074 52.8309 112.072 54.311 113.031 54.3088Z" fill="#211715"/>
<path d="M52.0395 59.8591C51.3112 59.1499 50.7907 58.2568 50.5337 57.2755C50.3529 56.3721 50.2891 55.4493 50.3438 54.5297C50.3797 52.2708 50.6846 50.0242 50.9176 47.7801C51.2124 45.4166 51.3062 43.0325 51.198 40.6533C51.1202 39.4776 50.9588 38.3201 50.9359 37.1382C50.9125 36.0808 50.9533 35.0231 51.0579 33.9706C51.3966 30.6562 52.6 27.4284 54.7613 24.8899C56.9205 22.3224 59.8542 20.5165 63.1268 19.7405C67.3196 18.7623 71.7254 19.3034 75.5534 21.2668C76.0604 21.5258 76.549 21.8187 77.0161 22.1434C77.1868 22.2411 77.3892 22.268 77.5796 22.2183C77.77 22.1686 77.9331 22.0464 78.0336 21.878C78.1283 21.7078 78.1534 21.5078 78.1039 21.3197C78.0543 21.1315 77.9338 20.9696 77.7675 20.8675C76.0135 19.6014 73.819 18.8016 71.719 18.3194C69.3917 17.7849 66.9874 17.6671 64.6186 17.9715C60.8096 18.4527 57.2722 20.1895 54.5708 22.905C52.0989 25.4308 50.448 28.6384 49.8329 32.1107C49.4548 34.2958 49.3508 36.5192 49.5231 38.7299C49.6092 39.9765 49.7709 41.1994 49.7709 42.4537C49.7709 43.7081 49.6947 44.9547 49.585 46.2007C49.379 48.5682 49.0394 50.9252 48.9052 53.2988C48.7869 55.3875 48.7355 57.6116 49.853 59.4657C50.1733 59.9884 50.5552 60.4712 50.9904 60.9038C51.6643 61.5822 52.7155 60.5359 52.042 59.8573L52.0395 59.8591Z" fill="#211715"/>
<path d="M78.8661 23.5812C80.5147 25.0921 81.5507 27.338 82.1946 29.4348C82.8245 31.4859 82.9787 33.5496 83.0001 35.6803C83.0317 36.9877 82.9784 38.2957 82.8406 39.5962L83.5841 38.8562H83.5811C83.3848 38.8593 83.1975 38.9383 83.0587 39.0764C82.9199 39.2145 82.8406 39.4009 82.8375 39.5962C82.7575 42.5727 82.9595 45.5501 83.4407 48.4889C83.595 49.3829 83.7872 50.2693 84.0173 51.148C84.2884 52.1739 84.6422 53.1769 84.8284 54.2238C84.9643 55.0566 85.0099 55.9016 84.9641 56.7442C84.9708 57.4844 84.7298 58.2058 84.2791 58.7947C84.1447 58.9361 84.0699 59.1233 84.0699 59.3179C84.0699 59.5125 84.1447 59.6998 84.2791 59.8412C84.4193 59.9785 84.6081 60.0555 84.8049 60.0555C85.0016 60.0555 85.1905 59.9785 85.3307 59.8412C86.4073 58.5378 86.5412 56.9572 86.4439 55.3295C86.3153 53.9782 86.0378 52.6452 85.6163 51.3543C85.064 49.3895 84.6953 47.378 84.5149 45.3456C84.3452 43.4341 84.2817 41.5147 84.3246 39.5962L83.5811 40.3363H83.5841C83.7797 40.331 83.9658 40.2513 84.1041 40.1137C84.2424 39.976 84.3224 39.7908 84.3277 39.5962C84.5652 37.4331 84.5897 35.2519 84.4009 33.084C84.2001 30.5401 83.4852 28.0628 82.299 25.8006C81.6959 24.5855 80.8909 23.4804 79.9179 22.5322C79.2146 21.8881 78.1603 22.933 78.8664 23.5787L78.8661 23.5812Z" fill="#211715"/>
<path d="M81.469 78.6535C82.5691 82.6751 83.5729 86.7212 84.4805 90.7918C84.6878 91.7211 86.1226 91.3277 85.9147 90.3983C85.0074 86.3282 84.0035 82.2821 82.9032 78.2601C82.6519 77.3418 81.2171 77.7315 81.469 78.6535Z" fill="#211715"/>
<path d="M75.9643 91.5411C79.9747 91.8981 84.0509 91.4643 88.0591 91.2441C89.0109 91.1917 89.0171 89.7113 88.0591 89.7641C84.0524 89.9842 79.9747 90.4181 75.9643 90.061C75.7675 90.0624 75.5792 90.1408 75.44 90.2793C75.3009 90.4178 75.2221 90.6052 75.2207 90.801C75.2247 90.996 75.3044 91.1819 75.443 91.3199C75.5815 91.4578 75.7684 91.537 75.9643 91.5411Z" fill="#211715"/>
<path d="M53.1052 73.8195C53.2325 74.4493 53.3035 75.089 53.3174 75.7312C53.3751 76.4441 53.416 77.158 53.4649 77.8715C53.532 79.2878 53.717 80.6962 54.018 82.0822C54.3821 83.457 54.9183 84.7808 55.6139 86.0225C56.2583 87.2411 56.9502 88.4362 57.3895 89.7479C57.6378 90.4167 57.84 91.1014 57.9946 91.7975C58.1356 92.5523 58.2323 93.3084 58.433 94.053C58.6809 94.9719 60.1163 94.5819 59.8672 93.6596C59.6869 92.9926 59.5853 92.3143 59.4694 91.6347C59.3484 91.0508 59.1913 90.4748 58.9991 89.9101C58.5642 88.5583 57.9933 87.2537 57.295 86.0161C56.5955 84.82 56.0262 83.553 55.5969 82.2367C55.2488 80.9016 55.0399 79.5344 54.9735 78.1567C54.9152 77.3485 54.8712 76.5391 54.8059 75.7312C54.7863 74.9568 54.6974 74.1857 54.5403 73.427C54.2949 72.5072 52.8601 72.8976 53.1064 73.8204L53.1052 73.8195Z" fill="#211715"/>
<path d="M55.1318 84.5953C53.89 87.0359 52.777 89.5409 51.349 91.883C50.8508 92.6995 52.1363 93.4442 52.633 92.6301C54.0622 90.2867 55.1736 87.783 56.416 85.3424C56.8473 84.4945 55.5649 83.7443 55.1318 84.5953Z" fill="#211715"/>
<path d="M74.9533 51.5364C75.2224 52.4546 75.559 53.3517 75.9605 54.2206C76.0783 54.5256 76.2254 54.8185 76.3999 55.0953C76.5661 55.3208 76.754 55.5296 76.961 55.7188C77.9738 56.6665 79.0903 57.498 80.2895 58.1979C81.1164 58.6814 81.8656 57.4027 81.0399 56.9201C79.9682 56.298 78.9693 55.5593 78.0615 54.7176C77.8959 54.5653 77.7396 54.4031 77.5936 54.232C77.6432 54.2903 77.6696 54.3553 77.6197 54.2557C77.5952 54.2058 77.5673 54.1571 77.5425 54.1074C77.4471 53.9147 77.3566 53.7198 77.2674 53.524C76.9148 52.7533 76.6206 51.9574 76.3872 51.143C76.1285 50.2275 74.693 50.6167 74.9533 51.5364Z" fill="#211715"/>
<path d="M58.0306 58.531L58.1511 58.4799C58.3426 58.3981 58.0712 58.5107 58.1821 58.4669C58.2611 58.4361 58.3398 58.4018 58.4188 58.3698C58.595 58.2978 58.7719 58.2272 58.9495 58.1579C59.3065 58.0173 59.6643 57.8804 60.0212 57.7386C60.4484 57.57 60.8735 57.3965 61.2965 57.2181C61.7864 57.0439 62.2444 56.7912 62.6523 56.4698C62.7908 56.3305 62.8684 56.1424 62.8684 55.9465C62.8684 55.7506 62.7908 55.5625 62.6523 55.4232C62.5106 55.2888 62.3223 55.2139 62.1265 55.2139C61.9307 55.2139 61.7425 55.2888 61.6007 55.4232C61.5784 55.4427 61.5115 55.4969 61.5735 55.4507C61.5332 55.4815 61.4901 55.5084 61.4471 55.5343C61.3426 55.5945 61.2341 55.6477 61.1224 55.6934C61.0181 55.739 60.9136 55.7841 60.8091 55.8287L60.6201 55.9089L60.5774 55.9268C60.1986 56.084 59.8179 56.2372 59.4353 56.3862C58.7144 56.669 57.9925 56.9483 57.2805 57.2533C57.1102 57.3523 56.9865 57.5146 56.9364 57.7044C56.8864 57.8943 56.9142 58.0961 57.0137 58.2656C57.1173 58.4305 57.2803 58.5499 57.4693 58.5993C57.6584 58.6486 57.8593 58.6242 58.0309 58.531H58.0306Z" fill="#211715"/>
<path d="M78.4752 40.0516C79.1221 39.4546 80.1942 39.5237 80.8668 40.0463C81.6724 40.6726 81.9639 41.7845 81.8474 42.7597C81.5611 45.1565 79.4419 46.9326 77.3549 47.8391C77.1856 47.9391 77.0627 48.1014 77.0128 48.2909C76.9628 48.4804 76.9899 48.6819 77.0881 48.8517C77.1911 49.0175 77.3541 49.1375 77.5435 49.1869C77.7329 49.2363 77.9342 49.2114 78.1056 49.1172C80.3001 48.1641 82.1817 46.4605 83.0158 44.1892C83.8031 42.0447 83.1617 39.2465 80.8426 38.3686C80.2693 38.1505 79.6465 38.0945 79.0432 38.2068C78.4399 38.3192 77.8796 38.5954 77.4243 39.005C76.721 39.6544 77.7747 40.6991 78.4758 40.0516H78.4752Z" fill="#211715"/>
<path d="M51.1295 39.5349C51.1933 42.3092 51.7066 45.055 52.6495 47.6665C53.6153 50.2301 55.196 52.7379 57.3831 54.4433C61.6792 57.7935 67.9883 57.9584 72.5403 55.023C74.9436 53.4498 76.9388 51.3332 78.363 48.846C78.8389 48.0181 77.5543 47.2716 77.0787 48.0992C75.9274 50.103 74.3767 51.8514 72.5217 53.2371C70.6011 54.6881 68.2812 55.5211 65.8721 55.6245C63.4629 55.728 61.0795 55.0971 59.0404 53.8162C56.9026 52.4406 55.3076 50.1894 54.3248 47.8815C53.2506 45.2257 52.6718 42.3973 52.6167 39.5349C52.5823 38.5852 51.0948 38.579 51.1295 39.5349Z" fill="#211715"/>
<path d="M68.796 29.8399C69.4829 31.7338 70.2618 33.7081 71.3986 35.3861C72.4563 36.947 73.8385 38.661 75.5931 39.4741C75.7646 39.5677 75.9656 39.5923 76.1548 39.5429C76.3439 39.4935 76.5069 39.3739 76.6102 39.2087C76.7083 39.0388 76.7352 38.8374 76.6853 38.648C76.6354 38.4585 76.5126 38.2962 76.3435 38.1961C74.7816 37.4721 73.5575 35.951 72.6255 34.5527C71.5888 32.9983 70.8647 31.1936 70.2308 29.4465C70.1741 29.26 70.0475 29.1024 69.8773 29.0062C69.707 28.9101 69.5062 28.8827 69.3162 28.9297C69.1269 28.9832 68.9664 29.1087 68.8692 29.279C68.7721 29.4493 68.7461 29.6508 68.7969 29.8399H68.796Z" fill="#211715"/>
<path d="M68.9537 29.0416C67.8378 30.3844 66.519 31.5467 65.0446 32.4867C64.2832 32.9772 63.4918 33.4201 62.675 33.8126C62.2608 34.0124 61.8406 34.2011 61.4137 34.3728C60.9868 34.5751 60.5405 34.7338 60.0814 34.8464H60.4768C60.6119 35.2602 60.6879 35.3598 60.7048 35.1452C60.7129 35.0947 60.7206 35.0444 60.728 34.9941C60.7466 34.8692 60.7645 34.7441 60.7816 34.6189C60.8182 34.3546 60.8529 34.0904 60.8836 33.8255C60.9415 33.3282 60.9855 32.8293 61.0208 32.3297C61.0685 31.6575 60.1924 31.397 59.7505 31.8056C58.3563 33.1006 56.9503 34.3802 55.5099 35.6225C54.2372 36.7886 52.8849 37.8654 51.4626 38.8453C50.662 39.3612 51.4065 40.643 52.213 40.1231C53.701 39.1019 55.117 37.9804 56.4508 36.7665C57.93 35.4943 59.3729 34.181 60.8021 32.8539L59.5318 32.3297C59.4763 33.1145 59.3992 33.898 59.2808 34.6759C59.1751 35.0269 59.1939 35.4034 59.3341 35.7422C59.428 35.9096 59.5646 36.0494 59.7302 36.1474C59.8959 36.2454 60.0846 36.298 60.2772 36.3C60.5958 36.2645 60.906 36.1754 61.1947 36.0366C61.5234 35.9152 61.849 35.7853 62.1722 35.65C62.7949 35.3897 63.4084 35.1091 64.0076 34.7986C66.3051 33.6465 68.3448 32.0439 70.0041 30.0872C70.1383 29.9457 70.2132 29.7585 70.2132 29.5639C70.2132 29.3693 70.1383 29.1821 70.0041 29.0406C69.8639 28.9032 69.675 28.8262 69.4783 28.8262C69.2815 28.8262 69.0927 28.9032 68.9525 29.0406L68.9537 29.0416Z" fill="#211715"/>
<path d="M56.4427 99.3587C56.2834 99.3814 56.121 99.3517 55.9802 99.2742C55.7738 99.1339 55.8305 98.9014 55.8934 98.6883C55.939 98.5341 55.9117 98.6294 55.8934 98.6661C55.9257 98.5992 55.9636 98.5352 56.0068 98.4746C56.1031 98.3487 56.2092 98.2304 56.3241 98.121C56.4767 97.9666 56.6376 97.8204 56.8059 97.6831C57.7412 96.9125 58.7199 96.1956 59.7372 95.5358C61.1407 94.6237 62.6648 93.662 64.2681 93.1434C65.0408 92.8672 65.8793 92.8305 66.6733 93.0379C67.3661 93.2476 68.0415 93.5103 68.6934 93.8239C69.5121 94.2168 70.3834 94.4902 71.2805 94.6358C72.1186 94.7452 72.9257 94.5759 73.7616 94.5433C74.7153 94.5056 74.7203 93.0253 73.7616 93.0632C72.9694 93.094 72.1716 93.2901 71.379 93.1656C70.5275 92.9915 69.703 92.7053 68.9274 92.3145C68.1278 91.9191 67.2777 91.6343 66.4007 91.4678C65.4103 91.3438 64.4046 91.4773 63.4815 91.8551C61.5964 92.623 59.8116 93.615 58.166 94.8097C57.1325 95.4733 56.1637 96.2317 55.2722 97.0751C54.629 97.7331 54.1296 98.6217 54.4289 99.5699C54.7492 100.585 55.8739 100.957 56.8372 100.786C57.0264 100.732 57.1868 100.607 57.284 100.436C57.3811 100.266 57.4071 100.065 57.3564 99.8754C57.3003 99.6886 57.1738 99.5306 57.0034 99.4343C56.833 99.338 56.6318 99.3109 56.4418 99.3587H56.4427Z" fill="#211715"/>
<path d="M61.73 95.5714C60.3564 96.4121 59.0389 97.3402 57.7856 98.3499C56.7012 99.2065 55.2068 100.349 55.6827 101.935C55.7682 102.235 55.9366 102.505 56.1688 102.714C56.401 102.924 56.6877 103.064 56.9961 103.119C57.7031 103.25 58.3402 103.017 58.9753 102.727C59.1445 102.627 59.2673 102.465 59.3172 102.275C59.3671 102.086 59.3401 101.884 59.2421 101.715C59.1394 101.549 58.9763 101.428 58.7868 101.379C58.5973 101.329 58.3959 101.355 58.2246 101.449C58.0455 101.534 57.8588 101.602 57.6669 101.652C57.5506 101.69 57.4266 101.697 57.3066 101.674C57.2737 101.667 57.1182 101.604 57.169 101.629C57.2108 101.65 57.142 101.6 57.1287 101.573C57.0796 101.458 57.0663 101.331 57.0906 101.209C57.0816 101.276 57.1194 101.104 57.1281 101.08C57.1104 101.13 57.1941 100.956 57.221 100.918C57.2623 100.853 57.3487 100.669 57.4231 100.629C57.3791 100.653 57.301 100.77 57.3921 100.675C57.4231 100.64 57.454 100.605 57.485 100.571C57.5563 100.496 57.6306 100.424 57.7062 100.352C58.6492 99.4965 59.6561 98.7131 60.7181 98.0089C61.2941 97.6059 61.8775 97.2115 62.481 96.8505C63.3005 96.3605 62.5535 95.0803 61.7303 95.5727L61.73 95.5714Z" fill="#211715"/>
<path d="M64.1625 97.1002C63.039 97.8035 61.958 98.5682 60.8764 99.3329C59.8912 100.03 58.8204 100.681 58.2856 101.813C57.7778 102.888 58.1617 104.169 59.339 104.59C60.6028 105.042 61.7712 104.088 62.7571 103.432C64.0497 102.571 65.3095 101.663 66.6219 100.832C67.4275 100.323 66.6839 99.0412 65.8715 99.5543C64.6384 100.335 63.4517 101.183 62.2409 101.997C61.6724 102.432 61.0648 102.814 60.4259 103.138C60.1421 103.259 59.7263 103.276 59.5792 103.002C59.4134 102.693 59.6449 102.349 59.8871 102.027C60.3214 101.533 60.8309 101.11 61.3969 100.773C62.5554 99.9542 63.7095 99.1303 64.9123 98.3773C65.7203 97.8713 64.9742 96.5889 64.1619 97.0992L64.1625 97.1002Z" fill="#211715"/>
<path d="M65.6284 99.9587C65.1102 100.702 64.6355 101.474 64.2066 102.271C63.7834 103.013 63.1582 103.718 63.2303 104.624C63.2396 104.876 63.3079 105.122 63.4297 105.343C63.5516 105.564 63.7236 105.753 63.9321 105.896C64.1462 106.031 64.3881 106.115 64.6397 106.144C64.8913 106.172 65.1461 106.143 65.3849 106.059C65.7535 105.922 66.094 105.719 66.39 105.46C66.7748 105.152 67.1527 104.835 67.5237 104.511C68.3129 103.818 69.0579 103.076 69.7544 102.291C69.8897 102.15 69.9652 101.962 69.9652 101.767C69.9652 101.573 69.8897 101.385 69.7544 101.244C69.6141 101.107 69.4253 101.03 69.2287 101.03C69.032 101.03 68.8432 101.107 68.7029 101.244C68.1724 101.843 67.6148 102.416 67.0298 102.962C66.726 103.245 66.4155 103.52 66.0984 103.789C65.9454 103.919 65.7913 104.047 65.6362 104.174C65.5505 104.245 65.4643 104.315 65.3778 104.384C65.3431 104.418 65.3054 104.448 65.265 104.475C65.3121 104.451 65.4122 104.37 65.305 104.444C65.2044 104.512 65.1003 104.575 64.993 104.633C64.8824 104.691 65.0549 104.631 64.9279 104.654C64.8839 104.662 64.8415 104.679 64.7972 104.685C64.9013 104.668 64.8241 104.699 64.7913 104.677C64.7987 104.682 64.9549 104.736 64.7814 104.674C64.7773 104.674 64.676 104.628 64.7321 104.658C64.817 104.702 64.685 104.571 64.7677 104.703C64.7219 104.63 64.7271 104.563 64.7408 104.667C64.7312 104.638 64.7234 104.609 64.7172 104.579C64.7061 104.525 64.7068 104.54 64.7194 104.625L64.715 104.563C64.715 104.502 64.7151 104.44 64.7175 104.378C64.72 104.238 64.7216 104.369 64.7141 104.397C64.7212 104.37 64.7243 104.341 64.733 104.314C64.7417 104.287 64.7494 104.261 64.755 104.235C64.7817 104.111 64.751 104.247 64.7352 104.272C64.7854 104.192 64.834 104.111 64.8851 104.031C65.1051 103.687 65.3121 103.336 65.5138 102.982C65.936 102.197 66.4035 101.437 66.9142 100.705C67.0123 100.535 67.0393 100.334 66.9894 100.145C66.9395 99.9552 66.8167 99.7929 66.6475 99.6929C66.4762 99.5982 66.2748 99.5729 66.0853 99.6224C65.8958 99.6719 65.7328 99.7922 65.6303 99.9584L65.6284 99.9587Z" fill="#211715"/>
<path d="M69.3291 102.798C70.624 103.169 72.0094 103.068 73.2361 102.512C74.1594 102.117 75.008 101.569 75.9272 101.172C76.0966 101.072 76.2195 100.91 76.2695 100.721C76.3194 100.531 76.2923 100.33 76.194 100.16C76.0911 99.9941 75.928 99.874 75.7386 99.8246C75.5492 99.7752 75.348 99.8002 75.1765 99.8943C74.3601 100.247 73.6029 100.733 72.7908 101.1C71.8379 101.567 70.7442 101.664 69.7235 101.371C68.8042 101.098 68.4117 102.526 69.3282 102.798H69.3291Z" fill="#211715"/>
<path d="M44.9653 82.3749C45.5339 80.0882 46.0104 77.7806 46.4469 75.4662C46.8823 73.1564 47.2813 70.8444 47.8914 68.5719C48.1948 67.4413 48.5389 66.3222 48.9237 65.2147C49.2325 64.2752 49.6816 63.3874 50.256 62.5811C51.5384 60.8454 53.5941 59.9235 55.5299 59.119C56.0257 58.9137 56.5294 58.7296 57.0218 58.5193C57.1252 58.4752 57.2417 58.4696 57.1051 58.4243C57.1491 58.4388 57.2399 58.5729 57.2718 58.6069C57.4509 58.7957 57.6414 58.9736 57.8422 59.1394C58.5701 59.7346 59.3821 60.22 60.252 60.5799C62.0704 61.349 63.9867 61.5975 65.9495 61.6527C70.3085 61.7732 74.6114 60.8439 78.6671 59.2963C79.1145 59.1257 79.5593 58.9485 80.0015 58.7647C80.2618 58.6566 80.5217 58.547 80.7811 58.436C81.1005 58.2991 81.0776 58.2538 81.3843 58.3882C82.3973 58.8234 83.3796 59.3263 84.3243 59.8936C86.1015 60.9531 87.6345 62.3733 88.8233 64.0618C89.9748 65.7484 90.8946 67.5805 91.5585 69.5096C92.2281 71.4522 92.6817 73.4903 93.1607 75.4865C94.0864 79.3436 94.8086 83.242 95.4379 87.157C95.6106 88.2307 95.7785 89.3052 95.9417 90.3805C96.1218 91.3257 96.2472 92.2805 96.3172 93.24C96.3442 94.1204 96.3061 95.0016 96.2032 95.8764C96.1548 96.6266 95.9647 97.3609 95.6427 98.0409C94.7501 99.6998 92.954 100.597 91.1709 100.976C90.0415 101.179 88.9009 101.315 87.7554 101.383C87.1682 101.437 86.5823 101.489 85.9934 101.522C83.1311 101.684 80.2615 101.73 77.3943 101.779C76.9812 101.787 76.5681 101.793 76.155 101.799L76.8986 102.539C76.8247 101.465 76.6695 100.399 76.4342 99.3483C76.141 97.7276 75.6893 96.1393 75.0855 94.606C74.7746 93.7849 74.3541 93.0091 73.8353 92.2996C73.7314 92.1349 73.5684 92.0159 73.3795 91.9665C73.1906 91.9172 72.9898 91.9414 72.8181 92.0341C72.6488 92.1341 72.5258 92.2964 72.4759 92.4859C72.426 92.6754 72.4531 92.8769 72.5514 93.0467C73.7377 94.5767 74.2756 96.5692 74.7152 98.4233C74.9249 99.3099 75.1004 100.203 75.2419 101.104C75.27 101.284 75.2966 101.464 75.3216 101.644C75.2952 101.453 75.3296 101.708 75.334 101.743C75.3429 101.813 75.3516 101.884 75.3597 101.954C75.382 102.149 75.4037 102.344 75.4114 102.54C75.4147 102.735 75.4941 102.922 75.6328 103.06C75.7716 103.198 75.9588 103.277 76.155 103.28C78.8704 103.24 81.5863 103.188 84.2998 103.082C85.7374 103.025 87.1633 102.916 88.5962 102.791C90.8084 102.599 93.0844 102.313 94.9304 100.976C95.7531 100.406 96.436 99.6579 96.9282 98.7887C97.3278 97.977 97.5735 97.099 97.6529 96.1986C97.7742 95.2855 97.8272 94.3647 97.8115 93.4438C97.7548 92.4262 97.6313 91.4133 97.4419 90.4116C96.808 86.2462 96.1406 82.0838 95.2505 77.9638C94.8062 75.9061 94.3124 73.8599 93.7692 71.8252C93.2546 69.745 92.5178 67.7256 91.5712 65.8014C90.6402 63.8785 89.3676 62.1388 87.8148 60.6663C86.0933 59.1521 84.1317 57.9321 82.0096 57.0559C81.7516 56.8869 81.4496 56.7969 81.1408 56.7969C80.832 56.7969 80.53 56.8869 80.272 57.0559C79.7716 57.2734 79.2676 57.482 78.7601 57.6818C77.7475 58.0808 76.7214 58.4465 75.681 58.7672C73.5941 59.4259 71.4432 59.8634 69.2641 60.0724C67.169 60.2574 64.932 60.3166 62.8664 59.8649C61.9666 59.6769 61.0947 59.3752 60.2719 58.967C59.8626 58.7623 59.471 58.5242 59.1013 58.255C58.7277 57.9775 58.4417 57.6272 58.0972 57.3229C57.6191 56.9008 57.0499 56.9285 56.4907 57.1472C55.8872 57.3833 55.287 57.6277 54.6903 57.8801C53.6015 58.2937 52.5571 58.8149 51.5728 59.436C50.6428 60.0343 49.8156 60.7777 49.1229 61.6376C48.4871 62.4885 47.9839 63.4301 47.6305 64.4305C45.9441 69.0027 45.3266 73.8261 44.3196 78.5666C44.0767 79.7099 43.8144 80.8487 43.5327 81.983C43.3028 82.908 44.7367 83.3021 44.9669 82.3765L44.9653 82.3749Z" fill="#211715"/>
<path d="M73.4629 103.214C68.0576 106.514 62.5709 109.691 57.0642 112.821C56.1772 113.325 55.2911 113.833 54.391 114.315C53.5477 114.766 54.2981 116.044 55.1417 115.593C57.1414 114.523 59.0989 113.371 61.0629 112.239C64.0057 110.542 66.9387 108.83 69.8621 107.101C71.317 106.239 72.7673 105.37 74.2127 104.492C75.027 103.995 74.2809 102.714 73.462 103.214H73.4629Z" fill="#211715"/>
<path d="M8.21807 83.2648C9.23597 89.1949 10.2617 95.1235 11.2953 101.051C11.8908 104.47 12.4877 107.889 13.0861 111.307C13.2283 112.119 13.2646 113.003 13.9227 113.593C14.3874 114.011 14.9436 114.092 15.5421 114.142C16.2303 114.199 16.9187 114.25 17.6075 114.296C21.7902 114.585 25.9819 114.795 30.1708 115.001C35.0231 115.24 39.8764 115.458 44.7306 115.656C46.7497 115.738 48.7691 115.817 50.7887 115.893C51.5912 115.923 52.3937 115.951 53.1961 115.978C53.7259 116.045 54.2637 115.958 54.7453 115.728C55.0544 115.549 55.3108 115.292 55.4887 114.983C55.6667 114.674 55.76 114.323 55.7593 113.967C55.7255 113.526 55.657 113.089 55.5545 112.659L55.3067 111.244C55.1493 110.346 54.9921 109.449 54.8351 108.551C54.5424 106.878 54.2501 105.206 53.958 103.533C53.4086 100.385 52.8612 97.2371 52.3159 94.0889C51.8053 91.1417 51.2968 88.1943 50.7903 85.2465C50.6738 84.5682 50.6264 83.8408 50.2419 83.2463C50.0492 82.9466 49.7964 82.6897 49.4992 82.4918C49.2021 82.2938 48.8671 82.1592 48.5152 82.0962C47.8306 82.0197 47.1417 81.988 46.453 82.0012C42.6034 81.8822 38.7539 81.7604 34.9044 81.6358C30.2305 81.4866 25.5567 81.3365 20.883 81.1856L10.5499 80.8545C10.0361 80.7991 9.51831 80.9134 9.0763 81.1798C8.76969 81.3842 8.52515 81.6682 8.36917 82.0011C8.21319 82.3339 8.15172 82.7029 8.19143 83.0681C8.19756 83.2624 8.27787 83.4471 8.41601 83.5846C8.55415 83.7221 8.73975 83.802 8.93502 83.8081C9.1319 83.807 9.32043 83.7287 9.45965 83.5902C9.59887 83.4516 9.67755 83.264 9.67861 83.0681C9.61912 82.6056 9.83693 82.3169 10.3144 82.3281C10.5802 82.3336 10.8457 82.345 11.1113 82.3536L13.1289 82.4184L18.4673 82.5904C22.9046 82.7343 27.3419 82.877 31.7791 83.0184C35.8974 83.1504 40.0156 83.2813 44.1339 83.4113L46.3668 83.4809C46.958 83.4991 47.5721 83.4717 48.1601 83.5374C48.3798 83.5603 48.5877 83.6473 48.758 83.7873C48.9282 83.9273 49.0532 84.1142 49.1172 84.3246C49.2847 85.0104 49.4082 85.706 49.4868 86.4074C49.7256 87.7972 49.965 89.1866 50.205 90.5756C51.2706 96.7487 52.3441 102.92 53.4254 109.09C53.5741 109.94 53.7229 110.79 53.8719 111.64L54.094 112.904C54.156 113.254 54.3313 113.714 54.2694 114.069C54.1978 114.478 53.83 114.52 53.4777 114.509L52.4414 114.474C50.6588 114.412 48.8766 114.345 47.0946 114.273C42.498 114.09 37.9022 113.89 33.3072 113.673C28.9163 113.466 24.5254 113.249 20.1375 112.981C18.6212 112.888 17.1046 112.791 15.5908 112.666C15.2794 112.64 14.9445 112.649 14.7852 112.325C14.6602 111.94 14.5843 111.542 14.5594 111.138C14.4813 110.692 14.4033 110.246 14.3254 109.8C14.0292 108.107 13.7335 106.415 13.4381 104.722C12.3995 98.7726 11.3668 92.8216 10.3398 86.8693C10.1103 85.5363 9.88114 84.2033 9.65228 82.8704C9.59845 82.682 9.47234 82.5222 9.30117 82.4255C9.12999 82.3289 8.92748 82.303 8.73735 82.3536C8.54945 82.4096 8.39054 82.5356 8.29378 82.7054C8.19702 82.8752 8.1699 83.0756 8.21807 83.2648Z" fill="#211715"/>
<path d="M99.1087 100.893C100.365 100.893 101.622 100.886 102.879 100.883L111.186 100.857L121.204 100.826L130.104 100.8C131.756 100.795 133.408 100.791 135.058 100.787H135.257C136.214 100.787 136.215 99.3066 135.257 99.3066C133.834 99.3066 132.41 99.3131 130.986 99.3171L122.421 99.3427L112.389 99.3736L103.716 99.4004C102.223 99.4047 100.726 99.3788 99.2329 99.4133C99.1914 99.4133 99.1499 99.4133 99.109 99.4133C98.1519 99.4133 98.1504 100.893 99.109 100.893L99.1087 100.893Z" fill="#211715"/>
<path d="M0.718148 100.894C3.42327 100.891 6.12747 100.79 8.8326 100.789C9.78967 100.789 9.79121 99.3086 8.8326 99.3086C6.12747 99.3086 3.42327 99.411 0.718148 99.4137C-0.238608 99.4137 -0.240157 100.894 0.718148 100.894Z" fill="#211715"/>
<path d="M62.5946 44.6446C62.4914 44.8981 62.4024 45.1571 62.3281 45.4204C62.1983 45.8594 62.0421 46.4117 62.4115 46.7832C62.4929 46.8608 62.5846 46.9269 62.6841 46.9796C62.7851 47.0347 62.8929 47.0762 63.0048 47.103C63.1561 47.1288 63.3096 47.1391 63.463 47.1338C63.66 47.132 63.8486 47.0547 63.9897 46.918C64.1292 46.7792 64.2075 46.591 64.2075 46.3947C64.2075 46.1985 64.1292 46.0102 63.9897 45.8715C63.8479 45.7359 63.6597 45.6587 63.463 45.6556C63.3825 45.6599 63.3018 45.6593 63.2214 45.6538L63.419 45.6803C63.3784 45.6733 63.3385 45.6623 63.3001 45.6473L63.4779 45.7219C63.421 45.6966 63.3673 45.6646 63.318 45.6266L63.4686 45.7423C63.4665 45.7408 63.4647 45.739 63.463 45.737L63.5795 45.8866C63.5769 45.8829 63.5746 45.879 63.5727 45.8749L63.6477 46.0518C63.6445 46.0428 63.6423 46.0334 63.6412 46.0238L63.6675 46.2205C63.6647 46.1817 63.6663 46.1427 63.6722 46.1043L63.6458 46.301C63.6852 46.0644 63.7452 45.8316 63.8252 45.6054C63.8872 45.4142 63.9491 45.2215 64.0272 45.0368C64.0537 44.9415 64.0607 44.842 64.0479 44.744C64.035 44.6461 64.0026 44.5516 63.9526 44.4663C63.9033 44.3824 63.8379 44.3089 63.7601 44.2502C63.6823 44.1914 63.5936 44.1485 63.4991 44.1238C63.4046 44.0991 63.3061 44.0933 63.2094 44.1065C63.1126 44.1197 63.0194 44.1518 62.9351 44.2009L62.7845 44.3168C62.6935 44.4073 62.6276 44.5199 62.5933 44.6433L62.5946 44.6446Z" fill="#211715"/>
<path d="M57.0278 41.3955C56.8172 42.0522 56.9113 43.5748 58.1144 43.7275C59.7085 43.7481 59.834 41.9123 59.3165 41.0378C58.893 40.3218 57.6075 40.0027 57.0278 41.3955Z" fill="#211715"/>
<path d="M70.7086 41.4504C70.9078 42.1451 70.7356 43.73 69.4191 43.8379C67.6825 43.7917 67.6301 41.8701 68.2334 40.9796C68.7272 40.2507 70.141 39.9722 70.7086 41.4504Z" fill="#211715"/>
<path d="M61.9172 51.1969C62.6532 51.4235 63.4288 51.494 64.1939 51.4038C65.0463 51.337 65.8767 51.1017 66.6366 50.7115C66.8055 50.6112 66.9282 50.4489 66.9781 50.2595C67.028 50.0701 67.0011 49.8688 66.9033 49.6989C66.801 49.5326 66.638 49.4121 66.4484 49.3626C66.2588 49.3131 66.0574 49.3385 65.8862 49.4334C65.818 49.4701 65.7495 49.5056 65.6795 49.5386C65.6777 49.5386 65.5088 49.6154 65.6058 49.5734C65.6925 49.5355 65.5714 49.5864 65.5556 49.5925C65.3924 49.6542 65.2263 49.7086 65.0574 49.7557C64.8845 49.8031 64.7096 49.8429 64.5328 49.875C64.491 49.8827 64.4492 49.8898 64.4074 49.8966C64.3909 49.8993 64.2549 49.9209 64.3482 49.9067C64.4414 49.8926 64.3054 49.9117 64.289 49.9135C64.2363 49.9197 64.1837 49.9249 64.1307 49.9296C63.7919 49.9608 63.4511 49.9634 63.112 49.9376C63.063 49.9339 63.014 49.9286 62.9651 49.924C62.8356 49.912 62.9899 49.9317 62.9911 49.9289C62.9166 49.9216 62.8427 49.909 62.7699 49.8913C62.6149 49.8608 62.4622 49.8201 62.3126 49.7695C62.1225 49.7187 61.9199 49.7444 61.7487 49.8411C61.5775 49.9379 61.4515 50.0978 61.398 50.2863C61.3502 50.4754 61.3775 50.6756 61.4742 50.8452C61.571 51.0147 61.7296 51.1407 61.9172 51.1969Z" fill="#211715"/>
</svg>
