<svg width="130" height="83" viewBox="0 0 130 83" fill="none" xmlns="http://www.w3.org/2000/svg">
<path d="M14.034 44.8917C14.0292 32.2754 14.0227 15.5521 14.0188 4.87833C14.0185 4.38179 14.1156 3.89004 14.3045 3.43122C14.4935 2.9724 14.7706 2.55551 15.12 2.20438C15.4694 1.85325 15.8843 1.57477 16.341 1.38487C16.7976 1.19497 17.287 1.09737 17.7812 1.09765L100.194 1.06934C100.689 1.06905 101.178 1.16667 101.635 1.35661C102.092 1.54655 102.507 1.82509 102.857 2.17631C103.207 2.52753 103.484 2.94456 103.673 3.40355C103.863 3.86254 103.96 4.3545 103.96 4.85132C103.96 19.1715 103.966 42.4298 103.972 57.2471C106.949 61.4504 113.338 70.2965 116.46 75.6552C116.769 76.188 116.932 76.7943 116.93 77.4113C116.93 77.9581 116.919 78.6199 116.919 79.3034C116.918 79.9991 116.642 80.666 116.152 81.1577C115.662 81.6493 114.998 81.9255 114.306 81.9257H3.25199C2.96591 81.9257 2.68263 81.8692 2.41831 81.7592C2.15399 81.6493 1.91381 81.4881 1.71148 81.2849C1.50915 81.0817 1.34865 80.8404 1.23912 80.5749C1.12959 80.3094 1.07318 80.0248 1.07313 79.7373C1.07313 76.3609 1.06055 80.7285 1.06055 77.4161C1.05939 76.7966 1.22237 76.1879 1.53275 75.6525C4.69025 70.2355 11.1028 61.1106 14.0379 56.9705C14.0375 53.9165 14.0362 49.7028 14.034 44.8917Z" fill="white"/>
<path d="M72.4713 18.7646C73.4972 25.8916 74.8266 35.1263 75.8608 42.3082C75.9056 42.6202 76.0112 42.9203 76.1715 43.1912C76.3318 43.4622 76.5437 43.6987 76.7951 43.8874C77.0465 44.076 77.3324 44.213 77.6365 44.2905C77.9405 44.3681 78.2569 44.3846 78.5673 44.3393C86.7846 43.1447 104.283 40.6039 112.875 39.354C113.186 39.3093 113.485 39.2034 113.755 39.0425C114.024 38.8815 114.26 38.6686 114.448 38.4161C114.636 38.1635 114.772 37.8761 114.849 37.5705C114.926 37.2649 114.942 36.947 114.897 36.635C113.86 29.4557 112.532 20.2219 111.507 13.0927C111.463 12.7807 111.358 12.4806 111.198 12.2095C111.037 11.9384 110.826 11.7018 110.574 11.5131C110.323 11.3244 110.037 11.1873 109.733 11.1098C109.429 11.0322 109.113 11.0157 108.803 11.0612C101.596 12.1068 82.5222 14.8793 74.4932 16.0465C74.1826 16.0912 73.8839 16.1969 73.6141 16.3578C73.3443 16.5187 73.1087 16.7315 72.9209 16.984C72.733 17.2365 72.5967 17.5237 72.5195 17.8293C72.4424 18.1348 72.426 18.4527 72.4713 18.7646Z" fill="white"/>
<path d="M97.7956 59.8127C98.1625 59.8127 98.5239 59.9018 98.8491 60.0725C99.1743 60.2432 99.4536 60.4904 99.6631 60.793C101.08 62.8253 102.603 65.0716 103.956 67.2617C104.06 67.4283 104.117 67.6199 104.123 67.8164C104.128 68.013 104.081 68.2074 103.986 68.3795C103.891 68.5516 103.752 68.695 103.584 68.7949C103.415 68.8948 103.223 68.9476 103.027 68.9477H14.9655C14.7705 68.9481 14.5789 68.8961 14.4105 68.7972C14.2421 68.6982 14.1031 68.5559 14.0078 68.3849C13.9125 68.2139 13.8644 68.0205 13.8684 67.8245C13.8724 67.6286 13.9284 67.4373 14.0307 67.2704C15.3874 65.0751 16.9146 62.8223 18.3342 60.7843C18.5439 60.4831 18.823 60.2373 19.1476 60.0677C19.4723 59.8982 19.8328 59.81 20.1987 59.8105C36.4476 59.8105 81.548 59.8105 97.7973 59.8105" fill="#47839E"/>
<path d="M98.7646 61.3215C99.6548 62.6001 100.535 63.8858 101.392 65.1871C101.809 65.8197 102.22 66.4563 102.625 67.097C102.738 67.2765 103.032 67.6429 103.081 67.7719C103.115 67.859 103.087 67.9026 103.02 67.9174C102.992 67.9244 102.759 67.903 102.684 67.903H15.5295C15.3518 67.903 15.1319 67.903 14.9715 67.9069C14.9646 67.9069 14.8961 67.7863 14.9099 67.9069C14.89 67.7362 15.1363 67.4713 15.2568 67.2765C16.1049 65.926 16.9856 64.5946 17.8827 63.2758C18.3001 62.6624 18.721 62.0512 19.1454 61.4421C19.2421 61.3032 19.3999 60.9416 19.5512 60.8671C19.6905 60.8392 19.8337 60.8363 19.974 60.8584H34.9364H62.0227H92.8706C94.21 60.8584 94.2122 58.7672 92.8706 58.7672H20.8022C19.8426 58.7672 18.7803 58.6426 18.0518 59.4154C17.583 59.9807 17.1568 60.5802 16.7766 61.2091C16.3097 61.8867 15.8472 62.5673 15.3891 63.251C14.9633 63.8871 14.5427 64.526 14.1273 65.1679C13.7153 65.8079 13.1256 66.4997 12.9132 67.2425C12.8262 67.5631 12.8134 67.8994 12.8758 68.2257C12.9381 68.552 13.0738 68.8597 13.2727 69.1251C13.4715 69.3906 13.7282 69.6068 14.023 69.7573C14.3178 69.9078 14.643 69.9885 14.9737 69.9933C15.6167 70.0177 16.2649 69.9933 16.9088 69.9933H102.047C102.328 69.9933 102.608 69.9964 102.889 69.9933C103.175 70.0061 103.461 69.962 103.73 69.8636C104 69.7653 104.247 69.6145 104.459 69.4201C104.67 69.2256 104.841 68.9911 104.962 68.7302C105.083 68.4692 105.152 68.1868 105.165 67.8991C105.172 67.1802 104.792 66.6256 104.423 66.041C104.018 65.3997 103.608 64.7629 103.191 64.1306C102.334 62.8297 101.453 61.5436 100.563 60.2654C100.419 60.0314 100.191 59.8619 99.9258 59.7921C99.6608 59.7223 99.3792 59.7575 99.1393 59.8903C98.9026 60.0318 98.7309 60.261 98.661 60.5286C98.5912 60.7962 98.6289 61.0807 98.7659 61.3206L98.7646 61.3215Z" fill="#211715"/>
<path d="M97.856 41.3109C97.8601 45.8781 97.8615 50.4453 97.8604 55.0125L98.901 53.9669C95.0113 53.9669 91.1216 53.9676 87.2319 53.969L69.941 53.9747L50.6712 53.9812L32.8553 53.9882L20.1663 53.9926H19.1092L20.1499 55.0382C20.1478 50.744 20.1458 46.4498 20.1438 42.1556C20.1397 33.9361 20.136 25.7156 20.1325 17.4941C20.1308 13.6893 20.1293 9.88554 20.1282 6.08279L19.0875 7.12838L31.496 7.12402L51.225 7.11749L72.7187 7.11051L90.4189 7.10485H96.1099C96.9858 7.10485 97.8842 7.16279 98.7584 7.10485C98.7983 7.10224 98.8386 7.10485 98.8785 7.10485L97.8378 6.05926C97.8378 8.23322 97.8393 10.4072 97.8422 12.5811C97.8422 13.9269 99.9235 13.9291 99.9235 12.5811C99.9235 10.4072 99.922 8.23322 99.9191 6.05926C99.9152 5.78318 99.8043 5.51951 99.61 5.32428C99.4157 5.12904 99.1533 5.01761 98.8785 5.01367L92.0184 5.01585L75.1439 5.02151L53.8105 5.02848L33.5773 5.03502L20.0467 5.03938H19.0875C18.8127 5.04332 18.5503 5.15474 18.356 5.34998C18.1617 5.54522 18.0508 5.80889 18.0469 6.08497C18.0492 13.5493 18.0522 21.015 18.056 28.4819L18.0664 50.4829C18.0664 52.0016 18.0671 53.5202 18.0686 55.0386C18.0724 55.3147 18.1832 55.5784 18.3776 55.7737C18.5719 55.969 18.8344 56.0804 19.1092 56.0842L30.9661 56.0798L48.3536 56.0733L67.6291 56.0663L85.3596 56.0607C89.5303 56.0607 93.7011 56.0598 97.8721 56.058H98.901C99.1758 56.0541 99.4382 55.9427 99.6325 55.7474C99.8269 55.5522 99.9378 55.2885 99.9417 55.0125C99.9417 50.4453 99.9402 45.8781 99.9373 41.3109C99.9373 39.9655 97.856 39.9629 97.856 41.3109Z" fill="#211715"/>
<path d="M102.926 40.5752C102.926 45.3094 102.927 50.0446 102.93 54.7808C102.93 55.2609 102.93 55.741 102.93 56.2211C102.93 56.7744 102.84 57.3774 103.135 57.8658C103.486 58.4465 103.932 58.9876 104.325 59.54C105.312 60.9269 106.296 62.3153 107.277 63.7054C109.445 66.7842 111.593 69.8796 113.628 73.0486C114.08 73.7529 114.524 74.4625 114.96 75.1772C115.437 75.9636 115.888 76.6437 115.889 77.5973C115.889 78.4133 116.092 79.5247 115.583 80.2279C115.415 80.4476 115.196 80.6222 114.945 80.7363C114.694 80.8503 114.419 80.9001 114.144 80.8814C111.2 80.897 108.255 80.8814 105.31 80.8814H4.64404C4.07157 80.9427 3.49349 80.9268 2.92523 80.8339C1.84122 80.5058 2.15342 79.2389 2.11049 78.3685C2.10733 78.1171 2.01453 77.8753 1.84895 77.6868C1.68337 77.4984 1.456 77.3759 1.20816 77.3416C0.959634 77.3046 0.706208 77.3603 0.495826 77.4983C0.285444 77.6363 0.132697 77.847 0.0664818 78.0905C0.0339615 78.314 0.0417664 78.5205 0.0231214 78.744H2.10442C2.08664 78.5013 2.10442 78.2513 2.10442 78.0082C2.06664 77.2258 2.26297 76.4499 2.66811 75.7806C3.38746 74.5664 4.13932 73.3719 4.90247 72.1851C6.66247 69.45 8.48751 66.7572 10.3338 64.0818C11.1779 62.8576 12.0272 61.6366 12.8816 60.4187C13.2624 59.8759 13.6439 59.3335 14.0264 58.7915C14.3963 58.356 14.7191 57.8823 14.9894 57.3783C15.092 56.9994 15.1224 56.6044 15.0792 56.2142V54.9908C15.0792 54.1485 15.0792 53.307 15.0792 52.4662C15.0792 50.4772 15.0783 48.4886 15.0766 46.5002C15.0708 39.1848 15.0682 31.8695 15.0687 24.5541C15.0687 20.9608 15.0676 17.3672 15.0653 13.7732C15.0653 12.1488 15.0653 10.5242 15.0653 8.89949C15.0653 8.1458 15.0653 7.39195 15.0653 6.63797C15.0278 5.93618 15.0325 5.23277 15.0792 4.53154C15.1625 3.92692 15.4421 3.36684 15.8746 2.93811C16.307 2.50938 16.8681 2.23595 17.4709 2.16023C18.3228 2.10819 19.1768 2.10368 20.0292 2.14673H25.9839L40.9775 2.14193L58.5037 2.1354L76.2607 2.12886L92.0066 2.12233L98.4239 2.11971C99.4043 2.11971 100.549 1.95068 101.446 2.41945C101.998 2.70597 102.438 3.17097 102.695 3.73951C103.005 4.43657 102.927 5.20159 102.927 5.94527V11.8389C102.927 13.1847 105.008 13.1868 105.008 11.8389V6.44802C105.008 4.94281 105.081 3.46286 104.191 2.16372C103.82 1.61312 103.34 1.14501 102.781 0.788441C102.222 0.431867 101.597 0.194424 100.943 0.0908352C100.001 -0.00120543 99.0534 -0.023339 98.1083 0.0246145L86.0454 0.0298425L55.8705 0.0437837L27.3939 0.0511899H21.9583C20.4096 -0.0218172 18.858 -0.0109098 17.3105 0.0838646C16.6073 0.158084 15.9286 0.385079 15.3215 0.749109C14.7143 1.11314 14.1933 1.60549 13.7944 2.19203C12.9814 3.38052 12.9788 4.70973 12.9792 6.09165C12.9792 8.86391 12.9802 11.636 12.9822 14.408C12.9863 27.2513 12.9908 40.0944 12.9957 52.9371C12.9957 54.2827 12.9957 55.6282 12.9957 56.9735L13.1375 56.4459C9.04859 62.2202 4.92892 68.0119 1.26149 74.0698C0.677864 75.0343 0.129788 75.9536 0.0374303 77.1098C-0.00767285 77.6535 -0.0120211 78.1997 0.0244222 78.744C0.0244222 79.0213 0.134062 79.2873 0.329221 79.4834C0.524381 79.6794 0.789075 79.7896 1.06507 79.7896C1.34107 79.7896 1.60576 79.6794 1.80092 79.4834C1.99608 79.2873 2.10572 79.0213 2.10572 78.744C2.1183 78.5859 2.15472 78.0835 2.0732 78.6477L0.0291919 78.3698C0.0933653 79.6654 -0.0649003 80.8679 0.876021 81.9187C1.69987 82.8401 2.80296 82.9739 3.95461 82.9739H113.024C113.802 83.037 114.585 82.9856 115.348 82.8214C116.208 82.5556 116.944 81.9869 117.42 81.2199C117.958 80.3485 117.955 79.4058 117.964 78.4146C117.975 77.2423 117.939 76.1784 117.357 75.1271C116.99 74.4645 116.579 73.8202 116.178 73.1802C115.277 71.7381 114.342 70.3183 113.394 68.9076C111.394 65.9329 109.332 63.0018 107.257 60.0798C106.462 58.9599 105.666 57.8401 104.869 56.7204L105.011 57.248C105.011 51.6904 105.01 46.1328 105.007 40.5752C105.007 39.2299 102.926 39.2273 102.926 40.5752Z" fill="#211715"/>
<path d="M107.899 74.9011H13.4683C12.1909 74.9011 10.91 74.8754 9.63259 74.9011C9.57752 74.9011 9.52202 74.9011 9.46695 74.9011C8.12798 74.9011 8.12582 76.9923 9.46695 76.9923H103.897C105.175 76.9923 106.456 77.0184 107.733 76.9923C107.788 76.9923 107.843 76.9923 107.899 76.9923C109.238 76.9923 109.24 74.9011 107.899 74.9011Z" fill="#211715"/>
<path d="M71.5782 19.0882C72.3535 24.4745 73.1289 29.8606 73.9045 35.2465C74.0947 36.5671 74.2848 37.8882 74.4747 39.2097L74.7544 41.1502C74.8032 41.7569 74.9037 42.3583 75.0548 42.9477C75.2443 43.5272 75.5829 44.0461 76.0364 44.4516C76.4899 44.8571 77.0421 45.1349 77.637 45.2567C78.5818 45.4362 79.5908 45.167 80.5313 45.0302L106.131 41.3114L111.732 40.4971C112.754 40.3485 113.741 40.2732 114.58 39.5983C115.054 39.2076 115.416 38.6977 115.629 38.1206C115.842 37.5435 115.899 36.9199 115.795 36.3134C115.05 30.9439 114.247 25.5818 113.475 20.2162C113.281 18.8691 113.088 17.5222 112.894 16.1754L112.642 14.4179C112.589 13.7564 112.481 13.1006 112.318 12.4574C112.132 11.8898 111.803 11.3802 111.364 10.9781C110.924 10.5759 110.388 10.2949 109.808 10.1624C108.954 9.97504 108.073 10.1955 107.224 10.3192L96.4276 11.8876L83.5366 13.7609L77.8741 14.5835L75.4659 14.932C74.4985 15.0723 73.5906 15.1651 72.7945 15.8033C72.3526 16.1595 72.0067 16.6212 71.7883 17.1464C71.5699 17.6715 71.486 18.2433 71.5444 18.8094C71.5523 19.0842 71.6645 19.3455 71.858 19.5399C72.0515 19.7343 72.3116 19.847 72.585 19.855C72.8605 19.8533 73.1242 19.7426 73.319 19.5469C73.5138 19.3511 73.624 19.0862 73.6257 18.8094C73.587 18.6147 73.5892 18.414 73.6323 18.2202C73.6753 18.0264 73.7583 17.8437 73.8757 17.6841C73.9932 17.5244 74.1427 17.3911 74.3144 17.2929C74.4862 17.1947 74.6765 17.1337 74.8732 17.1138C75.5648 16.994 76.265 16.9112 76.9592 16.8088L81.9609 16.0817L94.0389 14.3269L105.163 12.7106L107.396 12.386L108.328 12.2505C108.608 12.1888 108.894 12.1596 109.18 12.1634C110.166 12.2536 110.371 13.1218 110.489 13.9457C110.665 15.1728 110.842 16.3998 111.018 17.6266C111.76 22.7903 112.502 27.9531 113.245 33.1148C113.416 34.3046 113.649 35.5027 113.761 36.6994C113.786 36.8873 113.773 37.0784 113.723 37.2611C113.672 37.4437 113.586 37.6143 113.468 37.7625C113.35 37.9107 113.204 38.0335 113.038 38.1234C112.872 38.2134 112.69 38.2688 112.502 38.2861C110.854 38.5798 109.183 38.7684 107.528 39.0093L82.7929 42.6027L80.2069 42.9782C79.5132 43.0793 78.6746 43.3267 78.0497 43.2104C77.0798 43.0283 76.9774 42.0942 76.8604 41.2796C76.6817 40.0417 76.5034 38.8038 76.3253 37.566C75.5781 32.3749 74.8308 27.1841 74.0836 21.9937L73.5849 18.5323C73.5102 18.2658 73.3339 18.0397 73.0942 17.903C72.8546 17.7663 72.571 17.7301 72.3049 17.8022C72.0427 17.882 71.8211 18.0599 71.6858 18.2993C71.5506 18.5387 71.512 18.8211 71.5782 19.0882Z" fill="#211715"/>
<path d="M76.1058 21.5055C80.6092 24.473 85.1684 27.3534 89.7834 30.1469C90.3037 30.4606 90.824 30.7728 91.3444 31.0836C91.9232 31.4855 92.5387 31.8315 93.1824 32.1169C93.4849 32.2222 93.8054 32.2648 94.1247 32.2424C94.444 32.2199 94.7555 32.1328 95.0404 31.9862C95.6164 31.6037 96.126 31.1287 96.5489 30.5804C98.5146 28.4912 100.442 26.3677 102.331 24.2097C104.507 21.7377 106.648 19.2363 108.757 16.7054C108.945 16.5057 109.05 16.241 109.05 15.9659C109.05 15.6907 108.945 15.426 108.757 15.2263C108.56 15.0325 108.296 14.9238 108.021 14.9238C107.746 14.9238 107.481 15.0325 107.285 15.2263C103.729 19.4762 100.109 23.6716 96.3482 27.7385C95.903 28.2201 95.4558 28.6993 95.0066 29.1762C94.7956 29.4007 94.584 29.6245 94.3718 29.8476C94.2382 29.9879 94.1251 30.183 93.9135 30.163C93.74 30.1464 93.5055 29.9382 93.3637 29.8545C93.1217 29.7117 92.8799 29.5683 92.6382 29.4246C92.091 29.0993 91.5447 28.7721 90.9992 28.443C88.7636 27.0951 86.5424 25.724 84.3356 24.3299C81.9268 22.8112 79.5334 21.2688 77.1555 19.7027C76.0325 18.9621 74.9875 20.7723 76.1054 21.5086L76.1058 21.5055Z" fill="#211715"/>
<path d="M128.683 16.7155L119.129 18.1097L117.749 18.3105C117.484 18.3857 117.259 18.5629 117.123 18.8036C116.987 19.0444 116.951 19.3293 117.022 19.5966C117.102 19.8601 117.279 20.0829 117.517 20.2189C117.755 20.3549 118.036 20.3936 118.302 20.3272L127.857 18.9352L129.237 18.734C129.502 18.6588 129.727 18.4816 129.863 18.2409C129.999 18.0002 130.035 17.7153 129.964 17.4479C129.884 17.1844 129.707 16.9616 129.469 16.8256C129.23 16.6896 128.949 16.6508 128.683 16.7173V16.7155Z" fill="#211715"/>
<path d="M125.789 23.0163L119.477 23.9356L118.581 24.0663C118.316 24.1415 118.091 24.3186 117.955 24.5594C117.819 24.8001 117.783 25.085 117.854 25.3523C117.934 25.6158 118.111 25.8386 118.349 25.9745C118.587 26.1104 118.869 26.1491 119.134 26.0825L125.446 25.1633L126.343 25.0326C126.608 24.9574 126.833 24.7802 126.969 24.5394C127.105 24.2987 127.141 24.0138 127.069 23.7465C126.99 23.4829 126.813 23.2601 126.575 23.1242C126.336 22.9882 126.055 22.9496 125.789 23.0163Z" fill="#211715"/>
<path d="M123.051 29.2951L119.863 29.7595L119.41 29.8253C119.149 29.8974 118.925 30.0693 118.788 30.3045C118.649 30.5488 118.611 30.8384 118.683 31.1105C118.756 31.3726 118.927 31.5963 119.16 31.7352C119.408 31.8611 119.691 31.8983 119.962 31.8406L123.151 31.3762L123.603 31.3104C123.865 31.2382 124.088 31.0662 124.225 30.8312C124.294 30.7126 124.339 30.5816 124.358 30.4455C124.376 30.3094 124.368 30.171 124.333 30.0381C124.299 29.9053 124.238 29.7806 124.156 29.6712C124.073 29.5617 123.97 29.4698 123.852 29.4005C123.604 29.2745 123.321 29.2373 123.05 29.2951H123.051Z" fill="#211715"/>
</svg>
