<svg width="95" height="115" viewBox="0 0 95 115" fill="none" xmlns="http://www.w3.org/2000/svg">
<path d="M41.5923 28.6284C44.7616 26.5164 48.2518 24.9312 51.9275 23.9342C57.6256 22.5141 63.3529 19.0109 65.4977 16.1523C66.9269 20.0828 72.6243 27.964 75.8935 28.6277C76.1711 28.3867 76.4974 28.2084 76.8502 28.105C77.203 28.0016 77.574 27.9755 77.9378 28.0285C78.2948 28.079 78.636 28.2089 78.9363 28.4085C79.2365 28.6082 79.4883 28.8725 79.673 29.1822C79.8869 29.6096 80.0085 30.0772 80.0301 30.5547C80.186 32.4229 79.8253 34.298 78.9874 35.975C78.5926 36.8225 78.0195 37.5748 77.3072 38.1804C76.7286 38.6496 76.0382 38.9607 75.3034 39.0834L74.9601 39.137C74.7959 39.7521 74.6112 40.2706 74.5206 40.5469C73.9214 42.1778 70.4742 47.9428 66.1906 49.7781C66.1836 50.9353 66.1582 52.2659 66.5642 53.2644C66.8709 54.0223 68.309 55.1466 69.8211 56.1688L73.2859 58.523C71.7232 60.482 69.6208 61.9402 67.2385 62.7174C64.6933 63.7297 60.986 64.1414 58.3805 64.135C55.6208 64.0599 52.8791 63.6659 50.2099 62.9609C50.2099 62.9609 46.0631 61.5426 44.122 58.425L47.7387 56.0951C49.353 55.0941 50.851 54.005 51.1506 53.2648C51.5454 52.2842 51.5274 50.9928 51.52 49.855C49.4244 48.8961 47.5841 47.4569 46.1484 45.6542C44.5872 43.7384 43.4516 41.5122 42.8172 39.1236C41.8541 39.1284 40.92 38.7951 40.1775 38.1818C39.4652 37.5761 38.892 36.8238 38.4969 35.9764C37.6592 34.2993 37.2986 32.4243 37.4543 30.5561C37.4761 30.0786 37.5979 29.611 37.8117 29.1836C37.9965 28.8738 38.2484 28.6093 38.5489 28.4097C38.8494 28.21 39.1908 28.0803 39.548 28.0299C39.9118 27.9769 40.2827 28.003 40.6356 28.1064C40.9884 28.2098 41.3147 28.3881 41.5923 28.6291" fill="white"/>
<path d="M78.0239 27.2592C80.188 27.6427 81.0861 30.5703 80.9106 33.0644C80.7439 35.426 80.1172 37.9497 78.0591 39.1421C77.246 39.5104 76.0172 39.6944 75.3017 38.9215C74.5862 38.1485 74.4265 36.9927 74.3642 35.9152C74.2545 34.0205 74.3338 32.1195 74.601 30.2404C74.7508 29.1862 74.9651 28.4129 75.7554 27.7467C76.0774 27.5095 76.4462 27.3434 76.8373 27.2593C77.2283 27.1753 77.6328 27.1753 78.0239 27.2592Z" fill="white"/>
<path d="M12.9882 57.4772C12.2988 54.7494 10.3623 47.9432 9.64995 47.0338C9.13851 46.3814 8.53297 45.8787 7.40999 46.3577C6.44739 46.7684 6.60354 47.8797 6.78541 48.7983C6.98597 49.8099 8.17838 54.5823 8.87486 57.062C8.61035 56.7649 8.25961 56.558 7.87171 56.4701C7.4838 56.3822 7.07812 56.4177 6.71139 56.5717C5.94794 56.9203 5.65398 57.5713 5.73892 58.0418C5.73892 58.0418 5.80589 58.4102 5.90388 58.9403C5.62938 58.791 5.32159 58.7137 5.00914 58.7153C4.6967 58.717 4.38975 58.7976 4.11685 58.9498C3.45702 59.3023 2.79261 60.2483 3.11759 60.9303L3.55325 61.8446L3.41719 61.7329C2.57972 61.0438 1.12613 61.4682 0.888562 62.3867C0.707039 63.0917 1.01334 63.9235 1.40564 64.5682C1.45252 64.6447 1.50222 64.7268 1.55509 64.8128C1.60373 64.9637 1.63157 65.049 1.63157 65.049C2.16345 66.6964 3.19937 69.2138 4.7513 71.0079C5.4714 71.8393 6.30217 72.6645 6.95636 73.5569C7.61055 74.4494 7.77198 75.4405 8.09062 76.5078L8.2316 76.9801C9.91924 76.3563 14.6688 74.5816 17.196 73.3779L17.1065 73.1251C16.8576 71.9779 16.5838 70.4865 16.7463 69.5148C17.0371 68.419 17.4033 67.3447 17.8424 66.2995C18.2013 65.4505 18.3582 64.5298 18.3007 63.6098C18.1858 62.5647 17.9151 61.0703 17.1375 59.9794C16.9834 59.7672 16.7911 59.5856 16.5704 59.444C16.5451 59.4259 16.5185 59.4099 16.4907 59.396C15.5644 58.8285 14.347 58.8261 13.2977 58.8708L13.2103 58.4246C13.175 58.2378 13.0971 57.9082 12.9882 57.4772Z" fill="white"/>
<path d="M7.80379 77.137C8.96342 76.7105 15.1764 74.423 17.7319 73.1143C18.0234 73.6969 18.6345 75.1297 19.0085 75.8988L19.1699 76.2252C16.1454 77.7641 12.0169 79.6205 8.94827 80.4901C8.86227 80.2751 8.80023 80.1189 8.79283 80.0974C8.4682 79.1299 7.82283 77.4574 7.69629 77.1779L7.80379 77.137Z" fill="white"/>
<path d="M93.754 114.152C92.7096 93.3693 91.7343 75.3026 89.7601 68.7223C89.1923 66.8299 88.4771 65.1567 87.5311 64.4C86.5851 63.6432 85.0116 63.1402 83.9179 62.6119C79.9156 60.6789 74.3233 58.2014 72.1453 56.3957C72.025 56.3017 71.9034 56.207 71.7805 56.1116C71.7805 56.1116 70.4246 55.1931 70.1979 55.0352C68.6206 61.4974 65.9239 68.7569 63.6635 75.0584C61.9529 79.827 60.6756 83.2625 58.9382 88.1143C57.3549 83.7337 55.6007 79.1262 54.0389 74.7774C51.7855 68.496 49.3729 61.3021 47.2788 55.0715L47.2506 55.0912L45.6321 56.1877C45.2744 56.4631 44.9315 56.7429 44.6032 57.027C41.2805 58.8151 37.1174 59.956 33.6977 61.6091C32.6502 62.1153 31.4204 62.3528 30.6267 63.2033C29.8149 64.0738 29.1868 65.0989 28.7797 66.2173C26.2747 72.7574 25.9642 76.335 23.1842 83.2463C22.1501 80.7758 21.1797 78.3727 20.1078 75.7425C16.6952 77.5401 11.2576 80.0307 7.8457 80.7705C9.54638 86.2159 11.2527 92.0739 13.6499 97.5274C15.3153 101.316 17.5951 104.848 21.5977 105.901C23.097 106.321 24.6724 106.393 26.2039 106.112C27.7353 105.831 29.1822 105.203 30.4342 104.278C32.5963 102.698 34.9776 99.4973 36.4756 97.6053L36.5172 97.5612C36.5461 97.9179 36.5616 98.2309 36.5616 98.4896C36.5616 100.936 35.6663 109.148 35.2997 114.153L93.754 114.152Z" fill="white"/>
<path d="M61.2003 81.8522C61.9873 79.6894 62.7645 77.5566 63.6612 75.0576C65.0838 71.0923 66.6791 66.7473 68.0593 62.4609C67.7917 62.5632 67.5177 62.6482 67.2391 62.7154C64.6939 63.7277 60.9867 64.1394 58.3812 64.1331C55.6215 64.0579 52.8797 63.664 50.2105 62.959L50.0625 62.9237C51.3864 67.0656 52.8893 71.2512 54.2569 75.0583C55.8177 79.4087 57.3783 83.7592 58.9388 88.1096C59.7636 85.802 60.4854 83.8147 61.2003 81.8522Z" fill="#47839E"/>
<path d="M83.1075 46.9559C81.8161 42.9487 81.0162 38.7996 80.7252 34.5996C80.4037 36.4526 79.672 38.2075 78.0573 39.143C77.296 39.488 76.1702 39.6717 75.4423 39.0584C75.3954 39.0672 75.3489 39.0781 75.3013 39.0852L74.9584 39.1387C74.7938 39.7538 74.6091 40.2723 74.5185 40.5486C73.9193 42.1795 70.4721 47.9445 66.1885 49.7799C66.1815 50.937 66.1561 52.2676 66.5621 53.2662C66.8688 54.024 68.3069 55.1484 69.819 56.1705L69.8937 56.2216C69.9973 55.8245 70.0971 55.4299 70.193 55.0377C70.4196 55.1956 71.7759 56.1141 71.7759 56.1141C71.8986 56.2081 72.02 56.3028 72.1404 56.3982C73.1854 57.2639 75.0179 58.2846 77.081 59.3237H79.0326C82.0568 58.6646 84.1646 55.6334 84.1434 52.9792C84.1284 50.9284 83.7785 48.8939 83.1075 46.9559Z" fill="#47839E"/>
<path d="M75.1853 28.388C75.3424 28.1464 75.5346 27.9295 75.7556 27.7444C76.0778 27.5075 76.4466 27.3416 76.8377 27.2578C77.2287 27.174 77.6331 27.1742 78.0241 27.2584C79.226 27.4698 80.036 28.4698 80.4914 29.7419C80.4893 29.6337 80.4865 29.5276 80.4847 29.418C80.7374 26.7096 80.4865 22.7192 80.379 21.1976C80.0082 15.9898 77.6797 10.1741 74.3295 6.9419C72.8808 5.54399 72.4614 4.89192 70.883 4.03612L67.0993 2.18917C64.7701 1.29178 62.6045 0.860352 58.5176 0.860352C51.8168 0.860352 45.8526 4.31246 43.2059 6.84602C38.8155 11.0492 36.0303 18.7271 36.3817 29.3147C36.3852 37.0303 35.7962 42.594 34.9718 45.7557C34.8558 46.203 34.7431 46.7137 34.6352 47.2615C34.0337 49.1188 33.7098 51.0548 33.674 53.0068C33.6433 54.6792 33.932 56.5583 35.2696 57.5628C36.166 58.3442 37.6788 59.2801 39.3104 59.3213C41.1221 58.6699 42.8905 57.9035 44.6045 57.0267C44.9323 56.7414 45.2751 56.4617 45.633 56.1875L47.2519 55.0909L47.2801 55.0712C47.4004 55.4295 47.5219 55.7912 47.6446 56.1561L47.7415 56.0937C49.3562 55.0927 50.8542 54.0036 51.1538 53.2634C51.5486 52.2828 51.5306 50.9913 51.5232 49.8536C49.4276 48.8945 47.5874 47.4554 46.1515 45.6528C44.5903 43.7369 43.4548 41.5108 42.8203 39.1222C41.8573 39.127 40.9231 38.7937 40.1806 38.1804C39.4684 37.5747 38.8951 36.8224 38.5001 35.975C37.6624 34.2979 37.3017 32.4228 37.4574 30.5547C37.4793 30.0772 37.601 29.6096 37.8148 29.1821C37.9994 28.8727 38.2508 28.6084 38.5508 28.4088C38.8507 28.2092 39.1916 28.0792 39.5483 28.0285C39.9121 27.9755 40.2831 28.0016 40.6359 28.105C40.9887 28.2084 41.315 28.3867 41.5926 28.6277C44.7619 26.5155 48.2521 24.93 51.9278 23.9328C57.6259 22.5127 63.3532 19.0095 65.498 16.1509C66.8296 19.8117 71.8594 26.8936 75.1853 28.388Z" fill="#47839E"/>
<path d="M35.5325 29.3132C35.5325 33.8273 35.4091 38.4612 34.6943 42.8833C34.5766 43.6098 34.4409 44.3337 34.2713 45.0503C34.1592 45.5261 34.0334 45.9985 33.9308 46.4768C33.7856 47.1542 33.5699 47.8095 33.4071 48.483C33.0754 49.8569 32.8833 51.2607 32.8336 52.6732C32.7577 53.7958 32.887 54.9229 33.2153 55.9991C34.0665 58.4664 36.991 60.2013 39.5482 60.1689C40.6363 60.1551 40.6391 58.4633 39.5482 58.477C38.4355 58.4524 37.3576 58.0847 36.4619 57.4242C35.6951 56.9727 35.1099 56.2676 34.8074 55.4306C34.5326 54.4248 34.442 53.3775 34.5399 52.3394C34.6101 51.0238 34.8187 49.7193 35.1624 48.4474C35.6417 46.7476 36.0326 45.0241 36.3333 43.2837C36.6339 41.411 36.8267 39.5211 36.9593 37.6297C37.1549 34.8621 37.224 32.0864 37.2243 29.3114C37.2243 28.2226 35.5325 28.2208 35.5325 29.3114V29.3132Z" fill="#211715"/>
<path d="M79.8842 34.5823C80.1447 38.2245 80.7646 41.832 81.735 45.3521C82.1383 46.762 82.643 48.1454 82.9475 49.5839C83.3138 51.3138 83.5897 53.3049 82.8873 54.9767C82.5334 55.8443 81.9796 56.6161 81.2711 57.2292C80.5626 57.8424 79.7193 58.2796 78.8099 58.5053C77.7489 58.7489 78.198 60.3804 79.2596 60.1369C81.1687 59.6613 82.8149 58.4554 83.8439 56.7785C84.9365 55.0497 85.0987 53.1742 84.8949 51.182C84.65 49.3411 84.2243 47.5289 83.6239 45.7716C83.208 44.4105 82.8541 43.0328 82.5623 41.6385C82.0863 39.309 81.7567 36.952 81.5754 34.5813C81.5698 34.3587 81.4789 34.1467 81.3215 33.9893C81.164 33.8318 80.952 33.7409 80.7294 33.7354C80.5056 33.7371 80.2915 33.8268 80.1332 33.9851C79.9749 34.1433 79.8853 34.3575 79.8835 34.5813L79.8842 34.5823Z" fill="#211715"/>
<path d="M81.3464 29.7754C81.3428 29.6218 81.3393 29.4674 81.3393 29.3137C81.3335 29.0912 81.2425 28.8794 81.0851 28.722C80.9277 28.5646 80.7159 28.4736 80.4934 28.4678L80.2685 28.4977C80.1272 28.5367 79.9985 28.6118 79.8949 28.7156L79.7627 28.8865C79.6869 29.0161 79.6471 29.1636 79.6475 29.3137C79.6475 29.4674 79.651 29.6218 79.6545 29.7754C79.6605 29.9979 79.7515 30.2096 79.9089 30.367C80.0663 30.5244 80.278 30.6154 80.5004 30.6214L80.7253 30.5911C80.8664 30.552 80.995 30.4771 81.0986 30.3736L81.2308 30.2023C81.3065 30.0728 81.3464 29.9255 81.3464 29.7754Z" fill="#211715"/>
<path d="M65.1237 51.0148C67.4775 50.4717 69.4824 48.8648 71.0964 47.132C72.5442 45.5867 73.7818 43.8571 74.7772 41.9881C75.2824 41.0012 75.6577 39.9532 75.8939 38.8701C76.1378 37.8102 74.5069 37.358 74.2623 38.4203C74.1076 39.0627 73.9206 39.6967 73.7018 40.3202C73.6856 40.3677 73.6645 40.4136 73.6472 40.4611C73.6472 40.4611 73.7177 40.3071 73.6447 40.4643C73.5771 40.6074 73.5119 40.7512 73.4407 40.8929C73.0625 41.6341 72.6394 42.3516 72.1739 43.0412C71.0157 44.86 69.5601 46.4712 67.8677 47.8074C66.9259 48.5516 65.8376 49.0887 64.674 49.3836C63.6134 49.6286 64.0621 51.2602 65.1237 51.0152V51.0148Z" fill="#211715"/>
<path d="M42.1933 28.0301C41.5872 27.4963 40.812 27.194 40.0046 27.1766C39.1971 27.1592 38.4096 27.4278 37.7811 27.9349C36.5181 28.9663 36.4801 30.8365 36.6179 32.3317C36.8999 35.4214 38.5375 39.3043 41.9603 39.9006C42.1764 39.9538 42.4047 39.9221 42.5982 39.8122C42.7917 39.7023 42.9358 39.5224 43.0008 39.3095C43.0586 39.0933 43.029 38.863 42.9185 38.6683C42.808 38.4737 42.6254 38.3303 42.4101 38.2691C39.9202 37.8355 38.7581 35.1106 38.3795 32.8741C38.2804 32.2611 38.245 31.6394 38.2738 31.0191C38.2465 30.4938 38.3617 29.971 38.6072 29.5059C38.7435 29.3276 38.9142 29.1784 39.1092 29.0674C39.3042 28.9564 39.5196 28.8857 39.7425 28.8597C39.9654 28.8336 40.1913 28.8526 40.4067 28.9156C40.6221 28.9786 40.8226 29.0843 40.9963 29.2264C41.1577 29.3797 41.3718 29.4652 41.5944 29.4652C41.8171 29.4652 42.0312 29.3797 42.1926 29.2264C42.3494 29.0668 42.4373 28.852 42.4373 28.6282C42.4373 28.4045 42.3494 28.1897 42.1926 28.0301H42.1933Z" fill="#211715"/>
<path d="M41.6413 37.8711C42.7238 42.9876 45.7438 47.9744 50.5652 50.3416C51.8544 50.9752 53.2463 51.374 54.6754 51.5192C54.8993 51.5177 55.1136 51.4281 55.2719 51.2698C55.4302 51.1115 55.5198 50.8972 55.5213 50.6733C55.5165 50.4504 55.4258 50.2381 55.2682 50.0805C55.1106 49.9229 54.8982 49.8322 54.6754 49.8273C49.9308 49.3339 46.0497 45.2311 44.343 40.9972C43.883 39.8387 43.5249 38.6422 43.2729 37.4214C43.0477 36.3569 41.4165 36.8074 41.6413 37.8711Z" fill="#211715"/>
<path d="M67.3235 1.37525C64.238 0.193412 60.8687 -0.116058 57.5854 0.0358572C53.7754 0.255283 50.0684 1.35681 46.7568 3.25357C44.3224 4.57688 42.2037 6.41187 40.5462 8.63229C38.8402 11.0564 37.5875 13.7696 36.8488 16.6404C35.7209 20.7517 35.3987 25.067 35.5337 29.3153C35.569 30.4013 37.2609 30.4059 37.2256 29.3153C37.0219 22.9003 37.8093 15.9693 41.3495 10.4489C42.6881 8.37971 44.4699 6.63398 46.5661 5.33809C49.482 3.47089 52.7771 2.27659 56.2122 1.84192C58.3153 1.6221 60.4367 1.64374 62.5348 1.90642C64.0207 2.09116 65.4778 2.46034 66.8724 3.00543C67.0886 3.06337 67.319 3.03388 67.5137 2.92334C67.7084 2.8128 67.8518 2.63009 67.9128 2.41469C67.9673 2.19888 67.9364 1.9704 67.8266 1.77679C67.7169 1.58318 67.5367 1.43935 67.3235 1.37525Z" fill="#211715"/>
<path d="M81.3377 29.3155C81.4708 27.3835 81.4777 25.4449 81.3585 23.5121C81.3084 21.784 81.139 20.0615 80.8513 18.3568C80.1192 14.4356 78.5133 10.5136 75.9385 7.43689C75.2611 6.62621 74.4831 5.90505 73.737 5.16028C73.0189 4.43022 72.2006 3.80608 71.3067 3.30663C70.3522 2.78109 69.4974 4.24174 70.4526 4.76727C71.1566 5.15091 71.8037 5.63065 72.3754 6.19267C73.0331 6.83734 73.7074 7.47848 74.3281 8.15911C75.5478 9.5443 76.5527 11.1048 77.3089 12.7885C78.1175 14.5342 78.7219 16.3674 79.11 18.2518C79.4145 19.8487 79.5938 21.467 79.6462 23.0919C79.7863 25.1643 79.7863 27.2438 79.6462 29.3162C79.6479 29.54 79.7376 29.7542 79.8959 29.9124C80.0541 30.0707 80.2683 30.1604 80.4921 30.1621C80.7151 30.1577 80.9277 30.0672 81.0854 29.9095C81.2431 29.7518 81.3336 29.5392 81.338 29.3162L81.3377 29.3155Z" fill="#211715"/>
<path d="M65.3439 49.7827C65.3216 50.528 65.3462 51.274 65.4176 52.0163C65.4538 52.7201 65.6581 53.405 66.0133 54.0137C66.8493 55.221 68.1986 56.0891 69.3931 56.8998C69.5868 57.013 69.8176 57.0447 70.0346 56.9878C70.2517 56.9309 70.4372 56.7902 70.5505 56.5965C70.6637 56.4028 70.6954 56.172 70.6385 55.955C70.5816 55.7379 70.4409 55.5524 70.2472 55.4391C69.6783 55.0532 69.1126 54.6588 68.5807 54.2231C68.3477 54.0324 68.1196 53.8354 67.9032 53.6239C67.8088 53.5323 67.7164 53.4385 67.6279 53.3419C67.5835 53.2926 67.5402 53.2422 67.4972 53.1911C67.4112 53.0874 67.5906 53.3433 67.4743 53.159C67.4232 53.0779 67.372 53.0004 67.3287 52.9147C67.2822 52.8231 67.3749 53.0515 67.3266 52.9013C67.3012 52.8217 67.273 52.7434 67.2497 52.6631C67.1743 52.3985 67.1214 52.128 67.0915 51.8545C67.035 51.1652 67.0164 50.4733 67.0358 49.782C67.0425 48.6932 65.3506 48.6918 65.3439 49.782V49.7827Z" fill="#211715"/>
<path d="M50.6748 49.8563C50.6934 50.5332 50.674 51.2107 50.6167 51.8854C50.5837 52.1673 50.5269 52.4458 50.4468 52.718C50.4232 52.7962 50.3967 52.8727 50.3696 52.9499C50.3883 52.8963 50.4172 52.8681 50.3752 52.934C50.3456 52.9809 50.1821 53.2227 50.3005 53.0726C49.529 54.0493 48.3584 54.7133 47.3116 55.3636C47.2157 55.4197 47.1317 55.4941 47.0646 55.5826C46.9974 55.6711 46.9484 55.772 46.9202 55.8795C46.892 55.987 46.8853 56.0989 46.9004 56.209C46.9155 56.3191 46.9522 56.4251 47.0083 56.521C47.0643 56.6169 47.1388 56.7008 47.2273 56.768C47.3158 56.8351 47.4166 56.8842 47.5241 56.9123C47.6316 56.9405 47.7435 56.9472 47.8536 56.9321C47.9637 56.917 48.0697 56.8804 48.1656 56.8243C48.849 56.3992 49.5233 55.9575 50.1634 55.4687C50.7315 55.0679 51.2392 54.5878 51.6709 54.0429C52.0198 53.4898 52.2258 52.8586 52.2701 52.2062C52.3574 51.4258 52.3901 50.6402 52.3681 49.8552C52.3611 48.7668 50.6692 48.7647 50.6763 49.8552L50.6748 49.8563Z" fill="#211715"/>
<path d="M9.60935 79.873C9.19203 78.842 8.86916 77.7708 8.42752 76.7511L7.92172 77.994C9.38589 77.4535 10.8454 76.9021 12.3001 76.3398C14.2722 75.5711 16.27 74.808 18.1582 73.8464L17.001 73.5429C17.4529 74.4594 17.8339 75.4072 18.2777 76.3275C18.3923 76.5196 18.5778 76.659 18.7942 76.7158C19.0106 76.7726 19.2407 76.7421 19.4349 76.6309C19.6251 76.5144 19.7629 76.3287 19.8194 76.1128C19.8758 75.8969 19.8465 75.6675 19.7376 75.4727C19.2939 74.5535 18.9132 73.6046 18.461 72.6882C18.3451 72.4975 18.1596 72.3592 17.9437 72.3026C17.7278 72.246 17.4984 72.2754 17.3038 72.3847C15.4917 73.2648 13.6367 74.0537 11.7457 74.7484C10.3262 75.3004 8.90136 75.8381 7.47126 76.3617C7.3484 76.3993 7.23546 76.4637 7.14064 76.5504C7.04582 76.6372 6.97151 76.7439 6.9231 76.8629C6.8747 76.9819 6.85342 77.1102 6.86081 77.2385C6.8682 77.3668 6.90407 77.4918 6.96582 77.6045C6.83787 77.3105 6.95101 77.577 6.97463 77.6397C7.01411 77.7433 7.05217 77.8477 7.09059 77.9517C7.17836 78.1906 7.26471 78.4303 7.35213 78.6696C7.55409 79.223 7.75606 79.7764 7.97706 80.3227C8.04259 80.5352 8.18676 80.7147 8.38014 80.8245C8.57351 80.9343 8.8015 80.9661 9.01756 80.9135C9.23307 80.8526 9.41593 80.7092 9.52655 80.5145C9.63717 80.3198 9.66667 80.0893 9.60865 79.873H9.60935Z" fill="#211715"/>
<path d="M49.9853 63.7766C52.8777 64.579 55.866 64.983 58.8676 64.9775C61.7388 64.9306 64.7761 64.5855 67.4651 63.5323C67.6778 63.4671 67.8574 63.323 67.9673 63.1295C68.0771 62.9361 68.1088 62.7079 68.0558 62.4918C67.9947 62.2765 67.8514 62.0937 67.6567 61.9832C67.462 61.8727 67.2316 61.8432 67.0153 61.9011C64.4546 62.9035 61.6017 63.2405 58.8676 63.2849C56.0184 63.291 53.1817 62.9074 50.4365 62.1447C49.3833 61.8655 48.9335 63.4971 49.9867 63.7759L49.9853 63.7766Z" fill="#211715"/>
<path d="M54.828 91.9311C54.9225 92.0158 55.0095 92.1085 55.0881 92.2082L54.9559 92.0369C55.0396 92.1476 55.1105 92.2674 55.1674 92.3939L55.0821 92.192C55.1399 92.3297 55.1801 92.4742 55.2016 92.622L55.1713 92.3971C55.1915 92.5565 55.1915 92.7178 55.1713 92.8772L55.2016 92.6523C55.1768 92.8263 55.1302 92.9964 55.063 93.1588L55.1483 92.9568C55.0952 93.084 55.027 93.2043 54.9453 93.3153L55.0775 93.144C54.9998 93.2428 54.9101 93.3315 54.8103 93.408L54.9816 93.2758C54.8643 93.363 54.737 93.4358 54.6024 93.4926L54.8043 93.4073C54.6457 93.4709 54.4801 93.5153 54.3109 93.5395L54.5358 93.5095C54.3444 93.534 54.1508 93.534 53.9595 93.5095L54.1843 93.5398C54.0222 93.5174 53.8635 93.4752 53.7117 93.414L53.9136 93.4993C53.7995 93.4507 53.6915 93.3889 53.5918 93.315L53.7628 93.4471C53.6466 93.3552 53.5415 93.2502 53.4494 93.1341L53.5816 93.3054C53.4969 93.1953 53.4264 93.0748 53.3719 92.947L53.4572 93.1489C53.4143 93.0397 53.3837 92.9259 53.3663 92.8099L53.3966 93.0347C53.3795 92.8982 53.3795 92.76 53.3966 92.6234L53.3663 92.8483C53.3917 92.676 53.4391 92.5077 53.5072 92.3474L53.4219 92.5494C53.5079 92.3548 53.6174 92.1714 53.748 92.0034L53.6158 92.1747C53.6896 92.079 53.7742 91.9921 53.8678 91.9156L53.6965 92.0478C53.8038 91.9669 53.9202 91.8988 54.0434 91.8451L53.8414 91.9304C54.0039 91.8627 54.1747 91.8166 54.3493 91.7933L54.1244 91.8236C54.2906 91.803 54.4587 91.803 54.6249 91.8236L54.4001 91.7933C54.5413 91.8137 54.6796 91.8508 54.8121 91.9037L54.6098 91.8184C54.7298 91.8693 54.8429 91.9352 54.9464 92.0147L54.7751 91.8825C54.7941 91.8973 54.8124 91.9125 54.8304 91.9283C54.9926 92.0822 55.2062 92.1701 55.4296 92.1751C55.5972 92.1755 55.7612 92.1261 55.9007 92.0332C56.0402 91.9402 56.1489 91.808 56.2131 91.6531C56.2773 91.4983 56.2941 91.3279 56.2613 91.1635C56.2284 90.9992 56.1475 90.8482 56.0288 90.7299C55.5801 90.3396 55.0074 90.121 54.4127 90.1131C53.8924 90.1004 53.3797 90.2407 52.9384 90.5167C52.4869 90.8248 52.1346 91.2575 51.9246 91.7621C51.7145 92.2667 51.6556 92.8215 51.7551 93.359C51.9035 93.9443 52.2629 94.4542 52.7642 94.7907C53.0696 94.9842 53.4102 95.1152 53.7665 95.1764C54.1227 95.2376 54.4876 95.2277 54.84 95.1474C55.1924 95.067 55.5255 94.9176 55.8199 94.708C56.1144 94.4983 56.3645 94.2325 56.5558 93.9258C56.7963 93.4757 56.9061 92.9673 56.873 92.4581C56.8213 91.7957 56.5187 91.1779 56.0271 90.731C55.868 90.5745 55.6535 90.4872 55.4303 90.4881C55.2072 90.489 54.9934 90.578 54.8356 90.7358C54.6778 90.8936 54.5888 91.1074 54.5879 91.3306C54.587 91.5537 54.6743 91.7682 54.8308 91.9273L54.828 91.9311Z" fill="#211715"/>
<path d="M59.2456 114.153C59.9505 107.68 60.7358 101.226 61.0263 94.7166C61.0859 93.732 61.0537 92.744 60.93 91.7654C60.7496 90.7162 60.4527 89.6904 60.045 88.707C59.98 88.494 59.8359 88.3141 59.6423 88.2042C59.4487 88.0943 59.2203 88.0628 59.0041 88.1162C58.7888 88.1774 58.6061 88.3208 58.4956 88.5155C58.3851 88.7102 58.3555 88.9405 58.4134 89.1567C58.7715 90.0235 59.0483 90.9217 59.2399 91.8398C59.366 92.6745 59.4026 93.5203 59.3492 94.3628C59.2826 96.1138 59.1582 97.8635 59.0373 99.6114C58.8201 102.752 58.4733 105.879 58.1272 109.008C57.9365 110.723 57.7395 112.438 57.5537 114.154C57.5552 114.378 57.6448 114.593 57.8031 114.751C57.9614 114.909 58.1757 114.999 58.3996 115C58.6224 114.995 58.8348 114.905 58.9923 114.747C59.1499 114.59 59.2406 114.377 59.2456 114.154V114.153Z" fill="#211715"/>
<path d="M44.1306 56.3187C41.9773 57.4628 39.6736 58.2745 37.4012 59.1434C36.238 59.5889 35.0749 60.0478 33.9392 60.5628C32.984 60.996 31.9502 61.3259 31.0345 61.8345C28.8879 63.0262 28.0304 65.7068 27.2701 67.8692C26.5334 69.9653 25.9155 72.0988 25.304 74.2327C24.5695 76.7962 23.7831 79.3386 22.8318 81.8313C22.7738 82.0475 22.8033 82.2779 22.9139 82.4726C23.0244 82.6673 23.2071 82.8107 23.4225 82.8718C23.6387 82.9265 23.8676 82.8955 24.0614 82.7854C24.2553 82.6754 24.3992 82.4947 24.463 82.281C26.0615 78.093 27.0896 73.7389 28.5009 69.4912C28.8784 68.3556 29.2517 67.2002 29.7286 66.1026C30.1233 65.1932 30.7067 64.1383 31.5121 63.5295C32.3175 62.9208 33.4154 62.672 34.3209 62.2437C35.3783 61.7422 36.4675 61.3079 37.5605 60.8874C40.063 59.9248 42.6114 59.0412 44.9846 57.7807C45.9465 57.2696 45.0925 55.8086 44.1306 56.3197V56.3187Z" fill="#211715"/>
<path d="M72.5668 57.7555C74.4088 58.9251 76.329 59.9667 78.3138 60.8732C80.4498 61.9098 82.5858 62.9827 84.7746 63.9044C85.6759 64.2837 86.7337 64.6587 87.3734 65.4366C87.9778 66.2693 88.4284 67.2034 88.704 68.1947C89.1052 69.4319 89.4198 70.6955 89.6454 71.9764C90.258 75.2685 90.5876 78.5108 90.8995 81.8879C91.3225 86.4573 91.6295 91.0373 91.9079 95.6174C92.2833 101.794 92.5956 107.973 92.9061 114.153C92.9608 115.237 94.653 115.243 94.598 114.153C94.316 108.541 94.0316 102.93 93.7017 97.3205C93.4197 92.5438 93.1116 87.7685 92.6918 83.0013C92.3767 79.4241 92.0221 75.8381 91.4141 72.2968C91.2204 71.0929 90.9615 69.9004 90.6387 68.7245C90.043 66.6396 89.25 64.3383 87.2613 63.2108C86.2726 62.6503 85.1849 62.2887 84.1627 61.7963C83.0771 61.2736 81.9866 60.7618 80.8981 60.2454C78.7741 59.2356 76.6375 58.2268 74.6065 57.0379C74.2036 56.8025 73.8071 56.5571 73.4194 56.2977C72.5118 55.6908 71.6637 57.1556 72.5654 57.7587L72.5668 57.7555Z" fill="#211715"/>
<path d="M69.3469 54.9456C68.269 59.3071 66.8443 63.5762 65.3576 67.8108C63.8772 72.0271 62.3492 76.2271 60.8213 80.4261C59.9697 82.7663 59.1215 85.1076 58.2768 87.4502C58.2192 87.6664 58.2489 87.8966 58.3594 88.0912C58.4698 88.2858 58.6523 88.4293 58.8675 88.4907C59.0837 88.5457 59.3127 88.5149 59.5067 88.4048C59.7007 88.2947 59.8445 88.1137 59.908 87.8999C62.9375 79.4572 66.182 71.0747 68.9239 62.5322C69.6806 60.1741 70.3842 57.7985 70.9781 55.3939C71.2396 54.3365 69.6084 53.886 69.3469 54.9442V54.9456Z" fill="#211715"/>
<path d="M65.1448 86.2034C67.2723 83.1636 69.3268 80.0745 71.3084 76.9358C72.3104 75.3469 73.293 73.7458 74.2562 72.1327C75.1962 70.5575 76.1764 68.9851 77.0266 67.3592C77.1653 67.1313 77.2439 66.872 77.2552 66.6054C77.2665 66.3389 77.21 66.0739 77.0911 65.8351C76.8175 65.4151 76.4818 65.0391 76.0954 64.7199C75.3467 63.9825 74.5688 63.2747 73.7874 62.574L73.6164 63.9028C74.314 63.4887 75.0016 63.0569 75.7136 62.666C76.4059 62.2874 77.3935 61.9702 77.139 60.9576C76.9108 60.3169 76.5712 59.7216 76.1359 59.1991C75.7393 58.6512 75.3034 58.1329 74.8317 57.6482C73.5344 56.3854 72.1114 55.2586 70.5848 54.2853C69.6811 53.673 68.8334 55.1379 69.7311 55.7459L70.7533 56.4378C71.172 56.7119 71.5749 57.0093 71.9602 57.3285C72.6954 57.9172 73.3845 58.5613 74.0214 59.2551C74.3147 59.5776 74.5865 59.9191 74.8349 60.2773C74.9524 60.4484 75.0643 60.6227 75.1705 60.8004C75.2302 60.8998 75.2878 61 75.3435 61.101C75.364 61.1363 75.4803 61.3957 75.4796 61.3199L75.5948 60.8931L75.5374 60.984L75.8409 60.6805C75.3632 60.9771 74.8689 61.246 74.3605 61.4859C73.8237 61.7968 73.296 62.1239 72.7624 62.4404C72.6518 62.5067 72.5577 62.5972 72.4872 62.705C72.4166 62.8129 72.3714 62.9353 72.3549 63.0631C72.3384 63.191 72.3511 63.3209 72.392 63.4431C72.4329 63.5654 72.501 63.6767 72.5911 63.7689C73.2287 64.3417 73.8635 64.9176 74.4821 65.5104C74.7805 65.7964 75.075 66.087 75.3654 66.3821C75.3844 66.4015 75.5455 66.6035 75.5938 66.6176C75.5649 66.6091 75.598 66.4448 75.5938 66.4505C75.4997 66.6359 75.3897 66.8146 75.2871 66.9954C74.4161 68.5289 73.5275 70.0524 72.6214 71.5659C70.8337 74.5502 68.9785 77.4937 67.0559 80.3964C65.9531 82.0615 64.8286 83.7121 63.6824 85.3483C63.571 85.5424 63.5405 85.7725 63.5972 85.989C63.654 86.2054 63.7936 86.3909 63.9858 86.5054C64.1806 86.6141 64.4099 86.6432 64.6257 86.5867C64.8415 86.5301 65.027 86.3922 65.1434 86.2019L65.1448 86.2034Z" fill="#211715"/>
<path d="M83.0491 114.152C82.7861 110.581 82.4192 107.017 82.1111 103.45C81.9053 101.064 81.6797 98.7174 81.9458 96.3301C82.6116 90.3561 83.9789 84.3172 84.9327 78.3188C85.2626 76.2452 85.5745 74.1688 85.9196 72.0981C86.1099 70.7004 86.3911 69.3166 86.7613 67.9555C87.0785 66.9118 85.4476 66.4656 85.1301 67.5057C84.8059 68.6822 84.5564 69.8781 84.3832 71.0861C84.0748 72.8869 83.8002 74.6933 83.5168 76.498C83.0145 79.7009 82.4298 82.884 81.851 86.0735C81.2955 89.1358 80.7742 92.2083 80.3777 95.296C80.2114 96.379 80.1172 97.4718 80.0957 98.5673C80.1028 99.7939 80.2184 101.023 80.3181 102.244C80.6417 106.215 81.0647 110.178 81.3572 114.151C81.3625 114.374 81.4533 114.586 81.6108 114.743C81.7683 114.901 81.9804 114.992 82.2031 114.997C82.4269 114.995 82.641 114.905 82.7993 114.747C82.9575 114.589 83.0472 114.375 83.0491 114.151V114.152Z" fill="#211715"/>
<path d="M31.175 67.7482C31.1443 67.5212 31.1912 67.8722 31.1997 67.9371L31.2504 68.3248C31.2927 68.6519 31.3348 68.9791 31.3766 69.3065C31.4746 70.072 31.5727 70.8375 31.6709 71.6028C31.9158 73.4956 32.1707 75.3872 32.4358 77.2776C32.906 80.5908 33.4562 83.8864 34.0554 87.1775C34.5742 90.0279 35.1234 93.026 35.4804 95.8084C35.6356 96.8297 35.7111 97.8614 35.7064 98.8943C35.6711 100.144 35.5615 101.392 35.4575 102.638C35.1375 106.477 34.7339 110.31 34.4509 114.152C34.4528 114.376 34.5425 114.59 34.7008 114.749C34.859 114.907 35.073 114.996 35.2968 114.998C35.5198 114.994 35.7325 114.904 35.8903 114.746C36.048 114.588 36.1385 114.376 36.1427 114.152C36.3968 110.701 36.7479 107.257 37.0493 103.81C37.2551 101.451 37.5378 99.0815 37.2808 96.7182C36.6112 90.5682 35.1942 84.5103 34.2933 78.3925C33.7498 74.7007 33.3043 70.9969 32.8062 67.2991C32.7455 67.0835 32.6022 66.9004 32.4074 66.7898C32.2126 66.6791 31.982 66.6497 31.7657 66.708C31.5527 66.7728 31.3726 66.9169 31.2627 67.1106C31.1528 67.3043 31.1214 67.5327 31.175 67.7489V67.7482Z" fill="#211715"/>
<path d="M46.4851 55.37C49.437 64.1526 52.4207 72.9193 55.6419 81.6073C56.5746 84.1236 57.5101 86.6389 58.4159 89.1647C58.4805 89.3779 58.6245 89.5581 58.8183 89.6681C59.012 89.778 59.2406 89.8093 59.4568 89.7554C59.672 89.6941 59.8545 89.5507 59.965 89.356C60.0755 89.1614 60.1051 88.9312 60.0475 88.7149C58.4318 84.2146 56.7269 79.7473 55.103 75.2505C53.5338 70.9042 52.0365 66.5321 50.5561 62.1558C49.7396 59.7454 48.927 57.3337 48.1184 54.9206C47.773 53.8939 46.1386 54.3341 46.4869 55.3704L46.4851 55.37Z" fill="#211715"/>
<path d="M53.7815 85.5347C49.7739 79.8087 46.0303 73.9098 42.5507 67.8381C42.4259 67.6196 42.3013 67.4008 42.1767 67.1818C42.1214 67.0845 42.066 66.9876 42.0114 66.89C41.9896 66.8512 41.8641 66.5647 41.8771 66.6806C41.8796 66.7028 41.8926 66.7864 41.8715 66.8043C41.9924 66.6986 42.103 66.565 42.2155 66.4519C42.3703 66.2951 42.5267 66.1398 42.6846 65.9859C43.397 65.2908 44.1336 64.6215 44.8738 63.9564C44.964 63.8642 45.032 63.7529 45.073 63.6307C45.1139 63.5085 45.1266 63.3785 45.1102 63.2507C45.0937 63.1229 45.0486 63.0004 44.978 62.8926C44.9075 62.7847 44.8134 62.6942 44.7029 62.6279C44.1692 62.3107 43.6416 61.9846 43.1048 61.6731C42.5964 61.4331 42.1021 61.1643 41.6244 60.868L41.9279 61.1715L41.8704 61.0802L41.986 61.5074C41.986 61.5708 42.0741 61.3749 42.0882 61.3488C42.1432 61.2463 42.1997 61.1446 42.2578 61.0435C42.3736 60.8426 42.4957 60.6454 42.624 60.4517C42.8672 60.0833 43.1329 59.7301 43.4195 59.3943C44.0396 58.6772 44.7186 58.0133 45.4494 57.4096C45.8315 57.0858 46.2337 56.7864 46.6535 56.5132L47.6756 55.8213C48.5723 55.214 47.7267 53.7477 46.8219 54.3607C45.288 55.3312 43.8718 56.4764 42.6018 57.7733C42.1384 58.2742 41.7103 58.8067 41.3206 59.3668C40.8941 59.9003 40.5583 60.5003 40.3269 61.1429C40.0693 62.1207 41.0072 62.4471 41.6811 62.8126C42.4189 63.2116 43.1287 63.6603 43.8495 64.0882L43.6782 62.7597C42.9793 63.3878 42.2832 64.0198 41.6078 64.6736C40.997 65.2654 40.1437 65.9024 40.2064 66.8413C40.2854 67.2726 40.4597 67.6808 40.7164 68.0362C40.9653 68.4742 41.2154 68.9114 41.4668 69.3478C41.9145 70.1232 42.3666 70.8966 42.8231 71.6681C44.7251 74.8784 46.7046 78.041 48.7616 81.1559C49.924 82.9166 51.1107 84.661 52.3216 86.3891C52.4388 86.5783 52.6243 86.7154 52.8397 86.7718C53.0551 86.8283 53.284 86.7999 53.4791 86.6925C53.6714 86.578 53.8109 86.3924 53.8677 86.1759C53.9245 85.9594 53.8939 85.7292 53.7825 85.535L53.7815 85.5347Z" fill="#211715"/>
<path d="M26.8586 89.5935C24.7614 84.9508 22.8447 80.2337 20.9223 75.5165C20.8852 75.3934 20.8209 75.2801 20.7343 75.1849C20.6477 75.0898 20.5408 75.0153 20.4217 74.9668C20.3025 74.9184 20.174 74.8972 20.0456 74.9048C19.9171 74.9125 19.7921 74.9488 19.6795 75.0111C17.6981 76.053 15.6761 77.0141 13.6134 77.8943C11.6835 78.7631 9.67773 79.4524 7.62143 79.9535C7.40621 80.0149 7.22373 80.1584 7.11325 80.3531C7.00277 80.5477 6.97312 80.778 7.03069 80.9943C8.117 84.4742 9.16314 87.9679 10.3658 91.4102C10.9868 93.187 11.6491 94.9497 12.377 96.686C12.954 98.129 13.63 99.5305 14.4002 100.88C15.8939 103.4 17.9749 105.599 20.8106 106.548C22.351 107.058 23.9838 107.227 25.596 107.044C27.2083 106.86 28.7615 106.329 30.1482 105.487C33.0114 103.724 35.0254 100.795 37.0743 98.203C37.2267 98.0411 37.3115 97.8272 37.3115 97.6049C37.3115 97.3826 37.2267 97.1686 37.0743 97.0067C36.9149 96.8495 36.7001 96.7613 36.4762 96.7613C36.2523 96.7613 36.0374 96.8495 35.878 97.0067C34.1319 99.2153 32.4404 101.617 30.2201 103.384C29.0938 104.271 27.7813 104.892 26.3808 105.2C24.9804 105.508 23.5284 105.495 22.1337 105.162C19.4927 104.543 17.5442 102.714 16.1304 100.468C14.4407 97.7836 13.3364 94.7164 12.2741 91.744C10.9533 88.0497 9.83072 84.2892 8.66228 80.5453L8.07118 81.5857C10.2225 81.0541 12.3205 80.3261 14.3388 79.411C16.4436 78.5181 18.509 77.5387 20.5353 76.4728L19.2925 75.967C21.2702 80.8191 23.2423 85.6723 25.3997 90.4479C25.514 90.6405 25.6995 90.7803 25.9161 90.8371C26.1326 90.8939 26.3629 90.8631 26.5569 90.7514C26.7466 90.6346 26.884 90.4492 26.9406 90.2337C26.9971 90.0181 26.9684 89.7891 26.8604 89.5943L26.8586 89.5935Z" fill="#211715"/>
<path d="M14.0284 58.2017C13.7743 56.9272 13.3939 55.6696 13.0415 54.4193C12.5399 52.6334 12.0193 50.8495 11.4201 49.0931C10.9587 47.7418 10.5016 46.057 9.03105 45.4764C7.82172 44.9992 6.22291 45.6675 5.89123 46.9635C5.66459 47.8496 5.91132 48.7964 6.11223 49.6673C6.67336 52.0994 7.29654 54.5191 7.95707 56.9251C8.24504 57.9737 9.87768 57.5285 9.5883 56.4753C9.02717 54.431 8.50446 52.3736 8.0043 50.3127C7.83864 49.6303 7.65183 48.9444 7.54185 48.25C7.48898 47.9198 7.43611 47.4608 7.58591 47.2522C7.70631 47.1474 7.8517 47.0754 8.00805 47.0433C8.16439 47.0111 8.32638 47.0198 8.47837 47.0685C8.61977 47.1505 8.74468 47.2581 8.84671 47.3858C8.88794 47.4312 9.0388 47.6325 8.93588 47.4813C8.9599 47.514 8.98225 47.5479 9.00285 47.5828C9.09484 47.7523 9.17909 47.9233 9.25804 48.0999C9.3169 48.2324 9.19354 47.9342 9.27284 48.1351C9.29575 48.1936 9.31972 48.2518 9.34334 48.3114C9.4022 48.4612 9.45895 48.612 9.51464 48.7632C9.63377 49.0879 9.74692 49.4146 9.85724 49.7424C10.4064 51.374 10.8921 53.0274 11.3598 54.6841C11.7296 55.9942 12.131 57.3135 12.3975 58.6501C12.4591 58.8652 12.6026 59.0477 12.7972 59.1581C12.9919 59.2686 13.2221 59.2983 13.4384 59.2408C13.6522 59.1773 13.8331 59.0335 13.9432 58.8395C14.0534 58.6455 14.0841 58.4165 14.0291 58.2003L14.0284 58.2017Z" fill="#211715"/>
<path d="M0.815389 65.2745C1.42381 67.2841 2.3573 69.1805 3.57877 70.8883C4.31226 71.864 5.19696 72.7081 5.96711 73.6527C6.71823 74.5738 6.94769 75.6181 7.27478 76.7333C7.58038 77.776 9.21338 77.3325 8.90638 76.2836C8.58034 75.1723 8.34066 74.0179 7.63924 73.0673C6.88671 72.0476 5.96923 71.1745 5.16877 70.1961C3.90198 68.6452 3.0624 66.7143 2.44698 64.8247C2.11107 63.7938 0.477017 64.2351 0.815389 65.2745Z" fill="#211715"/>
<path d="M14.2099 64.5079C14.11 63.934 13.9749 63.3667 13.8053 62.8094C13.6746 62.2869 13.3531 61.8324 12.904 61.5352C12.4225 61.2766 11.8903 61.1263 11.3447 61.0949C11.2114 61.0759 11.0754 61.0297 10.9379 61.022C10.8004 61.0142 10.8491 60.9867 10.9189 61.0333C11.0697 61.1316 10.829 60.8923 10.7997 60.8147C10.7465 60.6877 10.7411 60.5457 10.7846 60.415C10.7969 60.3692 10.9936 59.9751 10.9044 60.0626C11.1667 59.8088 11.9305 59.8158 12.2836 59.7852C12.7771 59.7443 13.2706 59.7118 13.764 59.7066C14.2699 59.6853 14.7765 59.7274 15.2719 59.832C15.6868 59.8949 16.0718 60.0852 16.3737 60.3766C16.6588 60.7326 16.874 61.1392 17.0082 61.575C17.3067 62.3729 17.4631 63.2169 17.4703 64.0688C17.4375 65.4681 16.7579 66.658 16.3184 67.9766C16.2126 68.2966 16.1069 68.617 16.0135 68.9413C15.9867 69.0351 15.9585 69.1292 15.9395 69.2251C15.9204 69.3209 15.9137 69.4083 15.9014 69.5003C15.9367 69.2353 15.8774 69.6723 15.8707 69.7492C15.765 70.9448 16.041 72.189 16.2909 73.3514C16.5196 74.4152 18.1509 73.9651 17.9225 72.9017C17.6562 71.7945 17.5451 70.6557 17.5926 69.518C17.5848 69.647 17.5397 69.7326 17.5993 69.5574C17.6402 69.4376 17.6698 69.3107 17.705 69.1905C17.821 68.8088 17.9472 68.4302 18.0765 68.0531C18.1879 67.7292 18.3017 67.4056 18.4241 67.0856C18.4512 67.0151 18.4794 66.9446 18.5069 66.8741C18.5897 66.6626 18.4332 67.0242 18.5168 66.849C18.6102 66.6534 18.7053 66.4589 18.7815 66.2551C19.1051 65.3771 19.2256 64.4371 19.1339 63.5059C19.0344 62.3908 18.7485 61.3004 18.288 60.28C18.0473 59.7456 17.6818 59.2768 17.2223 58.9129C16.7628 58.549 16.2227 58.3007 15.6473 58.1888C14.4847 57.9839 13.2977 57.9576 12.1271 58.1109C11.5484 58.1367 10.9762 58.2435 10.4272 58.4281C10.1494 58.5415 9.89991 58.7144 9.6964 58.9349C9.4929 59.1553 9.34036 59.4178 9.24957 59.7037C8.77479 60.893 9.32746 62.4509 10.6746 62.6998C11.0482 62.7681 11.8046 62.723 12.0743 63.029C12.2115 63.2887 12.2966 63.5729 12.3245 63.8654C12.4309 64.226 12.5152 64.5928 12.5769 64.9637C12.6378 65.1792 12.7812 65.362 12.9759 65.4726C13.1707 65.5831 13.4011 65.6125 13.6174 65.5544C13.8306 65.4899 14.0108 65.3459 14.1208 65.1523C14.2307 64.9586 14.262 64.73 14.2081 64.5139L14.2099 64.5079Z" fill="#211715"/>
<path d="M4.76856 65.1503C4.80803 65.2913 4.77666 64.9692 4.77314 65.1637C4.76926 65.3657 4.81825 65.0548 4.77032 65.1962C4.75164 65.2515 4.654 65.4669 4.75164 65.2871C4.71005 65.3636 4.67409 65.4415 4.62757 65.5155C4.60466 65.5507 4.57681 65.586 4.55496 65.6244C4.56025 65.6149 4.65259 65.5187 4.58774 65.5818C4.53522 65.6339 4.4901 65.6938 4.43653 65.7453C4.43159 65.7502 4.36286 65.8253 4.34594 65.8274C4.34806 65.8274 4.51689 65.7217 4.37731 65.8003C4.3537 65.8137 4.32938 65.8281 4.30682 65.8429C4.15032 65.9462 4.34488 65.826 4.34524 65.8317C4.34559 65.8373 4.07313 65.905 4.20425 65.874C4.31951 65.8468 4.18063 65.874 4.14821 65.8768C4.11578 65.8796 4.07771 65.88 4.04246 65.8803C3.99946 65.8803 3.7122 65.8556 3.91099 65.8845C3.81492 65.8703 3.71981 65.8501 3.6262 65.8243C3.57967 65.8112 3.5342 65.7957 3.48767 65.7813C3.47499 65.7774 3.36255 65.734 3.45525 65.7721C3.53913 65.8073 3.33752 65.7094 3.30474 65.6896C3.26562 65.666 3.22861 65.6403 3.19054 65.6149C3.21698 65.6329 3.31778 65.7284 3.21063 65.6248C3.14472 65.561 3.07845 65.4986 3.01642 65.4309C2.95438 65.3632 2.90539 65.3001 2.849 65.2356C2.7637 65.1376 2.91738 65.334 2.84124 65.2258C2.81868 65.194 2.79507 65.1634 2.77075 65.132C2.6502 64.9649 2.53671 64.7926 2.42638 64.6188C2.2206 64.3071 2.0346 63.9828 1.86948 63.6477C1.8589 63.6252 1.81273 63.4983 1.85961 63.6241C1.84516 63.5857 1.83071 63.5476 1.81731 63.5092C1.78594 63.4201 1.75774 63.3295 1.73413 63.2378C1.72073 63.186 1.71157 63.1321 1.69888 63.0813C1.69077 63.051 1.67562 62.9157 1.69218 63.0718C1.68126 62.9685 1.68619 62.866 1.67985 62.7627C1.67773 62.7274 1.69712 62.5949 1.67139 62.7606C1.67703 62.7253 1.68478 62.6866 1.69359 62.6499C1.70612 62.6126 1.71671 62.5748 1.72532 62.5364C1.73589 62.4493 1.70769 62.6175 1.69007 62.6161C1.69007 62.6161 1.73554 62.5346 1.74082 62.5234C1.7944 62.4092 1.7514 62.5879 1.701 62.5642C1.70311 62.5642 1.84198 62.419 1.8508 62.4088C1.94385 62.3154 1.81379 62.4553 1.80956 62.4391C1.8389 62.416 1.87028 62.3956 1.90331 62.3781C1.93574 62.3588 1.97028 62.3429 2.00236 62.3232C2.13031 62.2456 1.89062 62.3464 1.98403 62.3277C2.05875 62.3133 2.13172 62.278 2.20644 62.2601C2.24451 62.2513 2.28398 62.2467 2.32135 62.2364C2.42039 62.2097 2.11656 62.2424 2.30161 62.2428C2.38021 62.2428 2.45916 62.2428 2.53776 62.2428C2.67523 62.2428 2.48665 62.2365 2.48912 62.234C2.52871 62.237 2.56771 62.2453 2.60509 62.2587C2.64315 62.2682 2.68051 62.2819 2.71893 62.2914C2.86168 62.3267 2.64139 62.2287 2.70906 62.2851C2.75277 62.3203 2.99104 62.4673 2.81481 62.3316C2.97625 62.4849 3.19036 62.5703 3.41295 62.5703C3.63554 62.5703 3.84965 62.4849 4.01109 62.3316C4.29096 62.0271 4.3826 61.4275 4.01109 61.1353C3.60558 60.8076 3.11116 60.6089 2.59164 60.565C2.07212 60.521 1.55134 60.6337 1.09651 60.8886C0.076101 61.4582 -0.172039 62.6118 0.106061 63.6876C0.260596 64.2215 0.493279 64.7296 0.796553 65.1954C1.07235 65.6597 1.38356 66.1019 1.72743 66.5183C2.08327 66.9337 2.54558 67.2443 3.06468 67.4168C3.58377 67.5892 4.14005 67.617 4.67374 67.4971C5.7872 67.237 6.71808 65.8218 6.40085 64.7006C6.34121 64.4843 6.19808 64.3005 6.00295 64.1897C5.80782 64.0789 5.57667 64.0502 5.36036 64.1098C5.14404 64.1695 4.96028 64.3126 4.84949 64.5077C4.73871 64.7029 4.70997 64.934 4.76961 65.1503H4.76856Z" fill="#211715"/>
<path d="M6.76161 58.5682C5.79795 57.5108 4.08459 57.7536 3.10895 58.6468C2.83912 58.8811 2.6186 59.1667 2.46024 59.4871C2.30187 59.8074 2.20883 60.1561 2.18653 60.5128C2.18477 61.1906 2.60773 61.8229 2.93976 62.3893C3.46847 63.2913 4.10292 64.1587 4.70811 65.0145C4.96426 65.4178 5.26948 65.7876 5.61678 66.1157C6.14517 66.5314 6.80685 66.7405 7.47819 66.7039C9.17005 66.6334 10.114 64.9789 9.68642 63.4185C9.39916 62.3699 7.76651 62.8151 8.05518 63.8683C8.08241 63.9571 8.10187 64.0482 8.11334 64.1404C8.11757 64.1919 8.11616 64.243 8.11581 64.2944C8.11581 64.305 8.09466 64.4594 8.11334 64.3572C8.10005 64.5179 8.03357 64.6696 7.92441 64.7882C8.00302 64.6825 7.8504 64.8527 7.82396 64.8813C7.76052 64.9497 7.83947 64.8774 7.85392 64.8665C7.82608 64.8876 7.79647 64.907 7.76721 64.9254C7.65368 65.0001 7.51707 65.0315 7.38231 65.0138C7.21709 65.0173 7.05279 64.9883 6.89872 64.9285C6.848 64.8955 6.79281 64.8698 6.73482 64.8524C6.72249 64.8492 6.62062 64.7858 6.74645 64.8665C6.86383 64.9423 6.73482 64.8535 6.71297 64.8312C6.61181 64.7255 6.517 64.6198 6.42324 64.508C6.36332 64.4375 6.42782 64.5165 6.43698 64.5281C6.40385 64.4858 6.37178 64.4421 6.34005 64.3991C6.2819 64.3205 6.22515 64.2412 6.16875 64.1612C5.74579 63.562 5.33375 62.9561 4.91889 62.353C4.62086 61.9178 4.3475 61.4661 4.1001 61.0002C4.043 60.8945 3.99118 60.7831 3.93267 60.677C3.87064 60.5649 3.9006 60.6573 3.87522 60.5438C3.89602 60.6354 3.87522 60.5159 3.87522 60.5195C3.89074 60.4384 3.91743 60.3599 3.95453 60.2861C4.04781 60.1022 4.17927 59.9404 4.34013 59.8113C4.46218 59.7097 4.60591 59.6373 4.76028 59.5999C4.91294 59.5565 5.07301 59.5457 5.23012 59.5681C5.14059 59.5519 5.31471 59.5935 5.33234 59.5992C5.47015 59.6453 5.23541 59.5611 5.3697 59.6094C5.51069 59.6605 5.44231 59.6302 5.56462 59.7645C5.7237 59.921 5.93817 60.0083 6.16133 60.0074C6.38449 60.0065 6.59826 59.9174 6.75605 59.7596C6.91385 59.6018 7.00291 59.3881 7.00382 59.1649C7.00472 58.9417 6.91742 58.7273 6.76091 58.5682H6.76161Z" fill="#211715"/>
<path d="M10.6061 62.1418C10.6357 62.3472 10.6091 62.5567 10.5292 62.7481C10.5747 62.6424 10.4073 62.9296 10.4588 62.8567C10.4055 62.9039 10.3555 62.9548 10.3093 63.0089C10.2202 63.0749 10.1183 63.1215 10.0101 63.1457C9.86519 63.1919 9.9526 63.1651 10.0005 63.1591C9.95845 63.1655 9.91584 63.1678 9.8733 63.1661C9.82951 63.165 9.78656 63.1538 9.74782 63.1333C9.428 62.9295 9.17161 62.6403 9.00763 62.2983C8.67701 61.7555 8.33793 61.2194 7.99357 60.6844C7.42397 59.7965 6.81737 58.9072 6.57099 57.9076C6.56782 57.8942 6.53751 57.7455 6.56148 57.8614C6.58721 57.9841 6.60377 57.7638 6.5643 57.8699C6.51777 57.9943 6.64395 57.6397 6.57452 57.804C6.62497 57.6676 6.7174 57.5507 6.83852 57.4702C6.98603 57.3546 7.1635 57.2836 7.35002 57.2655C7.53655 57.2474 7.72436 57.2829 7.89135 57.368C8.27677 57.6172 8.59992 57.9514 8.83597 58.345C9.15073 58.7571 9.45668 59.18 9.73161 59.6203C10.3068 60.542 11.771 59.6936 11.1926 58.7662C10.8442 58.2224 10.4683 57.6966 10.0665 57.191C9.70764 56.6396 9.22078 56.1831 8.6474 55.8604C7.25021 55.2084 5.33417 55.816 4.93517 57.4201C4.76775 58.0955 5.0321 58.7793 5.30139 59.3901C5.61633 60.0602 5.98159 60.7054 6.39405 61.3202C6.81032 61.973 7.21496 62.6332 7.63017 63.2863C7.98933 63.9334 8.55051 64.4451 9.22792 64.7431C9.60341 64.859 10.0024 64.8767 10.3866 64.7944C10.7709 64.7121 11.1276 64.5327 11.4228 64.2732C11.7251 64.0111 11.9617 63.6818 12.1137 63.3116C12.2656 62.9414 12.3286 62.5408 12.2976 62.1418C12.2931 61.9189 12.2025 61.7063 12.0448 61.5487C11.8872 61.391 11.6746 61.3004 11.4517 61.2959C11.228 61.298 11.014 61.3878 10.8558 61.546C10.6977 61.7042 10.6078 61.9181 10.6057 62.1418H10.6061Z" fill="#211715"/>
<path d="M76.9199 39.2595C76.9464 41.6986 77.1829 44.2924 76.5696 46.6808C76.1001 48.5084 74.2535 49.4491 72.6571 50.1639C72.4646 50.2783 72.3249 50.4639 72.2681 50.6805C72.2113 50.8971 72.242 51.1273 72.3537 51.3214C72.4706 51.5111 72.6561 51.6485 72.8716 51.705C73.0872 51.7615 73.3162 51.7328 73.5112 51.6249C75.4216 50.7688 77.5096 49.5196 78.1317 47.3808C78.8874 44.7834 78.64 41.9281 78.6111 39.2595C78.5991 38.1714 76.9072 38.1686 76.9192 39.2595H76.9199Z" fill="#211715"/>
<path d="M70.9776 49.3281C70.0566 50.0496 69.8878 51.2272 70.5705 52.0471C70.8624 52.3567 71.2192 52.5979 71.6153 52.7533C72.0114 52.9087 72.437 52.9745 72.8616 52.9459C73.7829 52.9159 75.0145 52.0171 75.1593 50.9865C75.3003 49.988 74.1019 49.1318 73.0001 48.8935C72.6522 48.8063 72.2889 48.8002 71.9383 48.8755C71.5876 48.9509 71.259 49.1057 70.9776 49.3281Z" fill="#211715"/>
<path d="M77.7983 28.0747C78.1173 28.1375 78.4181 28.2707 78.679 28.4646C78.9399 28.6585 79.1542 28.9082 79.3062 29.1955C79.6837 29.8568 79.9252 30.5869 80.0168 31.3428C80.2468 33.0583 80.0135 34.8041 79.3411 36.399C79.0315 37.1547 78.5133 37.8066 77.847 38.2787C77.3641 38.596 76.4836 38.8138 75.9877 38.4113C75.3328 37.8801 75.2619 36.7515 75.214 35.9827C75.1383 34.7552 75.1435 33.5241 75.2295 32.2973C75.2753 31.6392 75.3353 30.9798 75.4364 30.3277C75.4821 29.8732 75.6021 29.4293 75.7917 29.0137C75.9834 28.6645 76.2812 28.3854 76.642 28.2166C77.0027 28.0479 77.4078 27.9981 77.7987 28.0747C78.0148 28.1276 78.2429 28.0959 78.4364 27.9861C78.6299 27.8762 78.7741 27.6966 78.8395 27.4839C78.8973 27.2677 78.8677 27.0374 78.7572 26.8427C78.6467 26.6481 78.4641 26.5047 78.2488 26.4434C77.0571 26.2499 75.852 26.4434 74.9637 27.3246C74.0755 28.2058 73.8626 29.388 73.7086 30.5822C73.5168 32.0652 73.4408 33.5609 73.4813 35.0557C73.5165 36.3197 73.5648 37.688 74.1922 38.8208C74.4859 39.3601 74.9457 39.7904 75.5033 40.0476C76.0609 40.3049 76.6867 40.3756 77.2876 40.2491C78.387 40.0481 79.3664 39.4307 80.0217 38.5255C81.3883 36.7769 81.8584 34.2641 81.7703 32.0851C81.6801 29.8511 80.7598 26.9415 78.2488 26.4456C78.0327 26.3916 77.8041 26.4228 77.6104 26.5328C77.4167 26.6428 77.2727 26.8231 77.2083 27.0363C77.1514 27.2522 77.1813 27.4817 77.2916 27.6758C77.4019 27.8699 77.5838 28.013 77.7983 28.0747Z" fill="#211715"/>
<path d="M64.6796 16.3769C65.4576 18.3401 66.4746 20.1999 67.7077 21.9143C68.9995 23.8674 70.5061 25.6697 72.1992 27.2873C72.9499 28.0265 73.8106 28.6448 74.7508 29.1202C74.946 29.227 75.1747 29.2551 75.3899 29.1987C75.6052 29.1423 75.7906 29.0056 75.9083 28.8167C76.0197 28.6225 76.0504 28.3924 75.9936 28.1758C75.9368 27.9593 75.7972 27.7737 75.6048 27.6592C73.9482 26.8964 72.6441 25.445 71.4457 24.0439C69.9981 22.3477 68.7131 20.5193 67.6076 18.5827C67.339 18.1132 67.0821 17.637 66.8441 17.1513C66.6424 16.7541 66.4644 16.3454 66.3108 15.9272C66.2462 15.7141 66.1022 15.5339 65.9086 15.4239C65.715 15.3139 65.4865 15.2825 65.2703 15.3361C65.055 15.3973 64.8723 15.5408 64.7617 15.7355C64.6511 15.9302 64.6215 16.1606 64.6793 16.3769H64.6796Z" fill="#211715"/>
<path d="M64.7663 15.7241C64.3722 16.2124 63.94 16.6686 63.4738 17.0885C62.9409 17.5737 62.3796 18.0267 61.7929 18.4452C60.3342 19.4812 58.786 20.385 57.1667 21.1458C55.4602 21.9597 53.6794 22.6074 51.8489 23.0802C50.1322 23.5275 48.4538 24.1108 46.8297 24.8246C44.854 25.6793 42.9577 26.7071 41.163 27.896C40.2604 28.4952 41.1067 29.9622 42.0167 29.357C45.1132 27.2652 48.5385 25.7076 52.1503 24.7492C55.8286 23.8144 59.309 22.2266 62.4259 20.0613C63.8653 19.1043 65.1471 17.9292 66.2252 16.5782C66.3372 16.3841 66.3681 16.1538 66.3113 15.937C66.2545 15.7203 66.1145 15.5348 65.9217 15.4206C65.7268 15.3129 65.4979 15.2844 65.2824 15.3409C65.067 15.3974 64.8815 15.5346 64.7646 15.7241H64.7663Z" fill="#211715"/>
<path d="M55.9738 42.4187C56.991 42.9448 58.1241 43.207 59.269 43.1811C60.4545 43.2317 61.6232 42.8873 62.5918 42.202C62.7494 42.0428 62.8378 41.8278 62.8378 41.6038C62.8378 41.3798 62.7494 41.1649 62.5918 41.0057C62.4304 40.8522 62.2163 40.7666 61.9936 40.7666C61.7709 40.7666 61.5568 40.8522 61.3955 41.0057C61.6514 40.8065 61.4501 40.9606 61.3845 41.0029C61.319 41.0452 61.2499 41.0846 61.1805 41.1209C61.1227 41.1512 60.8724 41.2506 61.1026 41.1653C61.0088 41.2006 60.9165 41.2358 60.8206 41.2679C60.5633 41.3492 60.2999 41.4094 60.0328 41.4477C60.1565 41.4294 60.0029 41.4498 59.9549 41.4547C59.8774 41.4621 59.8002 41.4688 59.7226 41.4738C59.5362 41.4857 59.3494 41.4903 59.1626 41.4893C58.9951 41.4893 58.8281 41.4826 58.661 41.4713C58.5845 41.466 58.5077 41.46 58.4315 41.4523C58.4248 41.4523 58.1496 41.4135 58.3173 41.4399C58.0686 41.4019 57.8228 41.3472 57.5814 41.2764C57.4781 41.2457 57.3776 41.2087 57.2758 41.1738C57.059 41.0994 57.397 41.2369 57.2014 41.1446C57.0752 41.085 56.9508 41.023 56.8271 40.9577C56.6323 40.8493 56.4032 40.8204 56.1875 40.8769C55.9719 40.9335 55.7864 41.0712 55.6699 41.2612C55.5591 41.4555 55.5289 41.6855 55.5856 41.9019C55.6423 42.1182 55.7815 42.3038 55.9734 42.4187H55.9738Z" fill="#211715"/>
<path d="M58.8416 34.6491C58.9937 35.1979 59.1153 35.7547 59.2061 36.3169L59.1758 36.0921C59.1867 36.1683 59.1888 36.2455 59.1821 36.3222L59.2124 36.0974C59.2072 36.1326 59.1987 36.1673 59.1871 36.201L59.2724 35.9987C59.2628 36.0219 59.251 36.0443 59.2371 36.0653L59.3696 35.894C59.3535 35.9139 59.3352 35.932 59.315 35.9479L59.4863 35.8157C59.4438 35.8421 59.3997 35.8656 59.3541 35.8862L59.5561 35.8009C59.4847 35.8315 59.4099 35.8532 59.3333 35.8658L59.5586 35.8358C59.4891 35.8439 59.419 35.8439 59.3496 35.8358L59.5744 35.8658C59.4955 35.8549 59.4183 35.8358 59.3393 35.8253C59.2303 35.79 59.1138 35.7848 59.002 35.8101C58.8901 35.8148 58.7815 35.8495 58.6876 35.9105C58.4939 36.0238 58.3531 36.2093 58.2962 36.4263C58.2393 36.6433 58.2709 36.874 58.3841 37.0677C58.4378 37.1631 58.5103 37.2467 58.5972 37.3133C58.684 37.3799 58.7835 37.4283 58.8896 37.4554C59.0679 37.4794 59.2421 37.5259 59.4229 37.533C59.6958 37.5344 59.9651 37.4705 60.2082 37.3465C60.3617 37.2769 60.4978 37.1737 60.6064 37.0447C60.7149 36.9156 60.7932 36.7639 60.8356 36.6007C60.8912 36.335 60.8885 36.0605 60.8275 35.796C60.7369 35.2588 60.6125 34.7262 60.475 34.1993C60.4455 34.0922 60.3951 33.9919 60.3269 33.9043C60.2586 33.8166 60.1737 33.7433 60.0771 33.6884C59.9805 33.6336 59.874 33.5983 59.7637 33.5846C59.6535 33.5709 59.5416 33.579 59.4345 33.6086C59.3274 33.6381 59.2272 33.6884 59.1395 33.7567C59.0518 33.825 58.9785 33.9098 58.9236 34.0065C58.8688 34.1031 58.8335 34.2096 58.8198 34.3198C58.8061 34.4301 58.8142 34.5419 58.8438 34.6491H58.8416Z" fill="#211715"/>
<path d="M50.0144 29.926C49.7359 30.8312 49.9175 32.9136 51.6322 33.0909C53.8986 33.0771 54.0195 30.5598 53.2564 29.3762C52.6318 28.4072 50.7948 28.0043 50.0144 29.926Z" fill="#211715"/>
<path d="M68.1654 29.9261C68.4438 30.8312 68.2623 32.9133 66.5475 33.0906C64.2811 33.0768 64.1602 30.5595 64.9233 29.3759C65.5479 28.4073 67.3846 28.0044 68.1654 29.9261Z" fill="#211715"/>
</svg>
